%TF.GenerationSoftware,KiCad,Pcbnew,7.0.5*%
%TF.CreationDate,2023-06-05T13:48:53-07:00*%
%TF.ProjectId,M7700,4d373730-302e-46b6-9963-61645f706362,rev?*%
%TF.SameCoordinates,PX7bfa480PY459e440*%
%TF.FileFunction,Soldermask,Top*%
%TF.FilePolarity,Negative*%
%FSLAX46Y46*%
G04 Gerber Fmt 4.6, Leading zero omitted, Abs format (unit mm)*
G04 Created by KiCad (PCBNEW 7.0.5) date 2023-06-05 13:48:53*
%MOMM*%
%LPD*%
G01*
G04 APERTURE LIST*
%ADD10O,1.500000X0.500000*%
%ADD11O,0.500000X1.500000*%
%ADD12R,1.600000X1.600000*%
%ADD13C,1.600000*%
%ADD14O,1.600000X1.600000*%
G04 APERTURE END LIST*
D10*
%TO.C,U2*%
X-21050000Y-1800000D03*
X-21050000Y-2600000D03*
X-21050000Y-3400000D03*
X-21050000Y-4200000D03*
X-21050000Y-5000000D03*
X-21050000Y-5800000D03*
X-21050000Y-6600000D03*
X-21050000Y-7400000D03*
X-21050000Y-8200000D03*
X-21050000Y-9000000D03*
X-21050000Y-9800000D03*
X-21050000Y-10600000D03*
X-21050000Y-11400000D03*
X-21050000Y-12200000D03*
X-21050000Y-13000000D03*
X-21050000Y-13800000D03*
X-21050000Y-14600000D03*
X-21050000Y-15400000D03*
X-21050000Y-16200000D03*
X-21050000Y-17000000D03*
X-21050000Y-17800000D03*
X-21050000Y-18600000D03*
X-21050000Y-19400000D03*
X-21050000Y-20200000D03*
D11*
X-19000000Y-22050000D03*
X-18200000Y-22050000D03*
X-17400000Y-22050000D03*
X-16600000Y-22050000D03*
X-15800000Y-22050000D03*
X-15000000Y-22050000D03*
X-14200000Y-22050000D03*
X-13400000Y-22050000D03*
X-12600000Y-22050000D03*
X-11800000Y-22050000D03*
X-11000000Y-22050000D03*
X-10200000Y-22050000D03*
X-9400000Y-22050000D03*
X-8600000Y-22050000D03*
X-7800000Y-22050000D03*
X-7000000Y-22050000D03*
D10*
X-4950000Y-20200000D03*
X-4950000Y-19400000D03*
X-4950000Y-18600000D03*
X-4950000Y-17800000D03*
X-4950000Y-17000000D03*
X-4950000Y-16200000D03*
X-4950000Y-15400000D03*
X-4950000Y-14600000D03*
X-4950000Y-13800000D03*
X-4950000Y-13000000D03*
X-4950000Y-12200000D03*
X-4950000Y-11400000D03*
X-4950000Y-10600000D03*
X-4950000Y-9800000D03*
X-4950000Y-9000000D03*
X-4950000Y-8200000D03*
X-4950000Y-7400000D03*
X-4950000Y-6600000D03*
X-4950000Y-5800000D03*
X-4950000Y-5000000D03*
X-4950000Y-4200000D03*
X-4950000Y-3400000D03*
X-4950000Y-2600000D03*
X-4950000Y-1800000D03*
D11*
X-7000000Y50000D03*
X-7800000Y50000D03*
X-8600000Y50000D03*
X-9400000Y50000D03*
X-10200000Y50000D03*
X-11000000Y50000D03*
X-11800000Y50000D03*
X-12600000Y50000D03*
X-13400000Y50000D03*
X-14200000Y50000D03*
X-15000000Y50000D03*
X-15800000Y50000D03*
X-16600000Y50000D03*
X-17400000Y50000D03*
X-18200000Y50000D03*
X-19000000Y50000D03*
%TD*%
D12*
%TO.C,X1*%
X-9000000Y-35000000D03*
D13*
X-9000000Y-27380000D03*
X-16620000Y-27380000D03*
X-16620000Y-35000000D03*
%TD*%
D14*
%TO.C,U1*%
X7620000Y0D03*
X7620000Y-2540000D03*
X7620000Y-5080000D03*
X7620000Y-7620000D03*
X7620000Y-10160000D03*
X7620000Y-12700000D03*
X7620000Y-15240000D03*
X7620000Y-17780000D03*
X7620000Y-20320000D03*
X7620000Y-22860000D03*
X7620000Y-25400000D03*
X7620000Y-27940000D03*
X7620000Y-30480000D03*
X7620000Y-33020000D03*
X7620000Y-35560000D03*
X7620000Y-38100000D03*
X0Y-38100000D03*
X0Y-35560000D03*
X0Y-33020000D03*
X0Y-30480000D03*
X0Y-27940000D03*
X0Y-25400000D03*
X0Y-22860000D03*
X0Y-20320000D03*
X0Y-17780000D03*
X0Y-15240000D03*
X0Y-12700000D03*
X0Y-10160000D03*
X0Y-7620000D03*
X0Y-5080000D03*
X0Y-2540000D03*
D12*
X0Y0D03*
%TD*%
M02*
