M48
; DRILL file {KiCad 7.0.5} date Mon Jun  5 13:49:01 2023
; FORMAT={-:-/ absolute / inch / decimal}
; #@! TF.CreationDate,2023-06-05T13:49:01-07:00
; #@! TF.GenerationSoftware,Kicad,Pcbnew,7.0.5
; #@! TF.FileFunction,Plated,1,2,PTH
FMAT,2
INCH
; #@! TA.AperFunction,Plated,PTH,ViaDrill
T1C0.0157
; #@! TA.AperFunction,Plated,PTH,ComponentDrill
T2C0.0315
%
G90
G05
T1
X-0.7717Y-0.4173
X-0.7717Y-0.4803
X-0.7402Y-0.4488
X-0.4961Y-0.6299
X-0.4665Y-0.5118
X-0.438Y-0.5748
X-0.4331Y-0.0866
X-0.4016Y-0.0551
X-0.3701Y-0.9528
X-0.3386Y-0.9213
X-0.3071Y-0.9528
X-0.2835Y-0.2283
X-0.2835Y-0.2913
X-0.2835Y-0.5748
X-0.2756Y-0.9213
X-0.2598Y-0.3858
X-0.252Y-0.1969
X-0.252Y-0.2598
X-0.252Y-0.3228
X-0.252Y-0.6378
X-0.1339Y-0.3858
X-0.1181Y-0.5118
X-0.0275Y-0.75
X0.2047Y-0.7244
X0.2047Y-0.7717
X0.2047Y-0.8189
T2
X-0.6543Y-1.078
X-0.6543Y-1.378
X-0.3543Y-1.078
X-0.3543Y-1.378
X0.0Y0.0
X0.0Y-0.1
X0.0Y-0.2
X0.0Y-0.3
X0.0Y-0.4
X0.0Y-0.5
X0.0Y-0.6
X0.0Y-0.7
X0.0Y-0.8
X0.0Y-0.9
X0.0Y-1.0
X0.0Y-1.1
X0.0Y-1.2
X0.0Y-1.3
X0.0Y-1.4
X0.0Y-1.5
X0.3Y0.0
X0.3Y-0.1
X0.3Y-0.2
X0.3Y-0.3
X0.3Y-0.4
X0.3Y-0.5
X0.3Y-0.6
X0.3Y-0.7
X0.3Y-0.8
X0.3Y-0.9
X0.3Y-1.0
X0.3Y-1.1
X0.3Y-1.2
X0.3Y-1.3
X0.3Y-1.4
X0.3Y-1.5
T0
M30
