%TF.GenerationSoftware,KiCad,Pcbnew,7.0.5*%
%TF.CreationDate,2023-06-05T13:48:53-07:00*%
%TF.ProjectId,M7700,4d373730-302e-46b6-9963-61645f706362,rev?*%
%TF.SameCoordinates,PX7bfa480PY459e440*%
%TF.FileFunction,Copper,L1,Top*%
%TF.FilePolarity,Positive*%
%FSLAX46Y46*%
G04 Gerber Fmt 4.6, Leading zero omitted, Abs format (unit mm)*
G04 Created by KiCad (PCBNEW 7.0.5) date 2023-06-05 13:48:53*
%MOMM*%
%LPD*%
G01*
G04 APERTURE LIST*
%TA.AperFunction,SMDPad,CuDef*%
%ADD10O,1.500000X0.500000*%
%TD*%
%TA.AperFunction,SMDPad,CuDef*%
%ADD11O,0.500000X1.500000*%
%TD*%
%TA.AperFunction,ComponentPad*%
%ADD12R,1.600000X1.600000*%
%TD*%
%TA.AperFunction,ComponentPad*%
%ADD13C,1.600000*%
%TD*%
%TA.AperFunction,ComponentPad*%
%ADD14O,1.600000X1.600000*%
%TD*%
%TA.AperFunction,ViaPad*%
%ADD15C,0.800000*%
%TD*%
%TA.AperFunction,Conductor*%
%ADD16C,0.250000*%
%TD*%
G04 APERTURE END LIST*
D10*
%TO.P,U2,1,P70*%
%TO.N,GND*%
X-21050000Y-1800000D03*
%TO.P,U2,2,P67*%
X-21050000Y-2600000D03*
%TO.P,U2,3,P66*%
X-21050000Y-3400000D03*
%TO.P,U2,4,P65*%
X-21050000Y-4200000D03*
%TO.P,U2,5,P64*%
X-21050000Y-5000000D03*
%TO.P,U2,6,P63*%
X-21050000Y-5800000D03*
%TO.P,U2,7,P62*%
X-21050000Y-6600000D03*
%TO.P,U2,8,P61*%
X-21050000Y-7400000D03*
%TO.P,U2,9,P60*%
X-21050000Y-8200000D03*
%TO.P,U2,10,P57*%
X-21050000Y-9000000D03*
%TO.P,U2,11,P56*%
X-21050000Y-9800000D03*
%TO.P,U2,12,P55*%
%TO.N,VCC*%
X-21050000Y-10600000D03*
%TO.P,U2,13,P54*%
X-21050000Y-11400000D03*
%TO.P,U2,14,P53*%
X-21050000Y-12200000D03*
%TO.P,U2,15,P52*%
%TO.N,/!CE*%
X-21050000Y-13000000D03*
%TO.P,U2,16,P51*%
%TO.N,/!OE*%
X-21050000Y-13800000D03*
%TO.P,U2,17,P50*%
%TO.N,/!PGM*%
X-21050000Y-14600000D03*
%TO.P,U2,18,P47*%
%TO.N,GND*%
X-21050000Y-15400000D03*
%TO.P,U2,19,P46*%
X-21050000Y-16200000D03*
%TO.P,U2,20,P45*%
X-21050000Y-17000000D03*
%TO.P,U2,21,P44*%
X-21050000Y-17800000D03*
%TO.P,U2,22,P43*%
X-21050000Y-18600000D03*
%TO.P,U2,23,P42*%
X-21050000Y-19400000D03*
%TO.P,U2,24,P41*%
X-21050000Y-20200000D03*
D11*
%TO.P,U2,25,P40*%
X-19000000Y-22050000D03*
%TO.P,U2,26,BYTE*%
%TO.N,/VPP*%
X-18200000Y-22050000D03*
%TO.P,U2,27,CNVSS*%
X-17400000Y-22050000D03*
%TO.P,U2,28,!RESET*%
%TO.N,GND*%
X-16600000Y-22050000D03*
%TO.P,U2,29,XIN*%
%TO.N,Net-(U2-XIN)*%
X-15800000Y-22050000D03*
%TO.P,U2,30,XOUT*%
%TO.N,unconnected-(U2-XOUT-Pad30)*%
X-15000000Y-22050000D03*
%TO.P,U2,31,!E*%
%TO.N,unconnected-(U2-!E-Pad31)*%
X-14200000Y-22050000D03*
%TO.P,U2,32,VSS*%
%TO.N,GND*%
X-13400000Y-22050000D03*
%TO.P,U2,33,P33*%
X-12600000Y-22050000D03*
%TO.P,U2,34,P32*%
X-11800000Y-22050000D03*
%TO.P,U2,35,P31*%
X-11000000Y-22050000D03*
%TO.P,U2,36,P30*%
X-10200000Y-22050000D03*
%TO.P,U2,37,P27*%
%TO.N,/D7*%
X-9400000Y-22050000D03*
%TO.P,U2,38,P26*%
%TO.N,/D6*%
X-8600000Y-22050000D03*
%TO.P,U2,39,P25*%
%TO.N,/D5*%
X-7800000Y-22050000D03*
%TO.P,U2,40,P24*%
%TO.N,/D4*%
X-7000000Y-22050000D03*
D10*
%TO.P,U2,41,P23*%
%TO.N,/D3*%
X-4950000Y-20200000D03*
%TO.P,U2,42,P22*%
%TO.N,/D2*%
X-4950000Y-19400000D03*
%TO.P,U2,43,P21*%
%TO.N,/D1*%
X-4950000Y-18600000D03*
%TO.P,U2,44,P20*%
%TO.N,/D0*%
X-4950000Y-17800000D03*
%TO.P,U2,45,P17*%
%TO.N,/A15*%
X-4950000Y-17000000D03*
%TO.P,U2,46,P16*%
%TO.N,/A14*%
X-4950000Y-16200000D03*
%TO.P,U2,47,P15*%
%TO.N,/A13*%
X-4950000Y-15400000D03*
%TO.P,U2,48,P14*%
%TO.N,/A12*%
X-4950000Y-14600000D03*
%TO.P,U2,49,P13*%
%TO.N,/A11*%
X-4950000Y-13800000D03*
%TO.P,U2,50,P12*%
%TO.N,/A10*%
X-4950000Y-13000000D03*
%TO.P,U2,51,P11*%
%TO.N,/A9*%
X-4950000Y-12200000D03*
%TO.P,U2,52,P10*%
%TO.N,/A8*%
X-4950000Y-11400000D03*
%TO.P,U2,53,P07*%
%TO.N,/A7*%
X-4950000Y-10600000D03*
%TO.P,U2,54,P06*%
%TO.N,/A6*%
X-4950000Y-9800000D03*
%TO.P,U2,55,P05*%
%TO.N,/A5*%
X-4950000Y-9000000D03*
%TO.P,U2,56,P04*%
%TO.N,/A4*%
X-4950000Y-8200000D03*
%TO.P,U2,57,P03*%
%TO.N,/A3*%
X-4950000Y-7400000D03*
%TO.P,U2,58,P02*%
%TO.N,/A2*%
X-4950000Y-6600000D03*
%TO.P,U2,59,P01*%
%TO.N,/A1*%
X-4950000Y-5800000D03*
%TO.P,U2,60,P00*%
%TO.N,/A0*%
X-4950000Y-5000000D03*
%TO.P,U2,61,P87*%
%TO.N,GND*%
X-4950000Y-4200000D03*
%TO.P,U2,62,P86*%
X-4950000Y-3400000D03*
%TO.P,U2,63,P85*%
X-4950000Y-2600000D03*
%TO.P,U2,64,P84*%
X-4950000Y-1800000D03*
D11*
%TO.P,U2,65,P83*%
X-7000000Y50000D03*
%TO.P,U2,66,P82*%
X-7800000Y50000D03*
%TO.P,U2,67,P81*%
X-8600000Y50000D03*
%TO.P,U2,68,P80*%
X-9400000Y50000D03*
%TO.P,U2,69,VCC*%
%TO.N,VCC*%
X-10200000Y50000D03*
%TO.P,U2,70,AVCC*%
X-11000000Y50000D03*
%TO.P,U2,71,VREF*%
%TO.N,GND*%
X-11800000Y50000D03*
%TO.P,U2,72,AVSS*%
X-12600000Y50000D03*
%TO.P,U2,73,VSS*%
X-13400000Y50000D03*
%TO.P,U2,74,P77*%
X-14200000Y50000D03*
%TO.P,U2,75,P76*%
X-15000000Y50000D03*
%TO.P,U2,76,P75*%
X-15800000Y50000D03*
%TO.P,U2,77,P74*%
X-16600000Y50000D03*
%TO.P,U2,78,P73*%
X-17400000Y50000D03*
%TO.P,U2,79,P72*%
X-18200000Y50000D03*
%TO.P,U2,80,P71*%
X-19000000Y50000D03*
%TD*%
D12*
%TO.P,X1,1,EN*%
%TO.N,unconnected-(X1-EN-Pad1)*%
X-9000000Y-35000000D03*
D13*
%TO.P,X1,4,GND*%
%TO.N,GND*%
X-9000000Y-27380000D03*
%TO.P,X1,5,OUT*%
%TO.N,Net-(U2-XIN)*%
X-16620000Y-27380000D03*
%TO.P,X1,8,Vcc*%
%TO.N,VCC*%
X-16620000Y-35000000D03*
%TD*%
D14*
%TO.P,U1,32,VCC*%
%TO.N,VCC*%
X7620000Y0D03*
%TO.P,U1,31,~{PGM}*%
%TO.N,/!PGM*%
X7620000Y-2540000D03*
%TO.P,U1,30*%
%TO.N,N/C*%
X7620000Y-5080000D03*
%TO.P,U1,29,A14*%
%TO.N,/A14*%
X7620000Y-7620000D03*
%TO.P,U1,28,A13*%
%TO.N,/A13*%
X7620000Y-10160000D03*
%TO.P,U1,27,A8*%
%TO.N,/A8*%
X7620000Y-12700000D03*
%TO.P,U1,26,A9*%
%TO.N,/A9*%
X7620000Y-15240000D03*
%TO.P,U1,25,A11*%
%TO.N,/A11*%
X7620000Y-17780000D03*
%TO.P,U1,24,~{OE}*%
%TO.N,/!OE*%
X7620000Y-20320000D03*
%TO.P,U1,23,A10*%
%TO.N,/A10*%
X7620000Y-22860000D03*
%TO.P,U1,22,~{CE}*%
%TO.N,/!CE*%
X7620000Y-25400000D03*
%TO.P,U1,21,D7*%
%TO.N,/D7*%
X7620000Y-27940000D03*
%TO.P,U1,20,D6*%
%TO.N,/D6*%
X7620000Y-30480000D03*
%TO.P,U1,19,D5*%
%TO.N,/D5*%
X7620000Y-33020000D03*
%TO.P,U1,18,D4*%
%TO.N,/D4*%
X7620000Y-35560000D03*
%TO.P,U1,17,D3*%
%TO.N,/D3*%
X7620000Y-38100000D03*
%TO.P,U1,16,GND*%
%TO.N,GND*%
X0Y-38100000D03*
%TO.P,U1,15,D2*%
%TO.N,/D2*%
X0Y-35560000D03*
%TO.P,U1,14,D1*%
%TO.N,/D1*%
X0Y-33020000D03*
%TO.P,U1,13,D0*%
%TO.N,/D0*%
X0Y-30480000D03*
%TO.P,U1,12,A0*%
%TO.N,/A0*%
X0Y-27940000D03*
%TO.P,U1,11,A1*%
%TO.N,/A1*%
X0Y-25400000D03*
%TO.P,U1,10,A2*%
%TO.N,/A2*%
X0Y-22860000D03*
%TO.P,U1,9,A3*%
%TO.N,/A3*%
X0Y-20320000D03*
%TO.P,U1,8,A4*%
%TO.N,/A4*%
X0Y-17780000D03*
%TO.P,U1,7,A5*%
%TO.N,/A5*%
X0Y-15240000D03*
%TO.P,U1,6,A6*%
%TO.N,/A6*%
X0Y-12700000D03*
%TO.P,U1,5,A7*%
%TO.N,/A7*%
X0Y-10160000D03*
%TO.P,U1,4,A12*%
%TO.N,/A12*%
X0Y-7620000D03*
%TO.P,U1,3,A15*%
%TO.N,/A15*%
X0Y-5080000D03*
%TO.P,U1,2,A16*%
%TO.N,unconnected-(U1-A16-Pad2)*%
X0Y-2540000D03*
D12*
%TO.P,U1,1,VPP*%
%TO.N,/VPP*%
X0Y0D03*
%TD*%
D15*
%TO.N,VCC*%
X-19600000Y-12200000D03*
X-18800000Y-11400000D03*
X-19600000Y-10600000D03*
X-11000000Y-2200000D03*
X-10200000Y-1400000D03*
%TO.N,/VPP*%
X-12600000Y-16000000D03*
%TO.N,/!PGM*%
X-11124500Y-14600000D03*
%TO.N,/A15*%
X5200000Y-20800000D03*
%TO.N,/A14*%
X5200000Y-19600000D03*
%TO.N,/A13*%
X5200000Y-18400000D03*
%TO.N,/!OE*%
X-6400000Y-16200000D03*
X-698337Y-19049810D03*
%TO.N,/A12*%
X-7200000Y-14600000D03*
%TO.N,/A0*%
X-6400000Y-5000000D03*
%TO.N,/A5*%
X-6600000Y-9800000D03*
%TO.N,/A1*%
X-7200000Y-5800000D03*
%TO.N,/A2*%
X-6400000Y-6600000D03*
%TO.N,/A3*%
X-7200000Y-7400000D03*
%TO.N,/A4*%
X-6400000Y-8200000D03*
%TO.N,/A6*%
X-3400000Y-9800000D03*
%TO.N,/A10*%
X-3000000Y-13000000D03*
%TO.N,/!CE*%
X-11849000Y-13000000D03*
%TO.N,/D7*%
X-9400000Y-24200000D03*
%TO.N,/D6*%
X-8600000Y-23400000D03*
%TO.N,/D5*%
X-7800000Y-24200000D03*
%TO.N,/D4*%
X-7000000Y-23400000D03*
%TD*%
D16*
%TO.N,/A13*%
X4800000Y-18400000D02*
X5200000Y-18400000D01*
X3600000Y-19600000D02*
X4800000Y-18400000D01*
X-1000000Y-24200000D02*
X800000Y-24200000D01*
X3600000Y-21400000D02*
X3600000Y-19600000D01*
X-1473337Y-23726663D02*
X-1000000Y-24200000D01*
X-4292894Y-15400000D02*
X-1473337Y-18219557D01*
X800000Y-24200000D02*
X3600000Y-21400000D01*
X-4950000Y-15400000D02*
X-4292894Y-15400000D01*
X-1473337Y-18219557D02*
X-1473337Y-23726663D01*
%TO.N,/!OE*%
X6200000Y-18000000D02*
X6200000Y-18900000D01*
X5600000Y-17400000D02*
X6200000Y-18000000D01*
X2000000Y-17400000D02*
X5600000Y-17400000D01*
X6200000Y-18900000D02*
X7620000Y-20320000D01*
X1400000Y-18000000D02*
X2000000Y-17400000D01*
X1400000Y-18400000D02*
X1400000Y-18000000D01*
X-648527Y-19000000D02*
X800000Y-19000000D01*
X-698337Y-19049810D02*
X-648527Y-19000000D01*
X800000Y-19000000D02*
X1400000Y-18400000D01*
%TO.N,GND*%
X-5000000Y-4200000D02*
X-3650000Y-4200000D01*
X-5000000Y-3400000D02*
X-3650000Y-3400000D01*
X-5000000Y-2600000D02*
X-3650000Y-2600000D01*
X-16600000Y-22000000D02*
X-16600000Y-23350000D01*
X-10200000Y-22000000D02*
X-10200000Y-23350000D01*
X-11000000Y-22000000D02*
X-11000000Y-23350000D01*
X-11800000Y-22000000D02*
X-11800000Y-23350000D01*
X-12600000Y-22000000D02*
X-12600000Y-23350000D01*
X-13400000Y-22000000D02*
X-13400000Y-23350000D01*
X-21000000Y-19400000D02*
X-22350000Y-19400000D01*
X-21000000Y-18600000D02*
X-22350000Y-18600000D01*
X-21000000Y-17800000D02*
X-22350000Y-17800000D01*
X-21000000Y-17000000D02*
X-22350000Y-17000000D01*
X-21000000Y-16200000D02*
X-22350000Y-16200000D01*
X-21000000Y-15400000D02*
X-22350000Y-15400000D01*
X-21000000Y-9800000D02*
X-22350000Y-9800000D01*
X-21000000Y-9000000D02*
X-22350000Y-9000000D01*
X-21000000Y-8200000D02*
X-22350000Y-8200000D01*
X-21000000Y-7400000D02*
X-22350000Y-7400000D01*
X-21000000Y-6600000D02*
X-22350000Y-6600000D01*
X-21000000Y-5800000D02*
X-22350000Y-5800000D01*
X-21000000Y-5000000D02*
X-22350000Y-5000000D01*
X-21000000Y-4200000D02*
X-22350000Y-4200000D01*
X-21000000Y-3400000D02*
X-22350000Y-3400000D01*
X-21000000Y-2600000D02*
X-22350000Y-2600000D01*
X-19000000Y0D02*
X-19000000Y1350000D01*
X-18200000Y0D02*
X-18200000Y1350000D01*
X-17400000Y0D02*
X-17400000Y1350000D01*
X-16600000Y0D02*
X-16600000Y1350000D01*
X-15800000Y0D02*
X-15800000Y1350000D01*
X-15000000Y0D02*
X-15000000Y1350000D01*
X-14200000Y0D02*
X-14200000Y1350000D01*
X-13400000Y0D02*
X-13400000Y1350000D01*
X-12600000Y0D02*
X-12600000Y1350000D01*
X-11800000Y0D02*
X-11800000Y1350000D01*
X-9400000Y0D02*
X-9400000Y1350000D01*
X-8600000Y0D02*
X-8600000Y1350000D01*
X-7800000Y0D02*
X-7800000Y1350000D01*
X-7000000Y50000D02*
X-7000000Y1400000D01*
%TO.N,VCC*%
X-21050000Y-12200000D02*
X-19600000Y-12200000D01*
X-21050000Y-11400000D02*
X-18800000Y-11400000D01*
X-21050000Y-10600000D02*
X-19600000Y-10600000D01*
X-11000000Y50000D02*
X-11000000Y-2200000D01*
X-10200000Y50000D02*
X-10200000Y-1400000D01*
%TO.N,/VPP*%
X-18000000Y-20400000D02*
X-17400000Y-20400000D01*
X-17400000Y-17400000D02*
X-17400000Y-20400000D01*
X-18200000Y-20600000D02*
X-18000000Y-20400000D01*
X-17400000Y-20400000D02*
X-17400000Y-22050000D01*
X-18200000Y-22050000D02*
X-18200000Y-20600000D01*
X-16000000Y-16000000D02*
X-17400000Y-17400000D01*
X-12600000Y-16000000D02*
X-16000000Y-16000000D01*
%TO.N,/!CE*%
X-11849000Y-13000000D02*
X-21050000Y-13000000D01*
%TO.N,/!PGM*%
X-21050000Y-14600000D02*
X-11124500Y-14600000D01*
%TO.N,/!OE*%
X-9200000Y-13800000D02*
X-21050000Y-13800000D01*
X-6800000Y-16200000D02*
X-9200000Y-13800000D01*
X-6400000Y-16200000D02*
X-6800000Y-16200000D01*
%TO.N,/A15*%
X1400000Y-29200000D02*
X4600000Y-26000000D01*
X800000Y-29200000D02*
X1400000Y-29200000D01*
X4600000Y-26000000D02*
X5200000Y-25400000D01*
X5200000Y-25400000D02*
X5200000Y-20800000D01*
%TO.N,/A14*%
X4200000Y-20600000D02*
X5200000Y-19600000D01*
X4200000Y-23800000D02*
X4200000Y-20600000D01*
X1200000Y-26800000D02*
X4200000Y-23800000D01*
%TO.N,/A5*%
X-5800000Y-9000000D02*
X-4950000Y-9000000D01*
X-6600000Y-9800000D02*
X-5800000Y-9000000D01*
%TO.N,/A12*%
X-4950000Y-14600000D02*
X-7200000Y-14600000D01*
%TO.N,/A14*%
X-1000000Y-26800000D02*
X1200000Y-26800000D01*
X-2000000Y-25800000D02*
X-1000000Y-26800000D01*
X-2000000Y-18400000D02*
X-2000000Y-19600000D01*
X-4200000Y-16200000D02*
X-2000000Y-18400000D01*
X-4950000Y-16200000D02*
X-4200000Y-16200000D01*
X-2000000Y-19600000D02*
X-2000000Y-25800000D01*
%TO.N,/A15*%
X-800000Y-29200000D02*
X800000Y-29200000D01*
X-2450000Y-18750000D02*
X-2450000Y-27550000D01*
X-2450000Y-27550000D02*
X-800000Y-29200000D01*
X-4200000Y-17000000D02*
X-2450000Y-18750000D01*
X-4950000Y-17000000D02*
X-4200000Y-17000000D01*
%TO.N,/D0*%
X-920000Y-30480000D02*
X0Y-30480000D01*
X-2900000Y-28500000D02*
X-920000Y-30480000D01*
X-2900000Y-19100000D02*
X-2900000Y-28500000D01*
X-4200000Y-17800000D02*
X-2900000Y-19100000D01*
X-4950000Y-17800000D02*
X-4200000Y-17800000D01*
%TO.N,/D1*%
X-3350000Y-29670000D02*
X0Y-33020000D01*
X-3350000Y-19450000D02*
X-3350000Y-29670000D01*
X-4950000Y-18600000D02*
X-4200000Y-18600000D01*
X-4200000Y-18600000D02*
X-3350000Y-19450000D01*
%TO.N,/D2*%
X-3800000Y-31760000D02*
X0Y-35560000D01*
X-3800000Y-19800000D02*
X-3800000Y-31760000D01*
X-4200000Y-19400000D02*
X-3800000Y-19800000D01*
X-4950000Y-19400000D02*
X-4200000Y-19400000D01*
%TO.N,/D3*%
X-1400000Y-36800000D02*
X6320000Y-36800000D01*
X-4950000Y-33250000D02*
X-1400000Y-36800000D01*
X-4950000Y-20200000D02*
X-4950000Y-33250000D01*
X6320000Y-36800000D02*
X7620000Y-38100000D01*
%TO.N,/A0*%
X-6400000Y-5000000D02*
X-4950000Y-5000000D01*
%TO.N,/A1*%
X-7200000Y-5800000D02*
X-4950000Y-5800000D01*
%TO.N,/A2*%
X-6400000Y-6600000D02*
X-4950000Y-6600000D01*
%TO.N,/A3*%
X-7200000Y-7400000D02*
X-4950000Y-7400000D01*
%TO.N,/A4*%
X-6400000Y-8200000D02*
X-4950000Y-8200000D01*
%TO.N,/A6*%
X-4950000Y-9800000D02*
X-3400000Y-9800000D01*
%TO.N,/A10*%
X-3000000Y-13000000D02*
X-4950000Y-13000000D01*
%TO.N,Net-(U2-XIN)*%
X-16620000Y-27380000D02*
X-15800000Y-26560000D01*
X-15800000Y-26560000D02*
X-15800000Y-22050000D01*
%TO.N,/D7*%
X-9400000Y-22050000D02*
X-9400000Y-24200000D01*
%TO.N,/D6*%
X-8600000Y-22050000D02*
X-8600000Y-23400000D01*
%TO.N,/D5*%
X-7800000Y-22050000D02*
X-7800000Y-24200000D01*
%TO.N,/D4*%
X-7000000Y-22050000D02*
X-7000000Y-23400000D01*
%TO.N,/A11*%
X-3387500Y-13800000D02*
X-4950000Y-13800000D01*
X-587500Y-16600000D02*
X-3387500Y-13800000D01*
X6440000Y-16600000D02*
X-587500Y-16600000D01*
X7620000Y-17780000D02*
X6440000Y-16600000D01*
%TO.N,/A9*%
X-2400000Y-12200000D02*
X-4950000Y-12200000D01*
X-600000Y-14000000D02*
X-2400000Y-12200000D01*
X6380000Y-14000000D02*
X-600000Y-14000000D01*
X7620000Y-15240000D02*
X6380000Y-14000000D01*
%TO.N,/A7*%
X-1960000Y-10160000D02*
X0Y-10160000D01*
X-2400000Y-10600000D02*
X-1960000Y-10160000D01*
X-4950000Y-10600000D02*
X-2400000Y-10600000D01*
%TO.N,/A8*%
X6320000Y-11400000D02*
X-4950000Y-11400000D01*
X7620000Y-12700000D02*
X6320000Y-11400000D01*
%TD*%
%TA.AperFunction,Conductor*%
%TO.N,GND*%
G36*
X7892712Y1680593D02*
G01*
X7904525Y1670504D01*
X8197493Y1377536D01*
X8225270Y1323019D01*
X8215699Y1262587D01*
X8172434Y1219322D01*
X8112002Y1209751D01*
X8085651Y1217807D01*
X8066496Y1226739D01*
X7846692Y1285635D01*
X7846691Y1285636D01*
X7846684Y1285637D01*
X7620003Y1305468D01*
X7619997Y1305468D01*
X7393315Y1285637D01*
X7173499Y1226738D01*
X6967276Y1130574D01*
X6967262Y1130566D01*
X6780869Y1000054D01*
X6780867Y1000053D01*
X6619947Y839133D01*
X6619946Y839131D01*
X6489434Y652738D01*
X6489426Y652724D01*
X6393262Y446501D01*
X6334363Y226685D01*
X6314532Y4D01*
X6314532Y-3D01*
X6334363Y-226684D01*
X6393262Y-446500D01*
X6489426Y-652723D01*
X6489434Y-652737D01*
X6619946Y-839130D01*
X6619947Y-839132D01*
X6619950Y-839135D01*
X6619953Y-839139D01*
X6780861Y-1000047D01*
X6780864Y-1000049D01*
X6780867Y-1000052D01*
X6780869Y-1000053D01*
X6841249Y-1042331D01*
X6967266Y-1130568D01*
X6967267Y-1130568D01*
X6967271Y-1130571D01*
X7073863Y-1180276D01*
X7118611Y-1222004D01*
X7130285Y-1282065D01*
X7104427Y-1337518D01*
X7073863Y-1359724D01*
X6967271Y-1409428D01*
X6967262Y-1409434D01*
X6780869Y-1539946D01*
X6780867Y-1539947D01*
X6619947Y-1700867D01*
X6619946Y-1700869D01*
X6489434Y-1887262D01*
X6489426Y-1887276D01*
X6393262Y-2093499D01*
X6334363Y-2313315D01*
X6314532Y-2539996D01*
X6314532Y-2540003D01*
X6334363Y-2766684D01*
X6393262Y-2986500D01*
X6489426Y-3192723D01*
X6489434Y-3192737D01*
X6619946Y-3379130D01*
X6619947Y-3379132D01*
X6619950Y-3379135D01*
X6619953Y-3379139D01*
X6780861Y-3540047D01*
X6780864Y-3540049D01*
X6780867Y-3540052D01*
X6780869Y-3540053D01*
X6890137Y-3616562D01*
X6967266Y-3670568D01*
X6967267Y-3670568D01*
X6967271Y-3670571D01*
X7073863Y-3720276D01*
X7118611Y-3762004D01*
X7130285Y-3822065D01*
X7104427Y-3877518D01*
X7073863Y-3899724D01*
X6967271Y-3949428D01*
X6967262Y-3949434D01*
X6780869Y-4079946D01*
X6780867Y-4079947D01*
X6619947Y-4240867D01*
X6619946Y-4240869D01*
X6489434Y-4427262D01*
X6489426Y-4427276D01*
X6393262Y-4633499D01*
X6334363Y-4853315D01*
X6314532Y-5079996D01*
X6314532Y-5080003D01*
X6334363Y-5306684D01*
X6393262Y-5526500D01*
X6489426Y-5732723D01*
X6489434Y-5732737D01*
X6619946Y-5919130D01*
X6619947Y-5919132D01*
X6619950Y-5919135D01*
X6619953Y-5919139D01*
X6780861Y-6080047D01*
X6780864Y-6080049D01*
X6780867Y-6080052D01*
X6780869Y-6080053D01*
X6877689Y-6147846D01*
X6967266Y-6210568D01*
X6967267Y-6210568D01*
X6967271Y-6210571D01*
X7073863Y-6260276D01*
X7118611Y-6302004D01*
X7130285Y-6362065D01*
X7104427Y-6417518D01*
X7073863Y-6439724D01*
X6967271Y-6489428D01*
X6967262Y-6489434D01*
X6780869Y-6619946D01*
X6780867Y-6619947D01*
X6619947Y-6780867D01*
X6619946Y-6780869D01*
X6489434Y-6967262D01*
X6489426Y-6967276D01*
X6393262Y-7173499D01*
X6334363Y-7393315D01*
X6314532Y-7619996D01*
X6314532Y-7620003D01*
X6334363Y-7846684D01*
X6334364Y-7846691D01*
X6334365Y-7846692D01*
X6348894Y-7900914D01*
X6393262Y-8066500D01*
X6489426Y-8272723D01*
X6489434Y-8272737D01*
X6619946Y-8459130D01*
X6619947Y-8459132D01*
X6619950Y-8459135D01*
X6619953Y-8459139D01*
X6780861Y-8620047D01*
X6780864Y-8620049D01*
X6780867Y-8620052D01*
X6780869Y-8620053D01*
X6804488Y-8636591D01*
X6967266Y-8750568D01*
X6967267Y-8750568D01*
X6967271Y-8750571D01*
X7073863Y-8800276D01*
X7118611Y-8842004D01*
X7130285Y-8902065D01*
X7104427Y-8957518D01*
X7073863Y-8979724D01*
X6967271Y-9029428D01*
X6967262Y-9029434D01*
X6780869Y-9159946D01*
X6780867Y-9159947D01*
X6619947Y-9320867D01*
X6619946Y-9320869D01*
X6489434Y-9507262D01*
X6489426Y-9507276D01*
X6393262Y-9713499D01*
X6334363Y-9933315D01*
X6314532Y-10159996D01*
X6314532Y-10160003D01*
X6334363Y-10386684D01*
X6393261Y-10606497D01*
X6404646Y-10630912D01*
X6412102Y-10691641D01*
X6382438Y-10745155D01*
X6326985Y-10771012D01*
X6324239Y-10771310D01*
X6292829Y-10774280D01*
X6288167Y-10774500D01*
X1303796Y-10774500D01*
X1245605Y-10755593D01*
X1209641Y-10706093D01*
X1209641Y-10644907D01*
X1214072Y-10633660D01*
X1226739Y-10606496D01*
X1285635Y-10386692D01*
X1290402Y-10332212D01*
X1305468Y-10160003D01*
X1305468Y-10159996D01*
X1285636Y-9933315D01*
X1285635Y-9933312D01*
X1285635Y-9933308D01*
X1226739Y-9713504D01*
X1220923Y-9701031D01*
X1130573Y-9507276D01*
X1130571Y-9507272D01*
X1130568Y-9507266D01*
X1000053Y-9320869D01*
X1000052Y-9320867D01*
X1000049Y-9320864D01*
X1000047Y-9320861D01*
X839139Y-9159953D01*
X839135Y-9159950D01*
X839132Y-9159947D01*
X839130Y-9159946D01*
X652737Y-9029434D01*
X652736Y-9029433D01*
X652734Y-9029432D01*
X652731Y-9029430D01*
X652723Y-9029426D01*
X546137Y-8979724D01*
X501389Y-8937996D01*
X489714Y-8877935D01*
X515572Y-8822482D01*
X546137Y-8800276D01*
X652723Y-8750573D01*
X652721Y-8750573D01*
X652734Y-8750568D01*
X839139Y-8620047D01*
X1000047Y-8459139D01*
X1130568Y-8272734D01*
X1226739Y-8066496D01*
X1285635Y-7846692D01*
X1291852Y-7775639D01*
X1305468Y-7620003D01*
X1305468Y-7619996D01*
X1285636Y-7393315D01*
X1285635Y-7393312D01*
X1285635Y-7393308D01*
X1226739Y-7173504D01*
X1192890Y-7100914D01*
X1130573Y-6967276D01*
X1130571Y-6967272D01*
X1130568Y-6967266D01*
X1060911Y-6867784D01*
X1000053Y-6780869D01*
X1000052Y-6780867D01*
X1000049Y-6780864D01*
X1000047Y-6780861D01*
X839139Y-6619953D01*
X839135Y-6619950D01*
X839132Y-6619947D01*
X839130Y-6619946D01*
X652737Y-6489434D01*
X652736Y-6489433D01*
X652734Y-6489432D01*
X652731Y-6489430D01*
X652723Y-6489426D01*
X546137Y-6439724D01*
X501389Y-6397996D01*
X489714Y-6337935D01*
X515572Y-6282482D01*
X546137Y-6260276D01*
X652723Y-6210573D01*
X652721Y-6210573D01*
X652734Y-6210568D01*
X839139Y-6080047D01*
X1000047Y-5919139D01*
X1130568Y-5732734D01*
X1226739Y-5526496D01*
X1285635Y-5306692D01*
X1286284Y-5299281D01*
X1305468Y-5080003D01*
X1305468Y-5079996D01*
X1285636Y-4853315D01*
X1285635Y-4853312D01*
X1285635Y-4853308D01*
X1226739Y-4633504D01*
X1225907Y-4631720D01*
X1130573Y-4427276D01*
X1130571Y-4427272D01*
X1130568Y-4427266D01*
X1034426Y-4289960D01*
X1000053Y-4240869D01*
X1000052Y-4240867D01*
X1000049Y-4240864D01*
X1000047Y-4240861D01*
X839139Y-4079953D01*
X839135Y-4079950D01*
X839132Y-4079947D01*
X839130Y-4079946D01*
X652737Y-3949434D01*
X652736Y-3949433D01*
X652734Y-3949432D01*
X652731Y-3949430D01*
X652723Y-3949426D01*
X546137Y-3899724D01*
X501389Y-3857996D01*
X489714Y-3797935D01*
X515572Y-3742482D01*
X546137Y-3720276D01*
X652723Y-3670573D01*
X652721Y-3670573D01*
X652734Y-3670568D01*
X839139Y-3540047D01*
X1000047Y-3379139D01*
X1130568Y-3192734D01*
X1226739Y-2986496D01*
X1285635Y-2766692D01*
X1288652Y-2732216D01*
X1305468Y-2540003D01*
X1305468Y-2539996D01*
X1285636Y-2313315D01*
X1285635Y-2313312D01*
X1285635Y-2313308D01*
X1226739Y-2093504D01*
X1217126Y-2072888D01*
X1130573Y-1887276D01*
X1130571Y-1887272D01*
X1130568Y-1887266D01*
X1000053Y-1700869D01*
X1000052Y-1700867D01*
X1000049Y-1700864D01*
X1000047Y-1700861D01*
X839139Y-1539953D01*
X839133Y-1539949D01*
X783389Y-1500917D01*
X754366Y-1480595D01*
X717544Y-1431731D01*
X716476Y-1370555D01*
X751570Y-1320435D01*
X809421Y-1300514D01*
X811150Y-1300499D01*
X847867Y-1300499D01*
X847872Y-1300499D01*
X907483Y-1294091D01*
X974907Y-1268943D01*
X1042329Y-1243797D01*
X1042329Y-1243796D01*
X1042331Y-1243796D01*
X1157546Y-1157546D01*
X1243796Y-1042331D01*
X1259867Y-999244D01*
X1294089Y-907488D01*
X1294090Y-907485D01*
X1294091Y-907483D01*
X1300500Y-847873D01*
X1300499Y847872D01*
X1294091Y907483D01*
X1277868Y950980D01*
X1243797Y1042330D01*
X1157549Y1157542D01*
X1157548Y1157543D01*
X1157546Y1157546D01*
X1137216Y1172765D01*
X1042329Y1243798D01*
X907488Y1294090D01*
X907483Y1294091D01*
X907481Y1294092D01*
X907477Y1294092D01*
X876249Y1297450D01*
X847873Y1300500D01*
X847870Y1300500D01*
X-847867Y1300500D01*
X-847871Y1300500D01*
X-847872Y1300499D01*
X-855051Y1299728D01*
X-907481Y1294092D01*
X-907486Y1294091D01*
X-1042330Y1243798D01*
X-1157542Y1157550D01*
X-1157550Y1157542D01*
X-1243798Y1042330D01*
X-1294090Y907489D01*
X-1294092Y907478D01*
X-1300500Y847871D01*
X-1300500Y-847866D01*
X-1300499Y-847870D01*
X-1294092Y-907480D01*
X-1294091Y-907485D01*
X-1243798Y-1042329D01*
X-1168174Y-1143349D01*
X-1157546Y-1157546D01*
X-1157543Y-1157548D01*
X-1157542Y-1157549D01*
X-1042330Y-1243797D01*
X-907489Y-1294089D01*
X-907488Y-1294089D01*
X-907483Y-1294091D01*
X-847873Y-1300500D01*
X-811153Y-1300499D01*
X-752963Y-1319405D01*
X-716998Y-1368904D01*
X-716997Y-1430089D01*
X-752959Y-1479590D01*
X-754368Y-1480595D01*
X-839135Y-1539949D01*
X-1000053Y-1700867D01*
X-1000054Y-1700869D01*
X-1130566Y-1887262D01*
X-1130574Y-1887276D01*
X-1226738Y-2093499D01*
X-1285637Y-2313315D01*
X-1305468Y-2539996D01*
X-1305468Y-2540003D01*
X-1285637Y-2766684D01*
X-1226738Y-2986500D01*
X-1130574Y-3192723D01*
X-1130566Y-3192737D01*
X-1000054Y-3379130D01*
X-1000053Y-3379132D01*
X-1000050Y-3379135D01*
X-1000047Y-3379139D01*
X-839139Y-3540047D01*
X-839136Y-3540049D01*
X-839133Y-3540052D01*
X-839131Y-3540053D01*
X-729863Y-3616562D01*
X-652734Y-3670568D01*
X-652733Y-3670568D01*
X-652729Y-3670571D01*
X-546137Y-3720276D01*
X-501389Y-3762004D01*
X-489715Y-3822065D01*
X-515573Y-3877518D01*
X-546137Y-3899724D01*
X-652729Y-3949428D01*
X-652738Y-3949434D01*
X-839131Y-4079946D01*
X-839133Y-4079947D01*
X-1000053Y-4240867D01*
X-1000054Y-4240869D01*
X-1130566Y-4427262D01*
X-1130574Y-4427276D01*
X-1226738Y-4633499D01*
X-1285637Y-4853315D01*
X-1305468Y-5079996D01*
X-1305468Y-5080003D01*
X-1285637Y-5306684D01*
X-1226738Y-5526500D01*
X-1130574Y-5732723D01*
X-1130566Y-5732737D01*
X-1000054Y-5919130D01*
X-1000053Y-5919132D01*
X-1000050Y-5919135D01*
X-1000047Y-5919139D01*
X-839139Y-6080047D01*
X-839136Y-6080049D01*
X-839133Y-6080052D01*
X-839131Y-6080053D01*
X-742311Y-6147846D01*
X-652734Y-6210568D01*
X-652733Y-6210568D01*
X-652729Y-6210571D01*
X-546137Y-6260276D01*
X-501389Y-6302004D01*
X-489715Y-6362065D01*
X-515573Y-6417518D01*
X-546137Y-6439724D01*
X-652729Y-6489428D01*
X-652738Y-6489434D01*
X-839131Y-6619946D01*
X-839133Y-6619947D01*
X-1000053Y-6780867D01*
X-1000054Y-6780869D01*
X-1130566Y-6967262D01*
X-1130574Y-6967276D01*
X-1226738Y-7173499D01*
X-1285637Y-7393315D01*
X-1305468Y-7619996D01*
X-1305468Y-7620003D01*
X-1285637Y-7846684D01*
X-1285636Y-7846691D01*
X-1285635Y-7846692D01*
X-1271106Y-7900914D01*
X-1226738Y-8066500D01*
X-1130574Y-8272723D01*
X-1130566Y-8272737D01*
X-1000054Y-8459130D01*
X-1000053Y-8459132D01*
X-1000050Y-8459135D01*
X-1000047Y-8459139D01*
X-839139Y-8620047D01*
X-839136Y-8620049D01*
X-839133Y-8620052D01*
X-839131Y-8620053D01*
X-815512Y-8636591D01*
X-652734Y-8750568D01*
X-652733Y-8750568D01*
X-652729Y-8750571D01*
X-546137Y-8800276D01*
X-501389Y-8842004D01*
X-489715Y-8902065D01*
X-515573Y-8957518D01*
X-546137Y-8979724D01*
X-652729Y-9029428D01*
X-652738Y-9029434D01*
X-839131Y-9159946D01*
X-839133Y-9159947D01*
X-1000050Y-9320864D01*
X-1038403Y-9375639D01*
X-1120078Y-9492284D01*
X-1168941Y-9529106D01*
X-1201173Y-9534500D01*
X-1880017Y-9534500D01*
X-1894471Y-9532904D01*
X-1894471Y-9532913D01*
X-1900669Y-9532326D01*
X-1945033Y-9533721D01*
X-1969068Y-9534476D01*
X-1970587Y-9534500D01*
X-1999354Y-9534500D01*
X-2006821Y-9535442D01*
X-2011466Y-9535808D01*
X-2058629Y-9537291D01*
X-2079756Y-9543429D01*
X-2094966Y-9546578D01*
X-2116789Y-9549334D01*
X-2160660Y-9566703D01*
X-2165071Y-9568213D01*
X-2210390Y-9581381D01*
X-2229327Y-9592580D01*
X-2243267Y-9599409D01*
X-2263732Y-9607513D01*
X-2301915Y-9635252D01*
X-2305812Y-9637812D01*
X-2346420Y-9661828D01*
X-2347197Y-9662605D01*
X-2347848Y-9662936D01*
X-2351338Y-9665644D01*
X-2351856Y-9664977D01*
X-2401719Y-9690372D01*
X-2462149Y-9680789D01*
X-2505405Y-9637516D01*
X-2514027Y-9613156D01*
X-2514325Y-9611755D01*
X-2514326Y-9611744D01*
X-2523524Y-9583437D01*
X-2548273Y-9507266D01*
X-2572821Y-9431716D01*
X-2572824Y-9431711D01*
X-2572826Y-9431706D01*
X-2621449Y-9347490D01*
X-2667467Y-9267784D01*
X-2721751Y-9207495D01*
X-2794125Y-9127116D01*
X-2794130Y-9127111D01*
X-2947269Y-9015850D01*
X-2947268Y-9015850D01*
X-2947270Y-9015849D01*
X-2947275Y-9015847D01*
X-2947278Y-9015845D01*
X-3120195Y-8938857D01*
X-3120197Y-8938856D01*
X-3120200Y-8938855D01*
X-3120201Y-8938855D01*
X-3155420Y-8931369D01*
X-3305354Y-8899500D01*
X-3494646Y-8899500D01*
X-3597744Y-8921414D01*
X-3658595Y-8915018D01*
X-3704064Y-8874076D01*
X-3715823Y-8841768D01*
X-3726134Y-8783292D01*
X-3740248Y-8750571D01*
X-3789415Y-8636590D01*
X-3795100Y-8575671D01*
X-3784246Y-8547880D01*
X-3756190Y-8499284D01*
X-3756191Y-8499284D01*
X-3756188Y-8499281D01*
X-3705870Y-8331210D01*
X-3697305Y-8184149D01*
X-3695669Y-8156068D01*
X-3695669Y-8156065D01*
X-3726134Y-7983292D01*
X-3748166Y-7932216D01*
X-3789415Y-7836590D01*
X-3795100Y-7775671D01*
X-3784246Y-7747880D01*
X-3756190Y-7699284D01*
X-3756191Y-7699284D01*
X-3756188Y-7699281D01*
X-3705870Y-7531210D01*
X-3698228Y-7400000D01*
X-3695669Y-7356068D01*
X-3695669Y-7356065D01*
X-3726134Y-7183292D01*
X-3761668Y-7100914D01*
X-3789415Y-7036590D01*
X-3795100Y-6975671D01*
X-3784246Y-6947880D01*
X-3756190Y-6899284D01*
X-3756191Y-6899284D01*
X-3756188Y-6899281D01*
X-3705870Y-6731210D01*
X-3696446Y-6569407D01*
X-3695669Y-6556068D01*
X-3695669Y-6556065D01*
X-3726134Y-6383292D01*
X-3735290Y-6362065D01*
X-3789415Y-6236590D01*
X-3795100Y-6175671D01*
X-3784246Y-6147880D01*
X-3756190Y-6099284D01*
X-3756191Y-6099284D01*
X-3756188Y-6099281D01*
X-3705870Y-5931210D01*
X-3698228Y-5800000D01*
X-3695669Y-5756068D01*
X-3695669Y-5756065D01*
X-3726134Y-5583292D01*
X-3761668Y-5500914D01*
X-3789415Y-5436590D01*
X-3795100Y-5375671D01*
X-3784246Y-5347880D01*
X-3756190Y-5299284D01*
X-3756191Y-5299284D01*
X-3756188Y-5299281D01*
X-3705870Y-5131210D01*
X-3699151Y-5015845D01*
X-3695669Y-4956068D01*
X-3695669Y-4956065D01*
X-3726134Y-4783294D01*
X-3726135Y-4783293D01*
X-3726135Y-4783289D01*
X-3789662Y-4636016D01*
X-3795347Y-4575099D01*
X-3784493Y-4547307D01*
X-3756651Y-4499083D01*
X-3706367Y-4331126D01*
X-3696173Y-4156093D01*
X-3726615Y-3983437D01*
X-3726617Y-3983431D01*
X-3789972Y-3836559D01*
X-3795660Y-3775639D01*
X-3784805Y-3747846D01*
X-3756651Y-3699081D01*
X-3706367Y-3531126D01*
X-3696173Y-3356093D01*
X-3726615Y-3183437D01*
X-3726617Y-3183431D01*
X-3789972Y-3036559D01*
X-3795660Y-2975639D01*
X-3784805Y-2947846D01*
X-3756651Y-2899081D01*
X-3706367Y-2731126D01*
X-3696173Y-2556093D01*
X-3726615Y-2383437D01*
X-3726617Y-2383431D01*
X-3789972Y-2236559D01*
X-3795660Y-2175639D01*
X-3784805Y-2147846D01*
X-3756651Y-2099081D01*
X-3706367Y-1931126D01*
X-3696173Y-1756093D01*
X-3726615Y-1583437D01*
X-3726617Y-1583431D01*
X-3796057Y-1422452D01*
X-3796062Y-1422443D01*
X-3900756Y-1281815D01*
X-3900758Y-1281813D01*
X-4035062Y-1169117D01*
X-4106476Y-1133252D01*
X-4879997Y-1906773D01*
X-4934514Y-1934550D01*
X-4994946Y-1924979D01*
X-5020005Y-1906773D01*
X-5796537Y-1130241D01*
X-5935374Y-1221555D01*
X-6055687Y-1349080D01*
X-6055688Y-1349080D01*
X-6143350Y-1500917D01*
X-6193634Y-1668873D01*
X-6203828Y-1843906D01*
X-6173386Y-2016562D01*
X-6173384Y-2016568D01*
X-6110029Y-2163439D01*
X-6104341Y-2224359D01*
X-6115195Y-2252150D01*
X-6143349Y-2300914D01*
X-6193634Y-2468873D01*
X-6203828Y-2643906D01*
X-6173386Y-2816562D01*
X-6173384Y-2816568D01*
X-6110029Y-2963439D01*
X-6104341Y-3024359D01*
X-6115195Y-3052150D01*
X-6143349Y-3100914D01*
X-6193634Y-3268873D01*
X-6203828Y-3443906D01*
X-6173386Y-3616562D01*
X-6173384Y-3616568D01*
X-6110029Y-3763439D01*
X-6104341Y-3824359D01*
X-6115195Y-3852150D01*
X-6143349Y-3900914D01*
X-6182768Y-4032580D01*
X-6217571Y-4082904D01*
X-6275306Y-4103159D01*
X-6298187Y-4101023D01*
X-6305354Y-4099500D01*
X-6494646Y-4099500D01*
X-6612711Y-4124595D01*
X-6679800Y-4138855D01*
X-6679806Y-4138857D01*
X-6852723Y-4215845D01*
X-6852732Y-4215850D01*
X-7005871Y-4327111D01*
X-7005876Y-4327116D01*
X-7132531Y-4467781D01*
X-7132535Y-4467787D01*
X-7227175Y-4631706D01*
X-7227181Y-4631720D01*
X-7285674Y-4811740D01*
X-7287386Y-4828024D01*
X-7312275Y-4883918D01*
X-7365259Y-4914507D01*
X-7479793Y-4938852D01*
X-7479804Y-4938856D01*
X-7652723Y-5015845D01*
X-7652732Y-5015850D01*
X-7805871Y-5127111D01*
X-7805876Y-5127116D01*
X-7932531Y-5267781D01*
X-7932535Y-5267787D01*
X-8027175Y-5431706D01*
X-8027181Y-5431720D01*
X-8085673Y-5611738D01*
X-8085674Y-5611742D01*
X-8085674Y-5611744D01*
X-8105460Y-5800000D01*
X-8086446Y-5980912D01*
X-8085673Y-5988261D01*
X-8027181Y-6168279D01*
X-8027175Y-6168293D01*
X-7961247Y-6282482D01*
X-7932533Y-6332216D01*
X-7916520Y-6350000D01*
X-7805876Y-6472883D01*
X-7805876Y-6472884D01*
X-7805872Y-6472886D01*
X-7805871Y-6472888D01*
X-7741154Y-6519907D01*
X-7705190Y-6569407D01*
X-7705190Y-6630593D01*
X-7741154Y-6680092D01*
X-7756595Y-6691311D01*
X-7805876Y-6727115D01*
X-7805876Y-6727116D01*
X-7932531Y-6867781D01*
X-7932535Y-6867787D01*
X-8027175Y-7031706D01*
X-8027181Y-7031720D01*
X-8085673Y-7211738D01*
X-8085674Y-7211742D01*
X-8085674Y-7211744D01*
X-8105460Y-7400000D01*
X-8091670Y-7531210D01*
X-8085673Y-7588261D01*
X-8027181Y-7768279D01*
X-8027175Y-7768293D01*
X-7978759Y-7852150D01*
X-7932533Y-7932216D01*
X-7932531Y-7932218D01*
X-7809487Y-8068873D01*
X-7805871Y-8072888D01*
X-7652730Y-8184151D01*
X-7479803Y-8261144D01*
X-7365259Y-8285490D01*
X-7312272Y-8316083D01*
X-7287386Y-8371975D01*
X-7285674Y-8388258D01*
X-7227181Y-8568279D01*
X-7227175Y-8568293D01*
X-7178759Y-8652150D01*
X-7132533Y-8732216D01*
X-7033892Y-8841768D01*
X-7018571Y-8858783D01*
X-6993684Y-8914678D01*
X-7006405Y-8974527D01*
X-7048640Y-9012559D01*
X-7048237Y-9013256D01*
X-7051512Y-9015146D01*
X-7051862Y-9015462D01*
X-7052720Y-9015843D01*
X-7052735Y-9015852D01*
X-7205871Y-9127111D01*
X-7205876Y-9127116D01*
X-7332531Y-9267781D01*
X-7332535Y-9267787D01*
X-7427175Y-9431706D01*
X-7427181Y-9431720D01*
X-7485673Y-9611738D01*
X-7485674Y-9611742D01*
X-7485674Y-9611744D01*
X-7499034Y-9738856D01*
X-7505460Y-9800000D01*
X-7485673Y-9988261D01*
X-7427181Y-10168279D01*
X-7427175Y-10168293D01*
X-7351985Y-10298525D01*
X-7332533Y-10332216D01*
X-7332531Y-10332218D01*
X-7209559Y-10468793D01*
X-7205871Y-10472888D01*
X-7052730Y-10584151D01*
X-6879803Y-10661144D01*
X-6694646Y-10700500D01*
X-6694643Y-10700500D01*
X-6505357Y-10700500D01*
X-6505354Y-10700500D01*
X-6320197Y-10661144D01*
X-6320187Y-10661139D01*
X-6316063Y-10659800D01*
X-6254877Y-10659793D01*
X-6205373Y-10695752D01*
X-6187964Y-10736759D01*
X-6173866Y-10816707D01*
X-6173865Y-10816711D01*
X-6126202Y-10927208D01*
X-6110587Y-10963408D01*
X-6104901Y-11024328D01*
X-6115753Y-11052116D01*
X-6143811Y-11100717D01*
X-6194130Y-11268786D01*
X-6194131Y-11268793D01*
X-6204332Y-11443931D01*
X-6173867Y-11616707D01*
X-6110587Y-11763408D01*
X-6104901Y-11824328D01*
X-6115753Y-11852116D01*
X-6143811Y-11900717D01*
X-6143812Y-11900719D01*
X-6153242Y-11932216D01*
X-6194130Y-12068786D01*
X-6194131Y-12068793D01*
X-6204332Y-12243931D01*
X-6173867Y-12416707D01*
X-6110587Y-12563408D01*
X-6104901Y-12624328D01*
X-6115753Y-12652116D01*
X-6143811Y-12700717D01*
X-6194130Y-12868786D01*
X-6194131Y-12868793D01*
X-6204332Y-13043931D01*
X-6173867Y-13216707D01*
X-6110587Y-13363408D01*
X-6104901Y-13424328D01*
X-6115753Y-13452116D01*
X-6143811Y-13500717D01*
X-6194130Y-13668786D01*
X-6194131Y-13668793D01*
X-6204332Y-13843929D01*
X-6204331Y-13843934D01*
X-6204331Y-13843935D01*
X-6201797Y-13858309D01*
X-6210311Y-13918897D01*
X-6252813Y-13962911D01*
X-6299292Y-13974500D01*
X-6507383Y-13974500D01*
X-6565574Y-13955593D01*
X-6580954Y-13941744D01*
X-6594129Y-13927112D01*
X-6594130Y-13927111D01*
X-6688831Y-13858307D01*
X-6747270Y-13815849D01*
X-6747275Y-13815847D01*
X-6747278Y-13815845D01*
X-6920195Y-13738857D01*
X-6920197Y-13738856D01*
X-6920200Y-13738855D01*
X-6920201Y-13738855D01*
X-6955420Y-13731369D01*
X-7105354Y-13699500D01*
X-7294646Y-13699500D01*
X-7412712Y-13724595D01*
X-7479800Y-13738855D01*
X-7479806Y-13738857D01*
X-7652723Y-13815845D01*
X-7652732Y-13815850D01*
X-7805871Y-13927111D01*
X-7805877Y-13927116D01*
X-7917257Y-14050817D01*
X-7970245Y-14081410D01*
X-8031095Y-14075014D01*
X-8060832Y-14054577D01*
X-8701153Y-13414256D01*
X-8710236Y-13402917D01*
X-8710243Y-13402924D01*
X-8714211Y-13398129D01*
X-8714214Y-13398123D01*
X-8764070Y-13351305D01*
X-8765170Y-13350238D01*
X-8785528Y-13329881D01*
X-8791476Y-13325266D01*
X-8795022Y-13322238D01*
X-8829417Y-13289938D01*
X-8848698Y-13279339D01*
X-8861682Y-13270810D01*
X-8870138Y-13264251D01*
X-8879066Y-13257325D01*
X-8922369Y-13238586D01*
X-8926558Y-13236534D01*
X-8951954Y-13222574D01*
X-8967908Y-13213803D01*
X-8967910Y-13213802D01*
X-8967914Y-13213800D01*
X-8989220Y-13208330D01*
X-9003917Y-13203298D01*
X-9024104Y-13194562D01*
X-9024110Y-13194560D01*
X-9070714Y-13187179D01*
X-9075282Y-13186233D01*
X-9120979Y-13174500D01*
X-9120981Y-13174500D01*
X-9142982Y-13174500D01*
X-9158470Y-13173281D01*
X-9180196Y-13169839D01*
X-9227172Y-13174280D01*
X-9231833Y-13174500D01*
X-10851930Y-13174500D01*
X-10910121Y-13155593D01*
X-10946085Y-13106093D01*
X-10950388Y-13065154D01*
X-10943540Y-13000000D01*
X-10963326Y-12811744D01*
X-11021821Y-12631716D01*
X-11021824Y-12631711D01*
X-11021826Y-12631706D01*
X-11113274Y-12473315D01*
X-11116467Y-12467784D01*
X-11170751Y-12407495D01*
X-11243125Y-12327116D01*
X-11243130Y-12327111D01*
X-11396269Y-12215850D01*
X-11396268Y-12215850D01*
X-11396270Y-12215849D01*
X-11396275Y-12215847D01*
X-11396278Y-12215845D01*
X-11569195Y-12138857D01*
X-11569197Y-12138856D01*
X-11569200Y-12138855D01*
X-11569201Y-12138855D01*
X-11604420Y-12131369D01*
X-11754354Y-12099500D01*
X-11943646Y-12099500D01*
X-12061712Y-12124595D01*
X-12128800Y-12138855D01*
X-12128806Y-12138857D01*
X-12301723Y-12215845D01*
X-12301732Y-12215850D01*
X-12454871Y-12327111D01*
X-12454872Y-12327112D01*
X-12468046Y-12341744D01*
X-12521034Y-12372337D01*
X-12541617Y-12374500D01*
X-18309042Y-12374500D01*
X-18367233Y-12355593D01*
X-18403197Y-12306093D01*
X-18403197Y-12244907D01*
X-18367233Y-12195407D01*
X-18349307Y-12185058D01*
X-18349146Y-12184985D01*
X-18347270Y-12184151D01*
X-18194129Y-12072888D01*
X-18067467Y-11932216D01*
X-17978317Y-11777804D01*
X-17972826Y-11768293D01*
X-17972826Y-11768291D01*
X-17972821Y-11768284D01*
X-17914326Y-11588256D01*
X-17894540Y-11400000D01*
X-17914326Y-11211744D01*
X-17972821Y-11031716D01*
X-17972824Y-11031711D01*
X-17972826Y-11031706D01*
X-18021449Y-10947490D01*
X-18067467Y-10867784D01*
X-18140373Y-10786814D01*
X-18194125Y-10727116D01*
X-18194130Y-10727111D01*
X-18322755Y-10633660D01*
X-18347270Y-10615849D01*
X-18347275Y-10615847D01*
X-18347278Y-10615845D01*
X-18520195Y-10538857D01*
X-18520197Y-10538856D01*
X-18520202Y-10538855D01*
X-18520208Y-10538853D01*
X-18634742Y-10514507D01*
X-18687730Y-10483914D01*
X-18712616Y-10428021D01*
X-18714326Y-10411744D01*
X-18772821Y-10231716D01*
X-18772824Y-10231711D01*
X-18772826Y-10231706D01*
X-18821449Y-10147490D01*
X-18867467Y-10067784D01*
X-18939070Y-9988261D01*
X-18994125Y-9927116D01*
X-18994130Y-9927111D01*
X-19147269Y-9815850D01*
X-19147268Y-9815850D01*
X-19147270Y-9815849D01*
X-19147275Y-9815847D01*
X-19147278Y-9815845D01*
X-19320195Y-9738857D01*
X-19320197Y-9738856D01*
X-19320200Y-9738855D01*
X-19320201Y-9738855D01*
X-19355420Y-9731369D01*
X-19505354Y-9699500D01*
X-19694646Y-9699500D01*
X-19694648Y-9699500D01*
X-19701854Y-9701031D01*
X-19762704Y-9694630D01*
X-19808170Y-9653685D01*
X-19819925Y-9621382D01*
X-19826615Y-9583437D01*
X-19826617Y-9583431D01*
X-19889972Y-9436559D01*
X-19895660Y-9375639D01*
X-19884805Y-9347846D01*
X-19856651Y-9299081D01*
X-19806367Y-9131126D01*
X-19796173Y-8956093D01*
X-19826615Y-8783437D01*
X-19826617Y-8783431D01*
X-19889972Y-8636559D01*
X-19895660Y-8575639D01*
X-19884805Y-8547846D01*
X-19856651Y-8499081D01*
X-19806367Y-8331126D01*
X-19796173Y-8156093D01*
X-19826615Y-7983437D01*
X-19826617Y-7983431D01*
X-19889972Y-7836559D01*
X-19895660Y-7775639D01*
X-19884805Y-7747846D01*
X-19856651Y-7699081D01*
X-19806367Y-7531126D01*
X-19796173Y-7356093D01*
X-19826615Y-7183437D01*
X-19826617Y-7183431D01*
X-19889972Y-7036559D01*
X-19895660Y-6975639D01*
X-19884805Y-6947846D01*
X-19856651Y-6899081D01*
X-19806367Y-6731126D01*
X-19796173Y-6556093D01*
X-19826615Y-6383437D01*
X-19826617Y-6383431D01*
X-19889972Y-6236559D01*
X-19895660Y-6175639D01*
X-19884805Y-6147846D01*
X-19856651Y-6099081D01*
X-19806367Y-5931126D01*
X-19796173Y-5756093D01*
X-19826615Y-5583437D01*
X-19826617Y-5583431D01*
X-19889972Y-5436559D01*
X-19895660Y-5375639D01*
X-19884805Y-5347846D01*
X-19856651Y-5299081D01*
X-19806367Y-5131126D01*
X-19796173Y-4956093D01*
X-19826615Y-4783437D01*
X-19826617Y-4783431D01*
X-19889972Y-4636559D01*
X-19895660Y-4575639D01*
X-19884805Y-4547846D01*
X-19856651Y-4499081D01*
X-19806367Y-4331126D01*
X-19796173Y-4156093D01*
X-19826615Y-3983437D01*
X-19826617Y-3983431D01*
X-19889972Y-3836559D01*
X-19895660Y-3775639D01*
X-19884805Y-3747846D01*
X-19856651Y-3699081D01*
X-19806367Y-3531126D01*
X-19796173Y-3356093D01*
X-19826615Y-3183437D01*
X-19826617Y-3183431D01*
X-19889972Y-3036559D01*
X-19895660Y-2975639D01*
X-19884805Y-2947846D01*
X-19856651Y-2899081D01*
X-19806367Y-2731126D01*
X-19796173Y-2556093D01*
X-19826615Y-2383437D01*
X-19826617Y-2383431D01*
X-19889972Y-2236559D01*
X-19895660Y-2175639D01*
X-19884805Y-2147846D01*
X-19856651Y-2099081D01*
X-19806367Y-1931126D01*
X-19796173Y-1756093D01*
X-19826615Y-1583437D01*
X-19826617Y-1583431D01*
X-19896057Y-1422452D01*
X-19896062Y-1422443D01*
X-20000756Y-1281815D01*
X-20000758Y-1281813D01*
X-20135062Y-1169117D01*
X-20206476Y-1133252D01*
X-20979997Y-1906773D01*
X-21034514Y-1934550D01*
X-21094946Y-1924979D01*
X-21120005Y-1906773D01*
X-21896537Y-1130241D01*
X-22035374Y-1221555D01*
X-22155687Y-1349080D01*
X-22155688Y-1349080D01*
X-22243350Y-1500917D01*
X-22293634Y-1668873D01*
X-22303828Y-1843906D01*
X-22273386Y-2016562D01*
X-22273384Y-2016568D01*
X-22210029Y-2163439D01*
X-22204341Y-2224359D01*
X-22215195Y-2252150D01*
X-22243349Y-2300914D01*
X-22293634Y-2468873D01*
X-22303828Y-2643906D01*
X-22273386Y-2816562D01*
X-22273384Y-2816568D01*
X-22210029Y-2963439D01*
X-22204341Y-3024359D01*
X-22215195Y-3052150D01*
X-22243349Y-3100914D01*
X-22293634Y-3268873D01*
X-22303828Y-3443906D01*
X-22273386Y-3616562D01*
X-22273384Y-3616568D01*
X-22210029Y-3763439D01*
X-22204341Y-3824359D01*
X-22215195Y-3852150D01*
X-22243349Y-3900914D01*
X-22293634Y-4068873D01*
X-22303828Y-4243906D01*
X-22273386Y-4416562D01*
X-22273384Y-4416568D01*
X-22210029Y-4563439D01*
X-22204341Y-4624359D01*
X-22215195Y-4652150D01*
X-22243349Y-4700914D01*
X-22293634Y-4868873D01*
X-22303828Y-5043906D01*
X-22273386Y-5216562D01*
X-22273384Y-5216568D01*
X-22210029Y-5363439D01*
X-22204341Y-5424359D01*
X-22215195Y-5452150D01*
X-22243349Y-5500914D01*
X-22293634Y-5668873D01*
X-22303828Y-5843906D01*
X-22273386Y-6016562D01*
X-22273384Y-6016568D01*
X-22210029Y-6163439D01*
X-22204341Y-6224359D01*
X-22215195Y-6252150D01*
X-22243349Y-6300914D01*
X-22293634Y-6468873D01*
X-22303828Y-6643906D01*
X-22273386Y-6816562D01*
X-22273384Y-6816568D01*
X-22210029Y-6963439D01*
X-22204341Y-7024359D01*
X-22215195Y-7052150D01*
X-22243349Y-7100914D01*
X-22293634Y-7268873D01*
X-22303828Y-7443906D01*
X-22273386Y-7616562D01*
X-22273384Y-7616568D01*
X-22210029Y-7763439D01*
X-22204341Y-7824359D01*
X-22215195Y-7852150D01*
X-22243349Y-7900914D01*
X-22293634Y-8068873D01*
X-22303828Y-8243906D01*
X-22273386Y-8416562D01*
X-22273384Y-8416568D01*
X-22210029Y-8563439D01*
X-22204341Y-8624359D01*
X-22215195Y-8652150D01*
X-22243349Y-8700914D01*
X-22293634Y-8868873D01*
X-22303828Y-9043906D01*
X-22273386Y-9216562D01*
X-22273384Y-9216568D01*
X-22210029Y-9363439D01*
X-22204341Y-9424359D01*
X-22215195Y-9452150D01*
X-22243349Y-9500914D01*
X-22293634Y-9668873D01*
X-22303828Y-9843906D01*
X-22273386Y-10016561D01*
X-22210276Y-10162867D01*
X-22204590Y-10223788D01*
X-22215442Y-10251576D01*
X-22243811Y-10300714D01*
X-22294130Y-10468786D01*
X-22294131Y-10468793D01*
X-22304332Y-10643931D01*
X-22273867Y-10816707D01*
X-22210587Y-10963408D01*
X-22204901Y-11024328D01*
X-22215753Y-11052116D01*
X-22243811Y-11100717D01*
X-22294130Y-11268786D01*
X-22294131Y-11268793D01*
X-22304332Y-11443931D01*
X-22273867Y-11616707D01*
X-22210587Y-11763408D01*
X-22204901Y-11824328D01*
X-22215753Y-11852116D01*
X-22243811Y-11900717D01*
X-22243812Y-11900719D01*
X-22253242Y-11932216D01*
X-22294130Y-12068786D01*
X-22294131Y-12068793D01*
X-22304332Y-12243931D01*
X-22273867Y-12416707D01*
X-22210587Y-12563408D01*
X-22204901Y-12624328D01*
X-22215753Y-12652116D01*
X-22243811Y-12700717D01*
X-22294130Y-12868786D01*
X-22294131Y-12868793D01*
X-22304332Y-13043931D01*
X-22273867Y-13216707D01*
X-22210587Y-13363408D01*
X-22204901Y-13424328D01*
X-22215753Y-13452116D01*
X-22243811Y-13500717D01*
X-22294130Y-13668786D01*
X-22294131Y-13668793D01*
X-22304332Y-13843931D01*
X-22273867Y-14016707D01*
X-22210587Y-14163408D01*
X-22204901Y-14224328D01*
X-22215753Y-14252116D01*
X-22243107Y-14299498D01*
X-22243812Y-14300719D01*
X-22256440Y-14342895D01*
X-22294130Y-14468786D01*
X-22294131Y-14468793D01*
X-22304332Y-14643931D01*
X-22273867Y-14816707D01*
X-22210340Y-14963980D01*
X-22204654Y-15024900D01*
X-22215507Y-15052690D01*
X-22243349Y-15100914D01*
X-22293634Y-15268873D01*
X-22303828Y-15443906D01*
X-22273386Y-15616562D01*
X-22273384Y-15616568D01*
X-22210029Y-15763439D01*
X-22204341Y-15824359D01*
X-22215195Y-15852150D01*
X-22243349Y-15900914D01*
X-22293634Y-16068873D01*
X-22303828Y-16243906D01*
X-22273386Y-16416562D01*
X-22273384Y-16416568D01*
X-22210029Y-16563439D01*
X-22204341Y-16624359D01*
X-22215195Y-16652150D01*
X-22243349Y-16700914D01*
X-22293634Y-16868873D01*
X-22303828Y-17043906D01*
X-22273386Y-17216562D01*
X-22273384Y-17216568D01*
X-22210029Y-17363439D01*
X-22204341Y-17424359D01*
X-22215195Y-17452150D01*
X-22243349Y-17500914D01*
X-22293634Y-17668873D01*
X-22303828Y-17843906D01*
X-22273386Y-18016562D01*
X-22273384Y-18016568D01*
X-22210029Y-18163439D01*
X-22204341Y-18224359D01*
X-22215195Y-18252150D01*
X-22243349Y-18300914D01*
X-22293634Y-18468873D01*
X-22303828Y-18643906D01*
X-22273386Y-18816562D01*
X-22273384Y-18816568D01*
X-22210029Y-18963439D01*
X-22204341Y-19024359D01*
X-22215195Y-19052150D01*
X-22243349Y-19100914D01*
X-22293634Y-19268873D01*
X-22303828Y-19443906D01*
X-22273386Y-19616562D01*
X-22273384Y-19616568D01*
X-22210029Y-19763439D01*
X-22204341Y-19824359D01*
X-22215195Y-19852150D01*
X-22243349Y-19900914D01*
X-22293634Y-20068873D01*
X-22303828Y-20243906D01*
X-22273386Y-20416562D01*
X-22273384Y-20416568D01*
X-22203944Y-20577547D01*
X-22203939Y-20577556D01*
X-22099245Y-20718184D01*
X-22099243Y-20718186D01*
X-21964941Y-20830880D01*
X-21893526Y-20866746D01*
X-21120005Y-20093226D01*
X-21065488Y-20065449D01*
X-21005056Y-20075020D01*
X-20979997Y-20093226D01*
X-20203466Y-20869757D01*
X-20064626Y-20778443D01*
X-19944314Y-20650919D01*
X-19944313Y-20650919D01*
X-19856651Y-20499082D01*
X-19806367Y-20331126D01*
X-19796173Y-20156093D01*
X-19826615Y-19983437D01*
X-19826617Y-19983431D01*
X-19889972Y-19836559D01*
X-19895660Y-19775639D01*
X-19884805Y-19747846D01*
X-19856651Y-19699081D01*
X-19806367Y-19531126D01*
X-19796173Y-19356093D01*
X-19826615Y-19183437D01*
X-19826617Y-19183431D01*
X-19889972Y-19036559D01*
X-19895660Y-18975639D01*
X-19884805Y-18947846D01*
X-19856651Y-18899081D01*
X-19806367Y-18731126D01*
X-19796173Y-18556093D01*
X-19826615Y-18383437D01*
X-19826617Y-18383431D01*
X-19889972Y-18236559D01*
X-19895660Y-18175639D01*
X-19884805Y-18147846D01*
X-19856651Y-18099081D01*
X-19806367Y-17931126D01*
X-19796173Y-17756093D01*
X-19826615Y-17583437D01*
X-19826617Y-17583431D01*
X-19889972Y-17436559D01*
X-19895660Y-17375639D01*
X-19884805Y-17347846D01*
X-19856651Y-17299081D01*
X-19806367Y-17131126D01*
X-19796173Y-16956093D01*
X-19826615Y-16783437D01*
X-19826617Y-16783431D01*
X-19889972Y-16636559D01*
X-19895660Y-16575639D01*
X-19884805Y-16547846D01*
X-19856651Y-16499081D01*
X-19806367Y-16331126D01*
X-19796173Y-16156093D01*
X-19826615Y-15983437D01*
X-19826617Y-15983431D01*
X-19889972Y-15836559D01*
X-19895660Y-15775639D01*
X-19884805Y-15747846D01*
X-19856651Y-15699081D01*
X-19806367Y-15531126D01*
X-19796173Y-15356094D01*
X-19798712Y-15341692D01*
X-19790197Y-15281102D01*
X-19747694Y-15237089D01*
X-19701216Y-15225500D01*
X-16271771Y-15225500D01*
X-16213580Y-15244407D01*
X-16177616Y-15293907D01*
X-16177616Y-15355093D01*
X-16213580Y-15404593D01*
X-16244147Y-15419568D01*
X-16250391Y-15421382D01*
X-16269327Y-15432580D01*
X-16283267Y-15439409D01*
X-16303732Y-15447513D01*
X-16341915Y-15475252D01*
X-16345812Y-15477812D01*
X-16386419Y-15501827D01*
X-16401979Y-15517387D01*
X-16413785Y-15527470D01*
X-16431583Y-15540401D01*
X-16461662Y-15576758D01*
X-16464801Y-15580208D01*
X-17785747Y-16901154D01*
X-17797085Y-16910239D01*
X-17797079Y-16910246D01*
X-17801873Y-16914211D01*
X-17801877Y-16914214D01*
X-17801881Y-16914217D01*
X-17801882Y-16914219D01*
X-17848696Y-16964069D01*
X-17849776Y-16965183D01*
X-17870115Y-16985523D01*
X-17870125Y-16985534D01*
X-17874738Y-16991479D01*
X-17877760Y-16995017D01*
X-17910061Y-17029416D01*
X-17910065Y-17029421D01*
X-17920666Y-17048703D01*
X-17929187Y-17061676D01*
X-17942675Y-17079066D01*
X-17961416Y-17122373D01*
X-17963468Y-17126560D01*
X-17986196Y-17167905D01*
X-17986200Y-17167916D01*
X-17991668Y-17189212D01*
X-17996697Y-17203903D01*
X-18005439Y-17224105D01*
X-18005440Y-17224108D01*
X-18012822Y-17270714D01*
X-18013768Y-17275281D01*
X-18025499Y-17320973D01*
X-18025500Y-17320984D01*
X-18025500Y-17342981D01*
X-18026719Y-17358469D01*
X-18030161Y-17380193D01*
X-18025720Y-17427170D01*
X-18025500Y-17431831D01*
X-18025500Y-19681713D01*
X-18044407Y-19739904D01*
X-18093907Y-19775868D01*
X-18096885Y-19776783D01*
X-18119765Y-19783429D01*
X-18134966Y-19786578D01*
X-18156793Y-19789336D01*
X-18156797Y-19789337D01*
X-18187910Y-19801656D01*
X-18200663Y-19806704D01*
X-18205069Y-19808213D01*
X-18250390Y-19821381D01*
X-18269327Y-19832580D01*
X-18283267Y-19839409D01*
X-18303732Y-19847513D01*
X-18341915Y-19875252D01*
X-18345812Y-19877812D01*
X-18386419Y-19901827D01*
X-18401979Y-19917387D01*
X-18413785Y-19927470D01*
X-18431586Y-19940403D01*
X-18431590Y-19940408D01*
X-18461661Y-19976758D01*
X-18464801Y-19980209D01*
X-18585745Y-20101152D01*
X-18597088Y-20110240D01*
X-18597082Y-20110247D01*
X-18601880Y-20114215D01*
X-18648698Y-20164070D01*
X-18649778Y-20165185D01*
X-18670115Y-20185523D01*
X-18670125Y-20185534D01*
X-18674738Y-20191479D01*
X-18677760Y-20195017D01*
X-18710061Y-20229416D01*
X-18710065Y-20229421D01*
X-18720666Y-20248703D01*
X-18729187Y-20261676D01*
X-18742675Y-20279066D01*
X-18761416Y-20322373D01*
X-18763468Y-20326560D01*
X-18786196Y-20367905D01*
X-18786200Y-20367916D01*
X-18791668Y-20389212D01*
X-18796697Y-20403903D01*
X-18805439Y-20424105D01*
X-18805440Y-20424108D01*
X-18812822Y-20470714D01*
X-18813768Y-20475281D01*
X-18825499Y-20520973D01*
X-18825500Y-20520984D01*
X-18825500Y-20542981D01*
X-18826719Y-20558469D01*
X-18830161Y-20580193D01*
X-18825720Y-20627170D01*
X-18825500Y-20631831D01*
X-18825500Y-20703958D01*
X-18844407Y-20762149D01*
X-18893907Y-20798113D01*
X-18930256Y-20802791D01*
X-19043907Y-20796172D01*
X-19216563Y-20826614D01*
X-19216569Y-20826616D01*
X-19377548Y-20896056D01*
X-19377557Y-20896061D01*
X-19518185Y-21000755D01*
X-19518187Y-21000757D01*
X-19630881Y-21135061D01*
X-19630882Y-21135062D01*
X-19666748Y-21206474D01*
X-19000000Y-21873223D01*
X-18979497Y-21893726D01*
X-18951720Y-21948243D01*
X-18950501Y-21963729D01*
X-18950500Y-22136267D01*
X-18969407Y-22194458D01*
X-18979496Y-22206272D01*
X-19669759Y-22896534D01*
X-19578445Y-23035373D01*
X-19450920Y-23155686D01*
X-19450920Y-23155687D01*
X-19299083Y-23243349D01*
X-19131127Y-23293633D01*
X-19131128Y-23293633D01*
X-18956094Y-23303827D01*
X-18783438Y-23273385D01*
X-18783436Y-23273384D01*
X-18637134Y-23210275D01*
X-18576213Y-23204587D01*
X-18548423Y-23215440D01*
X-18499281Y-23243812D01*
X-18374502Y-23281169D01*
X-18331214Y-23294129D01*
X-18331213Y-23294129D01*
X-18331210Y-23294130D01*
X-18256148Y-23298501D01*
X-18156069Y-23304331D01*
X-18156069Y-23304330D01*
X-18156065Y-23304331D01*
X-17983289Y-23273865D01*
X-17836590Y-23210585D01*
X-17775672Y-23204899D01*
X-17747881Y-23215753D01*
X-17699281Y-23243812D01*
X-17600505Y-23273384D01*
X-17531214Y-23294129D01*
X-17531213Y-23294129D01*
X-17531210Y-23294130D01*
X-17456148Y-23298501D01*
X-17356069Y-23304331D01*
X-17356069Y-23304330D01*
X-17356065Y-23304331D01*
X-17183289Y-23273865D01*
X-17036020Y-23210339D01*
X-16975100Y-23204652D01*
X-16947309Y-23215506D01*
X-16899083Y-23243349D01*
X-16731127Y-23293633D01*
X-16731128Y-23293633D01*
X-16556095Y-23303827D01*
X-16541692Y-23301288D01*
X-16481102Y-23309803D01*
X-16437089Y-23352306D01*
X-16425500Y-23398784D01*
X-16425500Y-25983508D01*
X-16444407Y-26041699D01*
X-16493907Y-26077663D01*
X-16533127Y-26082131D01*
X-16619995Y-26074532D01*
X-16620004Y-26074532D01*
X-16846685Y-26094363D01*
X-17066501Y-26153262D01*
X-17272724Y-26249426D01*
X-17272738Y-26249434D01*
X-17459131Y-26379946D01*
X-17459133Y-26379947D01*
X-17620053Y-26540867D01*
X-17620054Y-26540869D01*
X-17750566Y-26727262D01*
X-17750574Y-26727276D01*
X-17846738Y-26933499D01*
X-17905637Y-27153315D01*
X-17925468Y-27379996D01*
X-17925468Y-27380003D01*
X-17905637Y-27606684D01*
X-17846738Y-27826500D01*
X-17750574Y-28032723D01*
X-17750566Y-28032737D01*
X-17620054Y-28219130D01*
X-17620053Y-28219132D01*
X-17620050Y-28219135D01*
X-17620047Y-28219139D01*
X-17459139Y-28380047D01*
X-17459136Y-28380049D01*
X-17459133Y-28380052D01*
X-17459131Y-28380053D01*
X-17334870Y-28467060D01*
X-17272734Y-28510568D01*
X-17272728Y-28510571D01*
X-17272724Y-28510573D01*
X-17135632Y-28574500D01*
X-17096530Y-28592734D01*
X-17066500Y-28606737D01*
X-17066496Y-28606739D01*
X-16846692Y-28665635D01*
X-16846688Y-28665635D01*
X-16846685Y-28665636D01*
X-16620003Y-28685468D01*
X-16620000Y-28685468D01*
X-16619997Y-28685468D01*
X-16393316Y-28665636D01*
X-16393315Y-28665635D01*
X-16393308Y-28665635D01*
X-16173504Y-28606739D01*
X-15967266Y-28510568D01*
X-15780861Y-28380047D01*
X-15619953Y-28219139D01*
X-15489432Y-28032734D01*
X-15393261Y-27826496D01*
X-15334365Y-27606692D01*
X-15334356Y-27606597D01*
X-15314532Y-27380003D01*
X-10304966Y-27380003D01*
X-10285143Y-27606597D01*
X-10226267Y-27826323D01*
X-10130135Y-28032481D01*
X-10006224Y-28209445D01*
X-9357069Y-27560289D01*
X-9327641Y-27618045D01*
X-9238045Y-27707641D01*
X-9180293Y-27737067D01*
X-9829447Y-28386222D01*
X-9652482Y-28510134D01*
X-9446324Y-28606266D01*
X-9226598Y-28665142D01*
X-9000003Y-28684966D01*
X-8999997Y-28684966D01*
X-8773403Y-28665142D01*
X-8553677Y-28606266D01*
X-8347517Y-28510133D01*
X-8347516Y-28510133D01*
X-8170554Y-28386221D01*
X-8819709Y-27737067D01*
X-8761955Y-27707641D01*
X-8672359Y-27618045D01*
X-8642932Y-27560291D01*
X-7993778Y-28209445D01*
X-7869867Y-28032484D01*
X-7869867Y-28032483D01*
X-7773734Y-27826323D01*
X-7714858Y-27606597D01*
X-7695034Y-27380003D01*
X-7695034Y-27379996D01*
X-7714858Y-27153402D01*
X-7773734Y-26933676D01*
X-7869866Y-26727518D01*
X-7993778Y-26550553D01*
X-8642933Y-27199707D01*
X-8672359Y-27141955D01*
X-8761955Y-27052359D01*
X-8819711Y-27022931D01*
X-8170555Y-26373776D01*
X-8347519Y-26249865D01*
X-8553677Y-26153733D01*
X-8773403Y-26094857D01*
X-8999997Y-26075034D01*
X-9000003Y-26075034D01*
X-9226598Y-26094857D01*
X-9446324Y-26153733D01*
X-9652482Y-26249865D01*
X-9829447Y-26373776D01*
X-9180292Y-27022931D01*
X-9238045Y-27052359D01*
X-9327641Y-27141955D01*
X-9357069Y-27199708D01*
X-10006224Y-26550553D01*
X-10130135Y-26727518D01*
X-10226267Y-26933676D01*
X-10285143Y-27153402D01*
X-10304966Y-27379996D01*
X-10304966Y-27380003D01*
X-15314532Y-27380003D01*
X-15314532Y-27379996D01*
X-15334364Y-27153315D01*
X-15334365Y-27153312D01*
X-15334365Y-27153308D01*
X-15356417Y-27071009D01*
X-15353214Y-27009908D01*
X-15331797Y-26976934D01*
X-15331940Y-26976808D01*
X-15331085Y-26975837D01*
X-15330784Y-26975374D01*
X-15329880Y-26974471D01*
X-15325262Y-26968516D01*
X-15322260Y-26965000D01*
X-15289938Y-26930582D01*
X-15279339Y-26911299D01*
X-15270808Y-26898314D01*
X-15257329Y-26880938D01*
X-15257327Y-26880936D01*
X-15238588Y-26837631D01*
X-15236535Y-26833439D01*
X-15213804Y-26792094D01*
X-15213803Y-26792092D01*
X-15208329Y-26770770D01*
X-15203301Y-26756087D01*
X-15194563Y-26735896D01*
X-15187182Y-26689286D01*
X-15186244Y-26684754D01*
X-15174500Y-26639019D01*
X-15174500Y-26617016D01*
X-15173281Y-26601529D01*
X-15173199Y-26601007D01*
X-15169840Y-26579804D01*
X-15173520Y-26540869D01*
X-15174280Y-26532828D01*
X-15174500Y-26528167D01*
X-15174500Y-23396542D01*
X-15155593Y-23338351D01*
X-15106093Y-23302387D01*
X-15069744Y-23297710D01*
X-15055667Y-23298529D01*
X-14956069Y-23304331D01*
X-14956069Y-23304330D01*
X-14956065Y-23304331D01*
X-14783289Y-23273865D01*
X-14636590Y-23210585D01*
X-14575672Y-23204899D01*
X-14547881Y-23215753D01*
X-14499281Y-23243812D01*
X-14400505Y-23273384D01*
X-14331214Y-23294129D01*
X-14331213Y-23294129D01*
X-14331210Y-23294130D01*
X-14256148Y-23298501D01*
X-14156069Y-23304331D01*
X-14156069Y-23304330D01*
X-14156065Y-23304331D01*
X-13983289Y-23273865D01*
X-13836020Y-23210339D01*
X-13775100Y-23204652D01*
X-13747309Y-23215506D01*
X-13699083Y-23243349D01*
X-13531127Y-23293633D01*
X-13531128Y-23293633D01*
X-13356094Y-23303827D01*
X-13183438Y-23273385D01*
X-13183433Y-23273383D01*
X-13036560Y-23210028D01*
X-12975640Y-23204340D01*
X-12947848Y-23215195D01*
X-12899084Y-23243349D01*
X-12731127Y-23293633D01*
X-12731128Y-23293633D01*
X-12556094Y-23303827D01*
X-12383438Y-23273385D01*
X-12383433Y-23273383D01*
X-12236560Y-23210028D01*
X-12175640Y-23204340D01*
X-12147848Y-23215195D01*
X-12099084Y-23243349D01*
X-11931127Y-23293633D01*
X-11931128Y-23293633D01*
X-11756094Y-23303827D01*
X-11583438Y-23273385D01*
X-11583433Y-23273383D01*
X-11436560Y-23210028D01*
X-11375640Y-23204340D01*
X-11347848Y-23215195D01*
X-11299084Y-23243349D01*
X-11131127Y-23293633D01*
X-11131128Y-23293633D01*
X-10956094Y-23303827D01*
X-10783438Y-23273385D01*
X-10783433Y-23273383D01*
X-10636560Y-23210028D01*
X-10575640Y-23204340D01*
X-10547848Y-23215195D01*
X-10499084Y-23243349D01*
X-10331127Y-23293633D01*
X-10331128Y-23293633D01*
X-10156095Y-23303827D01*
X-10141692Y-23301288D01*
X-10081102Y-23309803D01*
X-10037089Y-23352306D01*
X-10025500Y-23398784D01*
X-10025500Y-23510909D01*
X-10044407Y-23569100D01*
X-10050925Y-23577149D01*
X-10132533Y-23667784D01*
X-10132535Y-23667786D01*
X-10132535Y-23667787D01*
X-10227175Y-23831706D01*
X-10227181Y-23831720D01*
X-10285673Y-24011738D01*
X-10285674Y-24011742D01*
X-10285674Y-24011744D01*
X-10305460Y-24200000D01*
X-10287385Y-24371979D01*
X-10285673Y-24388261D01*
X-10227181Y-24568279D01*
X-10227175Y-24568293D01*
X-10152189Y-24698170D01*
X-10132533Y-24732216D01*
X-10118985Y-24747262D01*
X-10066604Y-24805438D01*
X-10005871Y-24872888D01*
X-9852730Y-24984151D01*
X-9679803Y-25061144D01*
X-9494646Y-25100500D01*
X-9494643Y-25100500D01*
X-9305357Y-25100500D01*
X-9305354Y-25100500D01*
X-9120197Y-25061144D01*
X-8947270Y-24984151D01*
X-8794129Y-24872888D01*
X-8673570Y-24738993D01*
X-8620584Y-24708402D01*
X-8559733Y-24714798D01*
X-8526432Y-24738992D01*
X-8405871Y-24872888D01*
X-8252730Y-24984151D01*
X-8079803Y-25061144D01*
X-7894646Y-25100500D01*
X-7894643Y-25100500D01*
X-7705357Y-25100500D01*
X-7705354Y-25100500D01*
X-7520197Y-25061144D01*
X-7347270Y-24984151D01*
X-7194129Y-24872888D01*
X-7067467Y-24732216D01*
X-6972821Y-24568284D01*
X-6914326Y-24388256D01*
X-6912616Y-24371976D01*
X-6887730Y-24316083D01*
X-6834742Y-24285491D01*
X-6834742Y-24285490D01*
X-6720197Y-24261144D01*
X-6547270Y-24184151D01*
X-6394129Y-24072888D01*
X-6267467Y-23932216D01*
X-6184602Y-23788689D01*
X-6172826Y-23768293D01*
X-6172826Y-23768291D01*
X-6172821Y-23768284D01*
X-6114326Y-23588256D01*
X-6094540Y-23400000D01*
X-6114326Y-23211744D01*
X-6172821Y-23031716D01*
X-6172824Y-23031711D01*
X-6172826Y-23031706D01*
X-6250868Y-22896534D01*
X-6267467Y-22867784D01*
X-6267472Y-22867778D01*
X-6268309Y-22866626D01*
X-6268533Y-22865938D01*
X-6270061Y-22863291D01*
X-6269499Y-22862966D01*
X-6287218Y-22808435D01*
X-6284549Y-22785601D01*
X-6249500Y-22637721D01*
X-6249500Y-21506291D01*
X-6264759Y-21375745D01*
X-6324763Y-21210883D01*
X-6421170Y-21064304D01*
X-6548781Y-20943908D01*
X-6651154Y-20884804D01*
X-6700719Y-20856188D01*
X-6742737Y-20843608D01*
X-6868787Y-20805870D01*
X-6868794Y-20805869D01*
X-7043932Y-20795668D01*
X-7216708Y-20826133D01*
X-7363409Y-20889413D01*
X-7424330Y-20895099D01*
X-7452119Y-20884246D01*
X-7500716Y-20856189D01*
X-7668787Y-20805870D01*
X-7668794Y-20805869D01*
X-7843932Y-20795668D01*
X-8016708Y-20826133D01*
X-8163409Y-20889413D01*
X-8224330Y-20895099D01*
X-8252119Y-20884246D01*
X-8300716Y-20856189D01*
X-8468787Y-20805870D01*
X-8468794Y-20805869D01*
X-8643932Y-20795668D01*
X-8816708Y-20826133D01*
X-8963409Y-20889413D01*
X-9024330Y-20895099D01*
X-9052119Y-20884246D01*
X-9100716Y-20856189D01*
X-9268787Y-20805870D01*
X-9268794Y-20805869D01*
X-9443932Y-20795668D01*
X-9616708Y-20826133D01*
X-9763981Y-20889660D01*
X-9824901Y-20895346D01*
X-9852691Y-20884493D01*
X-9900916Y-20856651D01*
X-10068874Y-20806366D01*
X-10068873Y-20806366D01*
X-10243907Y-20796172D01*
X-10416563Y-20826614D01*
X-10416565Y-20826615D01*
X-10563442Y-20889971D01*
X-10624362Y-20895657D01*
X-10652152Y-20884804D01*
X-10700916Y-20856650D01*
X-10868874Y-20806366D01*
X-10868873Y-20806366D01*
X-11043907Y-20796172D01*
X-11216563Y-20826614D01*
X-11216565Y-20826615D01*
X-11363442Y-20889971D01*
X-11424362Y-20895657D01*
X-11452152Y-20884804D01*
X-11500916Y-20856650D01*
X-11668874Y-20806366D01*
X-11668873Y-20806366D01*
X-11843907Y-20796172D01*
X-12016563Y-20826614D01*
X-12016565Y-20826615D01*
X-12163442Y-20889971D01*
X-12224362Y-20895657D01*
X-12252152Y-20884804D01*
X-12300916Y-20856650D01*
X-12468874Y-20806366D01*
X-12468873Y-20806366D01*
X-12643907Y-20796172D01*
X-12816563Y-20826614D01*
X-12816565Y-20826615D01*
X-12963442Y-20889971D01*
X-13024362Y-20895657D01*
X-13052152Y-20884804D01*
X-13100916Y-20856650D01*
X-13268874Y-20806366D01*
X-13268873Y-20806366D01*
X-13443907Y-20796172D01*
X-13616562Y-20826614D01*
X-13762869Y-20889725D01*
X-13823790Y-20895411D01*
X-13851579Y-20884558D01*
X-13900719Y-20856188D01*
X-14068787Y-20805870D01*
X-14068794Y-20805869D01*
X-14243932Y-20795668D01*
X-14416708Y-20826133D01*
X-14563409Y-20889413D01*
X-14624330Y-20895099D01*
X-14652119Y-20884246D01*
X-14700716Y-20856189D01*
X-14868787Y-20805870D01*
X-14868794Y-20805869D01*
X-15043932Y-20795668D01*
X-15216708Y-20826133D01*
X-15363409Y-20889413D01*
X-15424330Y-20895099D01*
X-15452119Y-20884246D01*
X-15500716Y-20856189D01*
X-15668787Y-20805870D01*
X-15668794Y-20805869D01*
X-15843932Y-20795668D01*
X-16016708Y-20826133D01*
X-16163981Y-20889660D01*
X-16224901Y-20895346D01*
X-16252691Y-20884493D01*
X-16300916Y-20856651D01*
X-16468874Y-20806366D01*
X-16468873Y-20806366D01*
X-16643907Y-20796172D01*
X-16658315Y-20798712D01*
X-16718905Y-20790193D01*
X-16762915Y-20747688D01*
X-16774500Y-20701219D01*
X-16774500Y-20468470D01*
X-16772748Y-20449936D01*
X-16770773Y-20439588D01*
X-16773942Y-20389212D01*
X-16774402Y-20381894D01*
X-16774500Y-20378785D01*
X-16774500Y-20360649D01*
X-16774500Y-19036559D01*
X-16774500Y-17700094D01*
X-16755594Y-17641907D01*
X-16745504Y-17630094D01*
X-15769904Y-16654496D01*
X-15715388Y-16626719D01*
X-15699901Y-16625500D01*
X-13292617Y-16625500D01*
X-13234426Y-16644407D01*
X-13219046Y-16658256D01*
X-13205871Y-16672888D01*
X-13052730Y-16784151D01*
X-12879803Y-16861144D01*
X-12694646Y-16900500D01*
X-12694643Y-16900500D01*
X-12505357Y-16900500D01*
X-12505354Y-16900500D01*
X-12320197Y-16861144D01*
X-12147270Y-16784151D01*
X-11994129Y-16672888D01*
X-11867467Y-16532216D01*
X-11785156Y-16389648D01*
X-11772826Y-16368293D01*
X-11772826Y-16368291D01*
X-11772821Y-16368284D01*
X-11714326Y-16188256D01*
X-11694540Y-16000000D01*
X-11714326Y-15811744D01*
X-11772821Y-15631716D01*
X-11772824Y-15631711D01*
X-11772826Y-15631706D01*
X-11830897Y-15531126D01*
X-11867467Y-15467784D01*
X-11910881Y-15419568D01*
X-11936834Y-15390744D01*
X-11961721Y-15334848D01*
X-11948999Y-15275000D01*
X-11903530Y-15234059D01*
X-11863263Y-15225500D01*
X-11817117Y-15225500D01*
X-11758926Y-15244407D01*
X-11743546Y-15258256D01*
X-11730371Y-15272888D01*
X-11577230Y-15384151D01*
X-11404303Y-15461144D01*
X-11219146Y-15500500D01*
X-11219143Y-15500500D01*
X-11029857Y-15500500D01*
X-11029854Y-15500500D01*
X-10844697Y-15461144D01*
X-10671770Y-15384151D01*
X-10518629Y-15272888D01*
X-10391967Y-15132216D01*
X-10297321Y-14968284D01*
X-10238826Y-14788256D01*
X-10219040Y-14600000D01*
X-10225888Y-14534846D01*
X-10213166Y-14475000D01*
X-10167697Y-14434059D01*
X-10127430Y-14425500D01*
X-9500098Y-14425500D01*
X-9441907Y-14444407D01*
X-9430094Y-14454496D01*
X-7298849Y-16585741D01*
X-7289761Y-16597086D01*
X-7289754Y-16597081D01*
X-7285787Y-16601876D01*
X-7235915Y-16648711D01*
X-7234799Y-16649792D01*
X-7214472Y-16670118D01*
X-7214470Y-16670120D01*
X-7212467Y-16671674D01*
X-7208527Y-16674731D01*
X-7204981Y-16677759D01*
X-7170586Y-16710059D01*
X-7170585Y-16710059D01*
X-7170582Y-16710062D01*
X-7151302Y-16720661D01*
X-7138324Y-16729186D01*
X-7135151Y-16731647D01*
X-7122253Y-16743632D01*
X-7005876Y-16872884D01*
X-7005871Y-16872888D01*
X-6852730Y-16984151D01*
X-6679803Y-17061144D01*
X-6494646Y-17100500D01*
X-6494643Y-17100500D01*
X-6305358Y-17100500D01*
X-6305354Y-17100500D01*
X-6298648Y-17099074D01*
X-6237802Y-17105465D01*
X-6192329Y-17146402D01*
X-6180565Y-17178717D01*
X-6173866Y-17216707D01*
X-6173865Y-17216711D01*
X-6138334Y-17299081D01*
X-6110587Y-17363408D01*
X-6104901Y-17424328D01*
X-6115753Y-17452116D01*
X-6143811Y-17500717D01*
X-6194130Y-17668786D01*
X-6194131Y-17668793D01*
X-6204332Y-17843931D01*
X-6173867Y-18016707D01*
X-6110587Y-18163408D01*
X-6104901Y-18224328D01*
X-6115753Y-18252116D01*
X-6143811Y-18300717D01*
X-6194130Y-18468786D01*
X-6194131Y-18468793D01*
X-6204332Y-18643931D01*
X-6173867Y-18816707D01*
X-6110587Y-18963408D01*
X-6104901Y-19024328D01*
X-6115753Y-19052116D01*
X-6142240Y-19097996D01*
X-6143812Y-19100719D01*
X-6156440Y-19142895D01*
X-6194130Y-19268786D01*
X-6194131Y-19268793D01*
X-6204332Y-19443931D01*
X-6173867Y-19616707D01*
X-6110587Y-19763408D01*
X-6104901Y-19824328D01*
X-6115753Y-19852116D01*
X-6143811Y-19900717D01*
X-6143812Y-19900719D01*
X-6148202Y-19915382D01*
X-6194130Y-20068786D01*
X-6194131Y-20068793D01*
X-6204332Y-20243931D01*
X-6173867Y-20416707D01*
X-6104378Y-20577802D01*
X-6104377Y-20577804D01*
X-5999611Y-20718529D01*
X-5999609Y-20718531D01*
X-5865217Y-20831300D01*
X-5865216Y-20831300D01*
X-5865214Y-20831302D01*
X-5708433Y-20910040D01*
X-5651669Y-20923493D01*
X-5599409Y-20955309D01*
X-5575829Y-21011768D01*
X-5575501Y-21019824D01*
X-5575501Y-33170014D01*
X-5577095Y-33184464D01*
X-5577087Y-33184465D01*
X-5577674Y-33190667D01*
X-5576365Y-33232285D01*
X-5575524Y-33259068D01*
X-5575500Y-33260586D01*
X-5575500Y-33289353D01*
X-5574558Y-33296820D01*
X-5574192Y-33301466D01*
X-5572709Y-33348630D01*
X-5572709Y-33348633D01*
X-5566572Y-33369755D01*
X-5563422Y-33384966D01*
X-5560666Y-33406787D01*
X-5543296Y-33450660D01*
X-5541785Y-33455073D01*
X-5528619Y-33500388D01*
X-5528618Y-33500390D01*
X-5517420Y-33519325D01*
X-5510588Y-33533272D01*
X-5502488Y-33553727D01*
X-5502486Y-33553732D01*
X-5474749Y-33591909D01*
X-5472188Y-33595808D01*
X-5448172Y-33636418D01*
X-5448172Y-33636419D01*
X-5432611Y-33651980D01*
X-5422527Y-33663786D01*
X-5409594Y-33681587D01*
X-5409593Y-33681588D01*
X-5409592Y-33681589D01*
X-5409590Y-33681591D01*
X-5373242Y-33711660D01*
X-5369790Y-33714801D01*
X-1898849Y-37185742D01*
X-1889763Y-37197084D01*
X-1889756Y-37197079D01*
X-1885788Y-37201875D01*
X-1835931Y-37248696D01*
X-1834815Y-37249777D01*
X-1823730Y-37260861D01*
X-1814471Y-37270120D01*
X-1808528Y-37274730D01*
X-1804983Y-37277758D01*
X-1770582Y-37310062D01*
X-1751303Y-37320660D01*
X-1738326Y-37329183D01*
X-1720936Y-37342673D01*
X-1693473Y-37354557D01*
X-1677632Y-37361412D01*
X-1673441Y-37363465D01*
X-1632094Y-37386196D01*
X-1632093Y-37386197D01*
X-1621290Y-37388970D01*
X-1610781Y-37391668D01*
X-1596091Y-37396698D01*
X-1575896Y-37405437D01*
X-1529297Y-37412817D01*
X-1524739Y-37413760D01*
X-1509849Y-37417583D01*
X-1479025Y-37425499D01*
X-1479021Y-37425499D01*
X-1479019Y-37425500D01*
X-1457017Y-37425500D01*
X-1441532Y-37426718D01*
X-1419804Y-37430160D01*
X-1390408Y-37427381D01*
X-1372828Y-37425720D01*
X-1368167Y-37425500D01*
X-1275266Y-37425500D01*
X-1217075Y-37444407D01*
X-1181111Y-37493907D01*
X-1181111Y-37555093D01*
X-1185542Y-37566339D01*
X-1226266Y-37653671D01*
X-1285143Y-37873402D01*
X-1294031Y-37974999D01*
X-1294030Y-37975000D01*
X-385188Y-37975000D01*
X-404986Y-38100000D01*
X-385188Y-38225000D01*
X-1294031Y-38225000D01*
X-1285143Y-38326597D01*
X-1226267Y-38546323D01*
X-1130135Y-38752481D01*
X-999666Y-38938811D01*
X-838812Y-39099665D01*
X-652482Y-39230134D01*
X-446324Y-39326266D01*
X-226598Y-39385142D01*
X-125000Y-39394030D01*
X-125000Y-38485188D01*
X-31481Y-38500000D01*
X31481Y-38500000D01*
X125000Y-38485188D01*
X125000Y-39394030D01*
X226597Y-39385142D01*
X446323Y-39326266D01*
X652481Y-39230134D01*
X838811Y-39099665D01*
X999665Y-38938811D01*
X1130134Y-38752481D01*
X1226266Y-38546323D01*
X1285142Y-38326597D01*
X1294030Y-38225000D01*
X385188Y-38225000D01*
X404986Y-38100000D01*
X385188Y-37975000D01*
X1294030Y-37975000D01*
X1294030Y-37974999D01*
X1285142Y-37873402D01*
X1226265Y-37653671D01*
X1185542Y-37566339D01*
X1178085Y-37505610D01*
X1207748Y-37452096D01*
X1263201Y-37426238D01*
X1275266Y-37425500D01*
X6019902Y-37425500D01*
X6078093Y-37444407D01*
X6089906Y-37454496D01*
X6330792Y-37695382D01*
X6358569Y-37749899D01*
X6356415Y-37791007D01*
X6334364Y-37873307D01*
X6334364Y-37873309D01*
X6314532Y-38099996D01*
X6314532Y-38100003D01*
X6334363Y-38326684D01*
X6393262Y-38546500D01*
X6489426Y-38752723D01*
X6489434Y-38752737D01*
X6619946Y-38939130D01*
X6619947Y-38939132D01*
X6619950Y-38939135D01*
X6619953Y-38939139D01*
X6780861Y-39100047D01*
X6780864Y-39100049D01*
X6780867Y-39100052D01*
X6780869Y-39100053D01*
X6867816Y-39160933D01*
X6967266Y-39230568D01*
X6967272Y-39230571D01*
X6967276Y-39230573D01*
X7173500Y-39326737D01*
X7173504Y-39326739D01*
X7393308Y-39385635D01*
X7393312Y-39385635D01*
X7393315Y-39385636D01*
X7619997Y-39405468D01*
X7620000Y-39405468D01*
X7620003Y-39405468D01*
X7846684Y-39385636D01*
X7846685Y-39385635D01*
X7846692Y-39385635D01*
X7957948Y-39355824D01*
X8019048Y-39359027D01*
X8066597Y-39397532D01*
X8082433Y-39456632D01*
X8060506Y-39513754D01*
X8053573Y-39521454D01*
X7904525Y-39670503D01*
X7850008Y-39698281D01*
X7834521Y-39699500D01*
X-21834521Y-39699500D01*
X-21892712Y-39680593D01*
X-21904525Y-39670504D01*
X-22670504Y-38904524D01*
X-22698281Y-38850007D01*
X-22699500Y-38834520D01*
X-22699500Y-35000003D01*
X-17925468Y-35000003D01*
X-17905637Y-35226684D01*
X-17846738Y-35446500D01*
X-17750574Y-35652723D01*
X-17750566Y-35652737D01*
X-17620054Y-35839130D01*
X-17620053Y-35839132D01*
X-17620050Y-35839135D01*
X-17620047Y-35839139D01*
X-17459139Y-36000047D01*
X-17459136Y-36000049D01*
X-17459133Y-36000052D01*
X-17459131Y-36000053D01*
X-17398751Y-36042331D01*
X-17272734Y-36130568D01*
X-17272728Y-36130571D01*
X-17272724Y-36130573D01*
X-17066500Y-36226737D01*
X-17066496Y-36226739D01*
X-16846692Y-36285635D01*
X-16846688Y-36285635D01*
X-16846685Y-36285636D01*
X-16620003Y-36305468D01*
X-16620000Y-36305468D01*
X-16619997Y-36305468D01*
X-16393316Y-36285636D01*
X-16393315Y-36285635D01*
X-16393308Y-36285635D01*
X-16173504Y-36226739D01*
X-15967266Y-36130568D01*
X-15780861Y-36000047D01*
X-15628680Y-35847866D01*
X-10300500Y-35847866D01*
X-10300499Y-35847870D01*
X-10294092Y-35907480D01*
X-10294091Y-35907485D01*
X-10243798Y-36042329D01*
X-10241868Y-36044907D01*
X-10157546Y-36157546D01*
X-10157543Y-36157548D01*
X-10157542Y-36157549D01*
X-10042330Y-36243797D01*
X-9907489Y-36294089D01*
X-9907488Y-36294089D01*
X-9907483Y-36294091D01*
X-9847873Y-36300500D01*
X-8152128Y-36300499D01*
X-8092517Y-36294091D01*
X-8025093Y-36268943D01*
X-7957671Y-36243797D01*
X-7957671Y-36243796D01*
X-7957669Y-36243796D01*
X-7842454Y-36157546D01*
X-7756204Y-36042331D01*
X-7705909Y-35907483D01*
X-7699500Y-35847873D01*
X-7699501Y-34152128D01*
X-7705909Y-34092517D01*
X-7732936Y-34020053D01*
X-7756203Y-33957670D01*
X-7842451Y-33842458D01*
X-7842452Y-33842457D01*
X-7842454Y-33842454D01*
X-7934882Y-33773262D01*
X-7957671Y-33756202D01*
X-8092512Y-33705910D01*
X-8092517Y-33705909D01*
X-8092519Y-33705908D01*
X-8092523Y-33705908D01*
X-8123751Y-33702550D01*
X-8152127Y-33699500D01*
X-8152130Y-33699500D01*
X-9847867Y-33699500D01*
X-9847871Y-33699500D01*
X-9847872Y-33699501D01*
X-9855051Y-33700272D01*
X-9907481Y-33705908D01*
X-9907486Y-33705909D01*
X-10042330Y-33756202D01*
X-10157542Y-33842450D01*
X-10157550Y-33842458D01*
X-10243798Y-33957670D01*
X-10294090Y-34092511D01*
X-10294092Y-34092522D01*
X-10300500Y-34152129D01*
X-10300500Y-35847866D01*
X-15628680Y-35847866D01*
X-15619953Y-35839139D01*
X-15489432Y-35652734D01*
X-15393261Y-35446496D01*
X-15334365Y-35226692D01*
X-15314532Y-35000000D01*
X-15322645Y-34907266D01*
X-15334364Y-34773315D01*
X-15334365Y-34773312D01*
X-15334365Y-34773308D01*
X-15393261Y-34553504D01*
X-15489432Y-34347266D01*
X-15559821Y-34246739D01*
X-15619947Y-34160869D01*
X-15619948Y-34160867D01*
X-15619951Y-34160864D01*
X-15619953Y-34160861D01*
X-15780861Y-33999953D01*
X-15780865Y-33999950D01*
X-15780868Y-33999947D01*
X-15780870Y-33999946D01*
X-15967263Y-33869434D01*
X-15967264Y-33869433D01*
X-15967266Y-33869432D01*
X-15967269Y-33869430D01*
X-15967277Y-33869426D01*
X-16173501Y-33773262D01*
X-16173500Y-33773262D01*
X-16391681Y-33714801D01*
X-16393308Y-33714365D01*
X-16393309Y-33714364D01*
X-16393316Y-33714363D01*
X-16619997Y-33694532D01*
X-16620003Y-33694532D01*
X-16846685Y-33714363D01*
X-17066501Y-33773262D01*
X-17272724Y-33869426D01*
X-17272738Y-33869434D01*
X-17459131Y-33999946D01*
X-17459133Y-33999947D01*
X-17620053Y-34160867D01*
X-17620054Y-34160869D01*
X-17750566Y-34347262D01*
X-17750574Y-34347276D01*
X-17846738Y-34553499D01*
X-17905637Y-34773315D01*
X-17925468Y-34999996D01*
X-17925468Y-35000003D01*
X-22699500Y-35000003D01*
X-22699500Y-22593680D01*
X-19750001Y-22593680D01*
X-19746909Y-22620130D01*
X-19176778Y-22050000D01*
X-19750000Y-21476778D01*
X-19750001Y-22593680D01*
X-22699500Y-22593680D01*
X-22699500Y-20950000D01*
X-21623222Y-20950000D01*
X-20506322Y-20950000D01*
X-20506304Y-20949998D01*
X-20479870Y-20946908D01*
X-21050000Y-20376777D01*
X-21623222Y-20950000D01*
X-22699500Y-20950000D01*
X-22699500Y-1053091D01*
X-21620131Y-1053091D01*
X-21050000Y-1623222D01*
X-20476778Y-1050000D01*
X-21593681Y-1050000D01*
X-21620131Y-1053091D01*
X-22699500Y-1053091D01*
X-22699500Y-796534D01*
X-19669759Y-796534D01*
X-19578445Y-935373D01*
X-19450920Y-1055686D01*
X-19450920Y-1055687D01*
X-19299083Y-1143349D01*
X-19131127Y-1193633D01*
X-19131128Y-1193633D01*
X-18956094Y-1203827D01*
X-18783438Y-1173385D01*
X-18783433Y-1173383D01*
X-18636560Y-1110028D01*
X-18575640Y-1104340D01*
X-18547848Y-1115195D01*
X-18499084Y-1143349D01*
X-18331127Y-1193633D01*
X-18331128Y-1193633D01*
X-18156094Y-1203827D01*
X-17983438Y-1173385D01*
X-17983433Y-1173383D01*
X-17836560Y-1110028D01*
X-17775640Y-1104340D01*
X-17747848Y-1115195D01*
X-17699084Y-1143349D01*
X-17531127Y-1193633D01*
X-17531128Y-1193633D01*
X-17356094Y-1203827D01*
X-17183438Y-1173385D01*
X-17183433Y-1173383D01*
X-17036560Y-1110028D01*
X-16975640Y-1104340D01*
X-16947848Y-1115195D01*
X-16899084Y-1143349D01*
X-16731127Y-1193633D01*
X-16731128Y-1193633D01*
X-16556094Y-1203827D01*
X-16383438Y-1173385D01*
X-16383433Y-1173383D01*
X-16236560Y-1110028D01*
X-16175640Y-1104340D01*
X-16147848Y-1115195D01*
X-16099084Y-1143349D01*
X-15931127Y-1193633D01*
X-15931128Y-1193633D01*
X-15756094Y-1203827D01*
X-15583438Y-1173385D01*
X-15583433Y-1173383D01*
X-15436560Y-1110028D01*
X-15375640Y-1104340D01*
X-15347848Y-1115195D01*
X-15299084Y-1143349D01*
X-15131127Y-1193633D01*
X-15131128Y-1193633D01*
X-14956094Y-1203827D01*
X-14783438Y-1173385D01*
X-14783433Y-1173383D01*
X-14636560Y-1110028D01*
X-14575640Y-1104340D01*
X-14547848Y-1115195D01*
X-14499084Y-1143349D01*
X-14331127Y-1193633D01*
X-14331128Y-1193633D01*
X-14156094Y-1203827D01*
X-13983438Y-1173385D01*
X-13983433Y-1173383D01*
X-13836560Y-1110028D01*
X-13775640Y-1104340D01*
X-13747848Y-1115195D01*
X-13699084Y-1143349D01*
X-13531127Y-1193633D01*
X-13531128Y-1193633D01*
X-13356094Y-1203827D01*
X-13183438Y-1173385D01*
X-13183433Y-1173383D01*
X-13036560Y-1110028D01*
X-12975640Y-1104340D01*
X-12947848Y-1115195D01*
X-12899084Y-1143349D01*
X-12731127Y-1193633D01*
X-12731128Y-1193633D01*
X-12556094Y-1203827D01*
X-12383438Y-1173385D01*
X-12383433Y-1173383D01*
X-12236560Y-1110028D01*
X-12175640Y-1104340D01*
X-12147848Y-1115195D01*
X-12099084Y-1143349D01*
X-11931127Y-1193633D01*
X-11931128Y-1193633D01*
X-11756095Y-1203827D01*
X-11741692Y-1201288D01*
X-11681102Y-1209803D01*
X-11637089Y-1252306D01*
X-11625500Y-1298784D01*
X-11625500Y-1510909D01*
X-11644407Y-1569100D01*
X-11650925Y-1577149D01*
X-11732533Y-1667784D01*
X-11732535Y-1667786D01*
X-11732535Y-1667787D01*
X-11827175Y-1831706D01*
X-11827181Y-1831720D01*
X-11885673Y-2011738D01*
X-11885674Y-2011742D01*
X-11885674Y-2011744D01*
X-11905460Y-2200000D01*
X-11887385Y-2371979D01*
X-11885673Y-2388261D01*
X-11827181Y-2568279D01*
X-11827175Y-2568293D01*
X-11783519Y-2643906D01*
X-11732533Y-2732216D01*
X-11732531Y-2732218D01*
X-11656588Y-2816562D01*
X-11605871Y-2872888D01*
X-11452730Y-2984151D01*
X-11279803Y-3061144D01*
X-11094646Y-3100500D01*
X-11094643Y-3100500D01*
X-10905357Y-3100500D01*
X-10905354Y-3100500D01*
X-10720197Y-3061144D01*
X-10547270Y-2984151D01*
X-10394129Y-2872888D01*
X-10267467Y-2732216D01*
X-10172821Y-2568284D01*
X-10114326Y-2388256D01*
X-10112616Y-2371976D01*
X-10087730Y-2316083D01*
X-10034742Y-2285491D01*
X-10034742Y-2285490D01*
X-9920197Y-2261144D01*
X-9747270Y-2184151D01*
X-9594129Y-2072888D01*
X-9467467Y-1932216D01*
X-9372821Y-1768284D01*
X-9314326Y-1588256D01*
X-9294540Y-1400000D01*
X-9306254Y-1288551D01*
X-9293533Y-1228706D01*
X-9248063Y-1187765D01*
X-9224985Y-1180710D01*
X-9183438Y-1173385D01*
X-9183433Y-1173383D01*
X-9036560Y-1110028D01*
X-8975640Y-1104340D01*
X-8947848Y-1115195D01*
X-8899084Y-1143349D01*
X-8731127Y-1193633D01*
X-8731128Y-1193633D01*
X-8556094Y-1203827D01*
X-8383438Y-1173385D01*
X-8383433Y-1173383D01*
X-8236560Y-1110028D01*
X-8175640Y-1104340D01*
X-8147848Y-1115195D01*
X-8099084Y-1143349D01*
X-7931127Y-1193633D01*
X-7931128Y-1193633D01*
X-7756094Y-1203827D01*
X-7583438Y-1173385D01*
X-7583433Y-1173383D01*
X-7436560Y-1110028D01*
X-7375640Y-1104340D01*
X-7347848Y-1115195D01*
X-7299084Y-1143349D01*
X-7131127Y-1193633D01*
X-7131128Y-1193633D01*
X-6956094Y-1203827D01*
X-6783438Y-1173385D01*
X-6783432Y-1173383D01*
X-6622453Y-1103943D01*
X-6622444Y-1103938D01*
X-6554145Y-1053091D01*
X-5520131Y-1053091D01*
X-4950000Y-1623222D01*
X-4376778Y-1050000D01*
X-5493681Y-1050000D01*
X-5520131Y-1053091D01*
X-6554145Y-1053091D01*
X-6481816Y-999244D01*
X-6481814Y-999242D01*
X-6369120Y-864940D01*
X-6333254Y-793524D01*
X-7106774Y-20004D01*
X-7134551Y34513D01*
X-7132098Y50001D01*
X-6823223Y50001D01*
X-6250000Y-523222D01*
X-6250000Y593678D01*
X-6250002Y593697D01*
X-6253092Y620132D01*
X-6823223Y50001D01*
X-7132098Y50001D01*
X-7124980Y94945D01*
X-7106773Y120004D01*
X-6999999Y226777D01*
X-6330243Y896536D01*
X-6421557Y1035375D01*
X-6549081Y1155687D01*
X-6549081Y1155688D01*
X-6700918Y1243350D01*
X-6868874Y1293634D01*
X-6868873Y1293634D01*
X-7043907Y1303828D01*
X-7216563Y1273386D01*
X-7216565Y1273385D01*
X-7363442Y1210029D01*
X-7424362Y1204343D01*
X-7452152Y1215196D01*
X-7500916Y1243350D01*
X-7668874Y1293634D01*
X-7668873Y1293634D01*
X-7843907Y1303828D01*
X-8016563Y1273386D01*
X-8016565Y1273385D01*
X-8163442Y1210029D01*
X-8224362Y1204343D01*
X-8252152Y1215196D01*
X-8300916Y1243350D01*
X-8468874Y1293634D01*
X-8468873Y1293634D01*
X-8643907Y1303828D01*
X-8816563Y1273386D01*
X-8816565Y1273385D01*
X-8963442Y1210029D01*
X-9024362Y1204343D01*
X-9052152Y1215196D01*
X-9100916Y1243350D01*
X-9268874Y1293634D01*
X-9268873Y1293634D01*
X-9443907Y1303828D01*
X-9616562Y1273386D01*
X-9762869Y1210275D01*
X-9823790Y1204589D01*
X-9851579Y1215442D01*
X-9900719Y1243812D01*
X-9911858Y1247147D01*
X-10068787Y1294130D01*
X-10068794Y1294131D01*
X-10243932Y1304332D01*
X-10416708Y1273867D01*
X-10563409Y1210587D01*
X-10624330Y1204901D01*
X-10652119Y1215754D01*
X-10700716Y1243811D01*
X-10711859Y1247147D01*
X-10717833Y1248936D01*
X-10868787Y1294130D01*
X-10868794Y1294131D01*
X-11043932Y1304332D01*
X-11216708Y1273867D01*
X-11363981Y1210340D01*
X-11424901Y1204654D01*
X-11452691Y1215507D01*
X-11500916Y1243349D01*
X-11668874Y1293634D01*
X-11668873Y1293634D01*
X-11843907Y1303828D01*
X-12016563Y1273386D01*
X-12016565Y1273385D01*
X-12163442Y1210029D01*
X-12224362Y1204343D01*
X-12252152Y1215196D01*
X-12300916Y1243350D01*
X-12468874Y1293634D01*
X-12468873Y1293634D01*
X-12643907Y1303828D01*
X-12816563Y1273386D01*
X-12816565Y1273385D01*
X-12963442Y1210029D01*
X-13024362Y1204343D01*
X-13052152Y1215196D01*
X-13100916Y1243350D01*
X-13268874Y1293634D01*
X-13268873Y1293634D01*
X-13443907Y1303828D01*
X-13616563Y1273386D01*
X-13616565Y1273385D01*
X-13763442Y1210029D01*
X-13824362Y1204343D01*
X-13852152Y1215196D01*
X-13900916Y1243350D01*
X-14068874Y1293634D01*
X-14068873Y1293634D01*
X-14243907Y1303828D01*
X-14416563Y1273386D01*
X-14416565Y1273385D01*
X-14563442Y1210029D01*
X-14624362Y1204343D01*
X-14652152Y1215196D01*
X-14700916Y1243350D01*
X-14868874Y1293634D01*
X-14868873Y1293634D01*
X-15043907Y1303828D01*
X-15216563Y1273386D01*
X-15216565Y1273385D01*
X-15363442Y1210029D01*
X-15424362Y1204343D01*
X-15452152Y1215196D01*
X-15500916Y1243350D01*
X-15668874Y1293634D01*
X-15668873Y1293634D01*
X-15843907Y1303828D01*
X-16016563Y1273386D01*
X-16016565Y1273385D01*
X-16163442Y1210029D01*
X-16224362Y1204343D01*
X-16252152Y1215196D01*
X-16300916Y1243350D01*
X-16468874Y1293634D01*
X-16468873Y1293634D01*
X-16643907Y1303828D01*
X-16816563Y1273386D01*
X-16816565Y1273385D01*
X-16963442Y1210029D01*
X-17024362Y1204343D01*
X-17052152Y1215196D01*
X-17100916Y1243350D01*
X-17268874Y1293634D01*
X-17268873Y1293634D01*
X-17443907Y1303828D01*
X-17616563Y1273386D01*
X-17616565Y1273385D01*
X-17763442Y1210029D01*
X-17824362Y1204343D01*
X-17852152Y1215196D01*
X-17900916Y1243350D01*
X-18068874Y1293634D01*
X-18068873Y1293634D01*
X-18243907Y1303828D01*
X-18416563Y1273386D01*
X-18416565Y1273385D01*
X-18563442Y1210029D01*
X-18624362Y1204343D01*
X-18652152Y1215196D01*
X-18700916Y1243350D01*
X-18868874Y1293634D01*
X-18868873Y1293634D01*
X-19043907Y1303828D01*
X-19216563Y1273386D01*
X-19216569Y1273384D01*
X-19377548Y1203944D01*
X-19377557Y1203939D01*
X-19518185Y1099245D01*
X-19518187Y1099243D01*
X-19630881Y964939D01*
X-19630882Y964938D01*
X-19666748Y893526D01*
X-19000000Y226777D01*
X-18893228Y120005D01*
X-18865451Y65488D01*
X-18875022Y5056D01*
X-18893228Y-20003D01*
X-19669759Y-796534D01*
X-22699500Y-796534D01*
X-22699500Y-493680D01*
X-19750001Y-493680D01*
X-19746909Y-520130D01*
X-19176778Y50000D01*
X-19750000Y623222D01*
X-19750001Y-493680D01*
X-22699500Y-493680D01*
X-22699500Y834521D01*
X-22680593Y892712D01*
X-22670504Y904525D01*
X-21904524Y1670504D01*
X-21850007Y1698281D01*
X-21834520Y1699500D01*
X7834521Y1699500D01*
X7892712Y1680593D01*
G37*
%TD.AperFunction*%
%TD*%
%TA.AperFunction,NonConductor*%
G36*
X8645444Y-910482D02*
G01*
X8688709Y-953746D01*
X8699500Y-998692D01*
X8699500Y-1541307D01*
X8680593Y-1599498D01*
X8631093Y-1635462D01*
X8569907Y-1635462D01*
X8530498Y-1611312D01*
X8459139Y-1539953D01*
X8459135Y-1539950D01*
X8459132Y-1539947D01*
X8459130Y-1539946D01*
X8272737Y-1409434D01*
X8272736Y-1409433D01*
X8272734Y-1409432D01*
X8272731Y-1409430D01*
X8272723Y-1409426D01*
X8166137Y-1359724D01*
X8121389Y-1317996D01*
X8109714Y-1257935D01*
X8135572Y-1202482D01*
X8166137Y-1180276D01*
X8272723Y-1130573D01*
X8272721Y-1130573D01*
X8272734Y-1130568D01*
X8459139Y-1000047D01*
X8530498Y-928687D01*
X8585012Y-900911D01*
X8645444Y-910482D01*
G37*
%TD.AperFunction*%
%TA.AperFunction,NonConductor*%
G36*
X8645445Y-3450483D02*
G01*
X8688710Y-3493748D01*
X8699500Y-3538693D01*
X8699500Y-4081307D01*
X8680593Y-4139498D01*
X8631093Y-4175462D01*
X8569907Y-4175462D01*
X8530498Y-4151312D01*
X8459139Y-4079953D01*
X8459135Y-4079950D01*
X8459132Y-4079947D01*
X8459130Y-4079946D01*
X8272737Y-3949434D01*
X8272736Y-3949433D01*
X8272734Y-3949432D01*
X8272731Y-3949430D01*
X8272723Y-3949426D01*
X8166137Y-3899724D01*
X8121389Y-3857996D01*
X8109714Y-3797935D01*
X8135572Y-3742482D01*
X8166137Y-3720276D01*
X8272723Y-3670573D01*
X8272721Y-3670573D01*
X8272734Y-3670568D01*
X8459139Y-3540047D01*
X8530498Y-3468687D01*
X8585013Y-3440912D01*
X8645445Y-3450483D01*
G37*
%TD.AperFunction*%
%TA.AperFunction,NonConductor*%
G36*
X8645445Y-5990483D02*
G01*
X8688710Y-6033748D01*
X8699500Y-6078693D01*
X8699500Y-6621307D01*
X8680593Y-6679498D01*
X8631093Y-6715462D01*
X8569907Y-6715462D01*
X8530498Y-6691312D01*
X8459139Y-6619953D01*
X8459135Y-6619950D01*
X8459132Y-6619947D01*
X8459130Y-6619946D01*
X8272737Y-6489434D01*
X8272736Y-6489433D01*
X8272734Y-6489432D01*
X8272731Y-6489430D01*
X8272723Y-6489426D01*
X8166137Y-6439724D01*
X8121389Y-6397996D01*
X8109714Y-6337935D01*
X8135572Y-6282482D01*
X8166137Y-6260276D01*
X8272723Y-6210573D01*
X8272721Y-6210573D01*
X8272734Y-6210568D01*
X8459139Y-6080047D01*
X8530498Y-6008687D01*
X8585013Y-5980912D01*
X8645445Y-5990483D01*
G37*
%TD.AperFunction*%
%TA.AperFunction,NonConductor*%
G36*
X8645445Y-8530483D02*
G01*
X8688710Y-8573748D01*
X8699500Y-8618693D01*
X8699500Y-9161307D01*
X8680593Y-9219498D01*
X8631093Y-9255462D01*
X8569907Y-9255462D01*
X8530498Y-9231312D01*
X8459139Y-9159953D01*
X8459135Y-9159950D01*
X8459132Y-9159947D01*
X8459130Y-9159946D01*
X8272737Y-9029434D01*
X8272736Y-9029433D01*
X8272734Y-9029432D01*
X8272731Y-9029430D01*
X8272723Y-9029426D01*
X8166137Y-8979724D01*
X8121389Y-8937996D01*
X8109714Y-8877935D01*
X8135572Y-8822482D01*
X8166137Y-8800276D01*
X8272723Y-8750573D01*
X8272721Y-8750573D01*
X8272734Y-8750568D01*
X8459139Y-8620047D01*
X8530498Y-8548687D01*
X8585013Y-8520912D01*
X8645445Y-8530483D01*
G37*
%TD.AperFunction*%
%TA.AperFunction,NonConductor*%
G36*
X8645444Y-11070482D02*
G01*
X8688709Y-11113746D01*
X8699500Y-11158692D01*
X8699500Y-11701307D01*
X8680593Y-11759498D01*
X8631093Y-11795462D01*
X8569907Y-11795462D01*
X8530498Y-11771312D01*
X8459139Y-11699953D01*
X8459135Y-11699950D01*
X8459132Y-11699947D01*
X8459130Y-11699946D01*
X8272737Y-11569434D01*
X8272736Y-11569433D01*
X8272734Y-11569432D01*
X8272731Y-11569430D01*
X8272723Y-11569426D01*
X8166137Y-11519724D01*
X8121389Y-11477996D01*
X8109714Y-11417935D01*
X8135572Y-11362482D01*
X8166137Y-11340276D01*
X8272723Y-11290573D01*
X8272721Y-11290573D01*
X8272734Y-11290568D01*
X8459139Y-11160047D01*
X8530498Y-11088687D01*
X8585012Y-11060911D01*
X8645444Y-11070482D01*
G37*
%TD.AperFunction*%
%TA.AperFunction,NonConductor*%
G36*
X-1217627Y-12044407D02*
G01*
X-1181663Y-12093907D01*
X-1181663Y-12155093D01*
X-1186093Y-12166339D01*
X-1226741Y-12253507D01*
X-1226742Y-12253510D01*
X-1232056Y-12273344D01*
X-1265381Y-12324658D01*
X-1322503Y-12346583D01*
X-1381603Y-12330746D01*
X-1397686Y-12317723D01*
X-1520905Y-12194504D01*
X-1548682Y-12139987D01*
X-1539111Y-12079555D01*
X-1495846Y-12036290D01*
X-1450901Y-12025500D01*
X-1275818Y-12025500D01*
X-1217627Y-12044407D01*
G37*
%TD.AperFunction*%
%TA.AperFunction,NonConductor*%
G36*
X6078093Y-12044407D02*
G01*
X6089906Y-12054496D01*
X6330792Y-12295382D01*
X6358569Y-12349899D01*
X6356415Y-12391007D01*
X6334364Y-12473307D01*
X6334364Y-12473309D01*
X6314532Y-12699996D01*
X6314532Y-12700003D01*
X6334363Y-12926684D01*
X6334364Y-12926691D01*
X6334365Y-12926692D01*
X6393261Y-13146496D01*
X6421193Y-13206395D01*
X6433907Y-13233661D01*
X6441363Y-13294390D01*
X6411700Y-13347904D01*
X6356247Y-13373762D01*
X6344182Y-13374500D01*
X1275818Y-13374500D01*
X1217627Y-13355593D01*
X1181663Y-13306093D01*
X1181663Y-13244907D01*
X1186093Y-13233661D01*
X1198807Y-13206395D01*
X1226739Y-13146496D01*
X1285635Y-12926692D01*
X1305406Y-12700717D01*
X1305468Y-12700003D01*
X1305468Y-12699996D01*
X1285636Y-12473315D01*
X1285635Y-12473312D01*
X1285635Y-12473308D01*
X1226739Y-12253504D01*
X1186092Y-12166338D01*
X1178637Y-12105610D01*
X1208300Y-12052096D01*
X1263753Y-12026238D01*
X1275818Y-12025500D01*
X6019902Y-12025500D01*
X6078093Y-12044407D01*
G37*
%TD.AperFunction*%
%TA.AperFunction,NonConductor*%
G36*
X8645444Y-13610482D02*
G01*
X8688709Y-13653746D01*
X8699500Y-13698692D01*
X8699500Y-14241307D01*
X8680593Y-14299498D01*
X8631093Y-14335462D01*
X8569907Y-14335462D01*
X8530498Y-14311312D01*
X8459139Y-14239953D01*
X8459135Y-14239950D01*
X8459132Y-14239947D01*
X8459130Y-14239946D01*
X8272737Y-14109434D01*
X8272736Y-14109433D01*
X8272734Y-14109432D01*
X8272731Y-14109430D01*
X8272723Y-14109426D01*
X8166137Y-14059724D01*
X8121389Y-14017996D01*
X8109714Y-13957935D01*
X8135572Y-13902482D01*
X8166137Y-13880276D01*
X8272723Y-13830573D01*
X8272721Y-13830573D01*
X8272734Y-13830568D01*
X8459139Y-13700047D01*
X8530498Y-13628687D01*
X8585012Y-13600911D01*
X8645444Y-13610482D01*
G37*
%TD.AperFunction*%
%TA.AperFunction,NonConductor*%
G36*
X-2060906Y-13423684D02*
G01*
X-1565694Y-13918897D01*
X-1098849Y-14385742D01*
X-1089770Y-14397075D01*
X-1089763Y-14397070D01*
X-1087816Y-14399423D01*
X-1087745Y-14399602D01*
X-1085266Y-14402697D01*
X-1082450Y-14407134D01*
X-1084298Y-14408306D01*
X-1065286Y-14456309D01*
X-1080496Y-14515574D01*
X-1082993Y-14519319D01*
X-1130567Y-14587263D01*
X-1130574Y-14587274D01*
X-1226738Y-14793500D01*
X-1226741Y-14793507D01*
X-1242094Y-14850806D01*
X-1275418Y-14902120D01*
X-1332540Y-14924046D01*
X-1391640Y-14908210D01*
X-1407724Y-14895186D01*
X-2448793Y-13854117D01*
X-2476570Y-13799600D01*
X-2466999Y-13739168D01*
X-2436979Y-13704020D01*
X-2429646Y-13698692D01*
X-2394129Y-13672888D01*
X-2267467Y-13532216D01*
X-2216644Y-13444186D01*
X-2171176Y-13403248D01*
X-2110326Y-13396852D01*
X-2060906Y-13423684D01*
G37*
%TD.AperFunction*%
%TA.AperFunction,NonConductor*%
G36*
X6138094Y-14644407D02*
G01*
X6149899Y-14654489D01*
X6330794Y-14835385D01*
X6358570Y-14889899D01*
X6356416Y-14931008D01*
X6334364Y-15013310D01*
X6314532Y-15239996D01*
X6314532Y-15240003D01*
X6334363Y-15466684D01*
X6334364Y-15466691D01*
X6334365Y-15466692D01*
X6374522Y-15616562D01*
X6393262Y-15686499D01*
X6461885Y-15833661D01*
X6469342Y-15894390D01*
X6439679Y-15947904D01*
X6384226Y-15973762D01*
X6372161Y-15974500D01*
X1247839Y-15974500D01*
X1189648Y-15955593D01*
X1153684Y-15906093D01*
X1153684Y-15844907D01*
X1158115Y-15833661D01*
X1220870Y-15699081D01*
X1226739Y-15686496D01*
X1285635Y-15466692D01*
X1286121Y-15461144D01*
X1305468Y-15240003D01*
X1305468Y-15239996D01*
X1285636Y-15013315D01*
X1285635Y-15013310D01*
X1285635Y-15013308D01*
X1226739Y-14793504D01*
X1214071Y-14766339D01*
X1206615Y-14705610D01*
X1236278Y-14652096D01*
X1291730Y-14626238D01*
X1303796Y-14625500D01*
X6079903Y-14625500D01*
X6138094Y-14644407D01*
G37*
%TD.AperFunction*%
%TA.AperFunction,NonConductor*%
G36*
X8645444Y-16150482D02*
G01*
X8688709Y-16193746D01*
X8699500Y-16238692D01*
X8699500Y-16781307D01*
X8680593Y-16839498D01*
X8631093Y-16875462D01*
X8569907Y-16875462D01*
X8530498Y-16851312D01*
X8459139Y-16779953D01*
X8459135Y-16779950D01*
X8459132Y-16779947D01*
X8459130Y-16779946D01*
X8272737Y-16649434D01*
X8272736Y-16649433D01*
X8272734Y-16649432D01*
X8272731Y-16649430D01*
X8272723Y-16649426D01*
X8166137Y-16599724D01*
X8121389Y-16557996D01*
X8109714Y-16497935D01*
X8135572Y-16442482D01*
X8166137Y-16420276D01*
X8272723Y-16370573D01*
X8272721Y-16370573D01*
X8272734Y-16370568D01*
X8459139Y-16240047D01*
X8530498Y-16168687D01*
X8585012Y-16140911D01*
X8645444Y-16150482D01*
G37*
%TD.AperFunction*%
%TA.AperFunction,NonConductor*%
G36*
X-3563763Y-14520103D02*
G01*
X-3529775Y-14542315D01*
X-2308652Y-15763439D01*
X-1112813Y-16959278D01*
X-1085036Y-17013795D01*
X-1094607Y-17074227D01*
X-1101720Y-17086065D01*
X-1130567Y-17127263D01*
X-1130574Y-17127274D01*
X-1226737Y-17333498D01*
X-1226743Y-17333513D01*
X-1234781Y-17363513D01*
X-1268105Y-17414827D01*
X-1325227Y-17436753D01*
X-1384327Y-17420917D01*
X-1400411Y-17407893D01*
X-2564398Y-16243906D01*
X-3758414Y-15049889D01*
X-3786191Y-14995372D01*
X-3776620Y-14934940D01*
X-3774146Y-14930384D01*
X-3756188Y-14899281D01*
X-3705870Y-14731210D01*
X-3698611Y-14606561D01*
X-3676352Y-14549571D01*
X-3624844Y-14516546D01*
X-3563763Y-14520103D01*
G37*
%TD.AperFunction*%
%TA.AperFunction,NonConductor*%
G36*
X8645445Y-18690483D02*
G01*
X8688710Y-18733748D01*
X8699500Y-18778693D01*
X8699500Y-19321307D01*
X8680593Y-19379498D01*
X8631093Y-19415462D01*
X8569907Y-19415462D01*
X8530498Y-19391312D01*
X8459139Y-19319953D01*
X8459135Y-19319950D01*
X8459132Y-19319947D01*
X8459130Y-19319946D01*
X8272737Y-19189434D01*
X8272736Y-19189433D01*
X8272734Y-19189432D01*
X8272731Y-19189430D01*
X8272723Y-19189426D01*
X8166137Y-19139724D01*
X8121389Y-19097996D01*
X8109714Y-19037935D01*
X8135572Y-18982482D01*
X8166137Y-18960276D01*
X8272723Y-18910573D01*
X8272721Y-18910573D01*
X8272734Y-18910568D01*
X8459139Y-18780047D01*
X8530498Y-18708687D01*
X8585013Y-18680912D01*
X8645445Y-18690483D01*
G37*
%TD.AperFunction*%
%TA.AperFunction,NonConductor*%
G36*
X-692057Y-21423034D02*
G01*
X-652734Y-21450568D01*
X-652733Y-21450568D01*
X-652732Y-21450569D01*
X-652729Y-21450571D01*
X-546137Y-21500276D01*
X-501389Y-21542004D01*
X-489715Y-21602065D01*
X-515573Y-21657518D01*
X-546137Y-21679724D01*
X-652729Y-21729428D01*
X-652730Y-21729429D01*
X-692054Y-21756964D01*
X-750566Y-21774852D01*
X-808418Y-21754931D01*
X-843512Y-21704810D01*
X-847837Y-21675867D01*
X-847837Y-21504132D01*
X-828930Y-21445941D01*
X-779430Y-21409977D01*
X-718244Y-21409977D01*
X-692057Y-21423034D01*
G37*
%TD.AperFunction*%
%TA.AperFunction,NonConductor*%
G36*
X8645445Y-21230483D02*
G01*
X8688710Y-21273748D01*
X8699500Y-21318693D01*
X8699500Y-21861307D01*
X8680593Y-21919498D01*
X8631093Y-21955462D01*
X8569907Y-21955462D01*
X8530498Y-21931312D01*
X8459139Y-21859953D01*
X8459135Y-21859950D01*
X8459132Y-21859947D01*
X8459130Y-21859946D01*
X8272737Y-21729434D01*
X8272736Y-21729433D01*
X8272734Y-21729432D01*
X8272728Y-21729429D01*
X8272723Y-21729426D01*
X8166137Y-21679724D01*
X8121389Y-21637996D01*
X8109714Y-21577935D01*
X8135572Y-21522482D01*
X8166137Y-21500276D01*
X8272723Y-21450573D01*
X8272721Y-21450573D01*
X8272734Y-21450568D01*
X8459139Y-21320047D01*
X8530498Y-21248687D01*
X8585013Y-21220912D01*
X8645445Y-21230483D01*
G37*
%TD.AperFunction*%
%TA.AperFunction,NonConductor*%
G36*
X4109092Y-18044407D02*
G01*
X4145056Y-18093907D01*
X4145056Y-18155093D01*
X4120904Y-18194504D01*
X3214252Y-19101154D01*
X3202915Y-19110238D01*
X3202921Y-19110246D01*
X3198127Y-19114211D01*
X3198123Y-19114214D01*
X3198119Y-19114217D01*
X3198118Y-19114219D01*
X3151304Y-19164069D01*
X3150224Y-19165183D01*
X3129885Y-19185523D01*
X3129875Y-19185534D01*
X3125262Y-19191479D01*
X3122240Y-19195017D01*
X3089939Y-19229416D01*
X3089935Y-19229421D01*
X3079334Y-19248703D01*
X3070813Y-19261676D01*
X3057325Y-19279066D01*
X3038584Y-19322373D01*
X3036532Y-19326560D01*
X3013804Y-19367905D01*
X3013800Y-19367916D01*
X3008332Y-19389212D01*
X3003303Y-19403903D01*
X2994561Y-19424105D01*
X2994560Y-19424108D01*
X2987178Y-19470714D01*
X2986232Y-19475281D01*
X2974501Y-19520973D01*
X2974500Y-19520984D01*
X2974500Y-19542981D01*
X2973281Y-19558469D01*
X2969839Y-19580195D01*
X2974279Y-19627171D01*
X2974499Y-19631831D01*
X2974499Y-21099900D01*
X2955592Y-21158091D01*
X2945503Y-21169904D01*
X1448402Y-22667005D01*
X1393885Y-22694782D01*
X1333453Y-22685211D01*
X1290188Y-22641946D01*
X1282775Y-22622634D01*
X1226739Y-22413504D01*
X1130568Y-22207266D01*
X1000053Y-22020869D01*
X1000052Y-22020867D01*
X1000049Y-22020864D01*
X1000047Y-22020861D01*
X839139Y-21859953D01*
X839135Y-21859950D01*
X839132Y-21859947D01*
X839130Y-21859946D01*
X652737Y-21729434D01*
X652736Y-21729433D01*
X652734Y-21729432D01*
X652728Y-21729429D01*
X652723Y-21729426D01*
X546137Y-21679724D01*
X501389Y-21637996D01*
X489714Y-21577935D01*
X515572Y-21522482D01*
X546137Y-21500276D01*
X652723Y-21450573D01*
X652721Y-21450573D01*
X652734Y-21450568D01*
X839139Y-21320047D01*
X1000047Y-21159139D01*
X1130568Y-20972734D01*
X1226739Y-20766496D01*
X1285635Y-20546692D01*
X1287885Y-20520981D01*
X1305468Y-20320003D01*
X1305468Y-20319996D01*
X1285636Y-20093315D01*
X1285635Y-20093310D01*
X1285635Y-20093308D01*
X1226739Y-19873504D01*
X1217106Y-19852846D01*
X1130573Y-19667276D01*
X1130568Y-19667266D01*
X1124515Y-19658622D01*
X1106625Y-19600111D01*
X1126544Y-19542258D01*
X1155214Y-19516624D01*
X1186420Y-19498170D01*
X1201978Y-19482610D01*
X1213784Y-19472527D01*
X1231587Y-19459594D01*
X1261665Y-19423234D01*
X1264801Y-19419788D01*
X1520520Y-19164069D01*
X1785745Y-18898844D01*
X1797086Y-18889760D01*
X1797080Y-18889753D01*
X1801864Y-18885793D01*
X1801877Y-18885786D01*
X1848739Y-18835882D01*
X1849746Y-18834843D01*
X1870120Y-18814471D01*
X1874738Y-18808516D01*
X1877740Y-18805000D01*
X1910062Y-18770582D01*
X1920661Y-18751299D01*
X1929192Y-18738314D01*
X1942671Y-18720938D01*
X1942673Y-18720936D01*
X1961412Y-18677631D01*
X1963465Y-18673439D01*
X1986196Y-18632094D01*
X1986197Y-18632092D01*
X1991671Y-18610770D01*
X1996699Y-18596087D01*
X2005437Y-18575896D01*
X2012818Y-18529286D01*
X2013756Y-18524754D01*
X2025500Y-18479019D01*
X2025500Y-18457017D01*
X2026719Y-18441528D01*
X2030160Y-18419803D01*
X2029095Y-18408548D01*
X2025718Y-18372830D01*
X2025499Y-18368175D01*
X2025499Y-18300095D01*
X2044406Y-18241906D01*
X2054489Y-18230100D01*
X2230094Y-18054496D01*
X2284612Y-18026719D01*
X2300098Y-18025500D01*
X4050901Y-18025500D01*
X4109092Y-18044407D01*
G37*
%TD.AperFunction*%
%TA.AperFunction,NonConductor*%
G36*
X8645445Y-23770483D02*
G01*
X8688710Y-23813748D01*
X8699500Y-23858693D01*
X8699500Y-24401307D01*
X8680593Y-24459498D01*
X8631093Y-24495462D01*
X8569907Y-24495462D01*
X8530498Y-24471312D01*
X8459139Y-24399953D01*
X8459135Y-24399950D01*
X8459132Y-24399947D01*
X8459130Y-24399946D01*
X8272737Y-24269434D01*
X8272736Y-24269433D01*
X8272734Y-24269432D01*
X8272731Y-24269430D01*
X8272723Y-24269426D01*
X8166137Y-24219724D01*
X8121389Y-24177996D01*
X8109714Y-24117935D01*
X8135572Y-24062482D01*
X8166137Y-24040276D01*
X8272723Y-23990573D01*
X8272721Y-23990573D01*
X8272734Y-23990568D01*
X8459139Y-23860047D01*
X8530498Y-23788687D01*
X8585013Y-23760912D01*
X8645445Y-23770483D01*
G37*
%TD.AperFunction*%
%TA.AperFunction,NonConductor*%
G36*
X3520445Y-22460887D02*
G01*
X3563710Y-22504152D01*
X3574500Y-22549097D01*
X3574499Y-23499900D01*
X3555592Y-23558091D01*
X3545503Y-23569904D01*
X1458498Y-25656909D01*
X1403981Y-25684686D01*
X1343549Y-25675115D01*
X1300284Y-25631850D01*
X1289871Y-25578277D01*
X1305468Y-25400003D01*
X1305468Y-25399996D01*
X1285636Y-25173315D01*
X1285635Y-25173312D01*
X1285635Y-25173308D01*
X1226739Y-24953504D01*
X1161990Y-24814652D01*
X1154534Y-24753923D01*
X1182644Y-24703208D01*
X1182013Y-24702577D01*
X1186420Y-24698170D01*
X1201978Y-24682610D01*
X1213784Y-24672527D01*
X1231587Y-24659594D01*
X1261665Y-24623234D01*
X1264801Y-24619788D01*
X2384689Y-23499900D01*
X3405497Y-22479092D01*
X3460013Y-22451316D01*
X3520445Y-22460887D01*
G37*
%TD.AperFunction*%
%TA.AperFunction,NonConductor*%
G36*
X8645444Y-26310482D02*
G01*
X8688709Y-26353746D01*
X8699500Y-26398692D01*
X8699500Y-26941307D01*
X8680593Y-26999498D01*
X8631093Y-27035462D01*
X8569907Y-27035462D01*
X8530498Y-27011312D01*
X8459139Y-26939953D01*
X8459135Y-26939950D01*
X8459132Y-26939947D01*
X8459130Y-26939946D01*
X8272737Y-26809434D01*
X8272736Y-26809433D01*
X8272734Y-26809432D01*
X8272731Y-26809430D01*
X8272723Y-26809426D01*
X8166137Y-26759724D01*
X8121389Y-26717996D01*
X8109714Y-26657935D01*
X8135572Y-26602482D01*
X8166137Y-26580276D01*
X8272723Y-26530573D01*
X8272721Y-26530573D01*
X8272734Y-26530568D01*
X8459139Y-26400047D01*
X8530498Y-26328687D01*
X8585012Y-26300911D01*
X8645444Y-26310482D01*
G37*
%TD.AperFunction*%
%TA.AperFunction,NonConductor*%
G36*
X-1655496Y-27029094D02*
G01*
X-1498849Y-27185742D01*
X-1489761Y-27197086D01*
X-1489754Y-27197081D01*
X-1485787Y-27201876D01*
X-1435915Y-27248711D01*
X-1434799Y-27249792D01*
X-1419202Y-27265388D01*
X-1414470Y-27270120D01*
X-1412467Y-27271674D01*
X-1408527Y-27274731D01*
X-1404981Y-27277759D01*
X-1370586Y-27310059D01*
X-1370585Y-27310060D01*
X-1370582Y-27310062D01*
X-1351298Y-27320663D01*
X-1338323Y-27329187D01*
X-1320936Y-27342674D01*
X-1320935Y-27342674D01*
X-1320931Y-27342677D01*
X-1277629Y-27361414D01*
X-1273446Y-27363463D01*
X-1270368Y-27365154D01*
X-1269203Y-27365794D01*
X-1227310Y-27410388D01*
X-1219630Y-27471090D01*
X-1225526Y-27489352D01*
X-1225262Y-27489448D01*
X-1226739Y-27493503D01*
X-1265867Y-27639531D01*
X-1299192Y-27690845D01*
X-1356313Y-27712771D01*
X-1415414Y-27696935D01*
X-1431498Y-27683911D01*
X-1795504Y-27319905D01*
X-1823281Y-27265388D01*
X-1824500Y-27249901D01*
X-1824500Y-27099097D01*
X-1805593Y-27040906D01*
X-1756093Y-27004942D01*
X-1694907Y-27004942D01*
X-1655496Y-27029094D01*
G37*
%TD.AperFunction*%
%TA.AperFunction,NonConductor*%
G36*
X4520445Y-24460886D02*
G01*
X4563710Y-24504151D01*
X4574500Y-24549096D01*
X4574500Y-25099901D01*
X4555593Y-25158092D01*
X4545504Y-25169905D01*
X4213579Y-25501830D01*
X1450597Y-28264811D01*
X1396080Y-28292588D01*
X1335648Y-28283017D01*
X1292383Y-28239752D01*
X1282812Y-28179320D01*
X1284962Y-28169201D01*
X1285635Y-28166692D01*
X1305468Y-27940000D01*
X1285635Y-27713308D01*
X1239422Y-27540838D01*
X1242624Y-27479742D01*
X1281130Y-27432192D01*
X1307424Y-27420152D01*
X1319749Y-27416571D01*
X1334961Y-27413421D01*
X1356792Y-27410664D01*
X1356796Y-27410662D01*
X1356798Y-27410662D01*
X1385064Y-27399469D01*
X1400675Y-27393288D01*
X1405067Y-27391784D01*
X1450390Y-27378618D01*
X1469325Y-27367419D01*
X1483265Y-27360589D01*
X1503732Y-27352486D01*
X1541928Y-27324734D01*
X1545785Y-27322200D01*
X1586420Y-27298170D01*
X1601978Y-27282610D01*
X1613784Y-27272527D01*
X1631587Y-27259594D01*
X1661665Y-27223234D01*
X1664801Y-27219788D01*
X2998807Y-25885782D01*
X4405498Y-24479090D01*
X4460013Y-24451315D01*
X4520445Y-24460886D01*
G37*
%TD.AperFunction*%
%TA.AperFunction,NonConductor*%
G36*
X8645444Y-28850482D02*
G01*
X8688709Y-28893746D01*
X8699500Y-28938692D01*
X8699500Y-29481307D01*
X8680593Y-29539498D01*
X8631093Y-29575462D01*
X8569907Y-29575462D01*
X8530498Y-29551312D01*
X8459139Y-29479953D01*
X8459135Y-29479950D01*
X8459132Y-29479947D01*
X8459130Y-29479946D01*
X8272737Y-29349434D01*
X8272736Y-29349433D01*
X8272734Y-29349432D01*
X8272731Y-29349430D01*
X8272723Y-29349426D01*
X8166137Y-29299724D01*
X8121389Y-29257996D01*
X8109714Y-29197935D01*
X8135572Y-29142482D01*
X8166137Y-29120276D01*
X8272723Y-29070573D01*
X8272721Y-29070573D01*
X8272734Y-29070568D01*
X8459139Y-28940047D01*
X8530498Y-28868687D01*
X8585012Y-28840911D01*
X8645444Y-28850482D01*
G37*
%TD.AperFunction*%
%TA.AperFunction,NonConductor*%
G36*
X8645444Y-31390482D02*
G01*
X8688709Y-31433746D01*
X8699500Y-31478692D01*
X8699500Y-32021307D01*
X8680593Y-32079498D01*
X8631093Y-32115462D01*
X8569907Y-32115462D01*
X8530498Y-32091312D01*
X8459139Y-32019953D01*
X8459135Y-32019950D01*
X8459132Y-32019947D01*
X8459130Y-32019946D01*
X8272737Y-31889434D01*
X8272736Y-31889433D01*
X8272734Y-31889432D01*
X8272731Y-31889430D01*
X8272723Y-31889426D01*
X8166137Y-31839724D01*
X8121389Y-31797996D01*
X8109714Y-31737935D01*
X8135572Y-31682482D01*
X8166137Y-31660276D01*
X8272723Y-31610573D01*
X8272721Y-31610573D01*
X8272734Y-31610568D01*
X8459139Y-31480047D01*
X8530498Y-31408687D01*
X8585012Y-31380911D01*
X8645444Y-31390482D01*
G37*
%TD.AperFunction*%
%TA.AperFunction,NonConductor*%
G36*
X-3005497Y-30899094D02*
G01*
X-1289208Y-32615383D01*
X-1261431Y-32669900D01*
X-1263585Y-32711008D01*
X-1285636Y-32793307D01*
X-1285636Y-32793309D01*
X-1305468Y-33019996D01*
X-1305468Y-33020003D01*
X-1295624Y-33132527D01*
X-1309388Y-33192144D01*
X-1355565Y-33232285D01*
X-1416518Y-33237618D01*
X-1464251Y-33211159D01*
X-3145504Y-31529905D01*
X-3173281Y-31475388D01*
X-3174500Y-31459901D01*
X-3174500Y-31319130D01*
X-3174500Y-30969094D01*
X-3155594Y-30910907D01*
X-3106094Y-30874943D01*
X-3044909Y-30874943D01*
X-3005497Y-30899094D01*
G37*
%TD.AperFunction*%
%TA.AperFunction,NonConductor*%
G36*
X8645445Y-33930483D02*
G01*
X8688710Y-33973748D01*
X8699500Y-34018693D01*
X8699500Y-34561307D01*
X8680593Y-34619498D01*
X8631093Y-34655462D01*
X8569907Y-34655462D01*
X8530498Y-34631312D01*
X8459139Y-34559953D01*
X8459135Y-34559950D01*
X8459132Y-34559947D01*
X8459130Y-34559946D01*
X8272737Y-34429434D01*
X8272736Y-34429433D01*
X8272734Y-34429432D01*
X8272731Y-34429430D01*
X8272723Y-34429426D01*
X8166137Y-34379724D01*
X8121389Y-34337996D01*
X8109714Y-34277935D01*
X8135572Y-34222482D01*
X8166137Y-34200276D01*
X8269386Y-34152129D01*
X8272734Y-34150568D01*
X8459139Y-34020047D01*
X8530498Y-33948687D01*
X8585013Y-33920912D01*
X8645445Y-33930483D01*
G37*
%TD.AperFunction*%
%TA.AperFunction,NonConductor*%
G36*
X-4155499Y-32289091D02*
G01*
X-2698923Y-33745667D01*
X-1289208Y-35155382D01*
X-1261431Y-35209899D01*
X-1263585Y-35251007D01*
X-1285636Y-35333307D01*
X-1285636Y-35333309D01*
X-1305468Y-35559996D01*
X-1305468Y-35560003D01*
X-1286037Y-35782113D01*
X-1299801Y-35841730D01*
X-1345978Y-35881871D01*
X-1406931Y-35887204D01*
X-1454664Y-35860745D01*
X-4295504Y-33019905D01*
X-4323281Y-32965388D01*
X-4324500Y-32949901D01*
X-4324500Y-32359097D01*
X-4305593Y-32300906D01*
X-4256093Y-32264942D01*
X-4194907Y-32264942D01*
X-4155499Y-32289091D01*
G37*
%TD.AperFunction*%
%TA.AperFunction,NonConductor*%
G36*
X6217032Y-19803346D02*
G01*
X6228844Y-19813435D01*
X6236790Y-19821381D01*
X6330792Y-19915383D01*
X6358570Y-19969899D01*
X6356416Y-20011008D01*
X6334364Y-20093310D01*
X6314532Y-20319996D01*
X6314532Y-20320003D01*
X6334363Y-20546684D01*
X6334364Y-20546691D01*
X6334365Y-20546692D01*
X6343342Y-20580193D01*
X6393262Y-20766500D01*
X6489426Y-20972723D01*
X6489434Y-20972737D01*
X6619946Y-21159130D01*
X6619947Y-21159132D01*
X6619950Y-21159135D01*
X6619953Y-21159139D01*
X6780861Y-21320047D01*
X6780864Y-21320049D01*
X6780867Y-21320052D01*
X6780869Y-21320053D01*
X6798240Y-21332216D01*
X6967266Y-21450568D01*
X6967267Y-21450568D01*
X6967271Y-21450571D01*
X7073863Y-21500276D01*
X7118611Y-21542004D01*
X7130285Y-21602065D01*
X7104427Y-21657518D01*
X7073863Y-21679724D01*
X6967271Y-21729428D01*
X6967262Y-21729434D01*
X6780869Y-21859946D01*
X6780867Y-21859947D01*
X6619947Y-22020867D01*
X6619946Y-22020869D01*
X6489434Y-22207262D01*
X6489426Y-22207276D01*
X6393262Y-22413499D01*
X6334363Y-22633315D01*
X6314532Y-22859996D01*
X6314532Y-22860003D01*
X6334363Y-23086684D01*
X6393262Y-23306500D01*
X6489426Y-23512723D01*
X6489434Y-23512737D01*
X6619946Y-23699130D01*
X6619947Y-23699132D01*
X6619950Y-23699135D01*
X6619953Y-23699139D01*
X6780861Y-23860047D01*
X6780864Y-23860049D01*
X6780867Y-23860052D01*
X6780869Y-23860053D01*
X6883924Y-23932212D01*
X6967266Y-23990568D01*
X6967267Y-23990568D01*
X6967271Y-23990571D01*
X7073863Y-24040276D01*
X7118611Y-24082004D01*
X7130285Y-24142065D01*
X7104427Y-24197518D01*
X7073863Y-24219724D01*
X6967271Y-24269428D01*
X6967262Y-24269434D01*
X6780869Y-24399946D01*
X6780867Y-24399947D01*
X6619947Y-24560867D01*
X6619946Y-24560869D01*
X6489434Y-24747262D01*
X6489426Y-24747276D01*
X6393262Y-24953499D01*
X6334363Y-25173315D01*
X6314532Y-25399996D01*
X6314532Y-25400003D01*
X6334363Y-25626684D01*
X6334364Y-25626691D01*
X6334365Y-25626692D01*
X6359618Y-25720938D01*
X6393262Y-25846500D01*
X6489426Y-26052723D01*
X6489434Y-26052737D01*
X6619946Y-26239130D01*
X6619947Y-26239132D01*
X6619950Y-26239135D01*
X6619953Y-26239139D01*
X6780861Y-26400047D01*
X6780864Y-26400049D01*
X6780867Y-26400052D01*
X6780869Y-26400053D01*
X6905131Y-26487060D01*
X6967266Y-26530568D01*
X6967267Y-26530568D01*
X6967271Y-26530571D01*
X7073863Y-26580276D01*
X7118611Y-26622004D01*
X7130285Y-26682065D01*
X7104427Y-26737518D01*
X7073863Y-26759724D01*
X6967271Y-26809428D01*
X6967262Y-26809434D01*
X6780869Y-26939946D01*
X6780867Y-26939947D01*
X6619947Y-27100867D01*
X6619946Y-27100869D01*
X6489434Y-27287262D01*
X6489426Y-27287276D01*
X6393262Y-27493499D01*
X6334363Y-27713315D01*
X6314532Y-27939996D01*
X6314532Y-27940003D01*
X6334363Y-28166684D01*
X6393262Y-28386500D01*
X6489426Y-28592723D01*
X6489434Y-28592737D01*
X6619946Y-28779130D01*
X6619947Y-28779132D01*
X6619950Y-28779135D01*
X6619953Y-28779139D01*
X6780861Y-28940047D01*
X6780864Y-28940049D01*
X6780867Y-28940052D01*
X6780869Y-28940053D01*
X6905131Y-29027061D01*
X6967266Y-29070568D01*
X6967267Y-29070568D01*
X6967271Y-29070571D01*
X7073863Y-29120276D01*
X7118611Y-29162004D01*
X7130285Y-29222065D01*
X7104427Y-29277518D01*
X7073863Y-29299724D01*
X6967271Y-29349428D01*
X6967262Y-29349434D01*
X6780869Y-29479946D01*
X6780867Y-29479947D01*
X6619947Y-29640867D01*
X6619946Y-29640869D01*
X6489434Y-29827262D01*
X6489426Y-29827276D01*
X6393262Y-30033499D01*
X6334363Y-30253315D01*
X6314532Y-30479996D01*
X6314532Y-30480003D01*
X6334363Y-30706684D01*
X6334364Y-30706691D01*
X6334365Y-30706692D01*
X6373628Y-30853227D01*
X6393262Y-30926500D01*
X6489426Y-31132723D01*
X6489434Y-31132737D01*
X6619946Y-31319130D01*
X6619947Y-31319132D01*
X6619950Y-31319135D01*
X6619953Y-31319139D01*
X6780861Y-31480047D01*
X6780864Y-31480049D01*
X6780867Y-31480052D01*
X6780869Y-31480053D01*
X6810655Y-31500909D01*
X6967266Y-31610568D01*
X6967267Y-31610568D01*
X6967271Y-31610571D01*
X7073863Y-31660276D01*
X7118611Y-31702004D01*
X7130285Y-31762065D01*
X7104427Y-31817518D01*
X7073863Y-31839724D01*
X6967271Y-31889428D01*
X6967262Y-31889434D01*
X6780869Y-32019946D01*
X6780867Y-32019947D01*
X6619947Y-32180867D01*
X6619946Y-32180869D01*
X6489434Y-32367262D01*
X6489426Y-32367276D01*
X6393262Y-32573499D01*
X6334363Y-32793315D01*
X6314532Y-33019996D01*
X6314532Y-33020003D01*
X6334363Y-33246684D01*
X6393262Y-33466500D01*
X6489426Y-33672723D01*
X6489434Y-33672737D01*
X6619946Y-33859130D01*
X6619947Y-33859132D01*
X6619950Y-33859135D01*
X6619953Y-33859139D01*
X6780861Y-34020047D01*
X6780864Y-34020049D01*
X6780867Y-34020052D01*
X6780869Y-34020053D01*
X6884360Y-34092517D01*
X6967266Y-34150568D01*
X6967267Y-34150568D01*
X6967271Y-34150571D01*
X7073863Y-34200276D01*
X7118611Y-34242004D01*
X7130285Y-34302065D01*
X7104427Y-34357518D01*
X7073863Y-34379724D01*
X6967271Y-34429428D01*
X6967262Y-34429434D01*
X6780869Y-34559946D01*
X6780867Y-34559947D01*
X6619947Y-34720867D01*
X6619946Y-34720869D01*
X6489434Y-34907262D01*
X6489426Y-34907276D01*
X6393262Y-35113499D01*
X6334363Y-35333315D01*
X6314532Y-35559996D01*
X6314532Y-35560003D01*
X6334363Y-35786684D01*
X6393261Y-36006497D01*
X6404646Y-36030912D01*
X6412102Y-36091641D01*
X6382438Y-36145155D01*
X6326985Y-36171012D01*
X6324239Y-36171310D01*
X6292829Y-36174280D01*
X6288167Y-36174500D01*
X1303796Y-36174500D01*
X1245605Y-36155593D01*
X1209641Y-36106093D01*
X1209641Y-36044907D01*
X1214072Y-36033660D01*
X1226739Y-36006496D01*
X1285635Y-35786692D01*
X1305468Y-35560000D01*
X1285635Y-35333308D01*
X1226739Y-35113504D01*
X1226737Y-35113499D01*
X1130573Y-34907276D01*
X1130571Y-34907272D01*
X1130568Y-34907266D01*
X1079500Y-34834332D01*
X1000053Y-34720869D01*
X1000052Y-34720867D01*
X1000049Y-34720864D01*
X1000047Y-34720861D01*
X839139Y-34559953D01*
X839135Y-34559950D01*
X839132Y-34559947D01*
X839130Y-34559946D01*
X652737Y-34429434D01*
X652736Y-34429433D01*
X652734Y-34429432D01*
X652731Y-34429430D01*
X652723Y-34429426D01*
X546137Y-34379724D01*
X501389Y-34337996D01*
X489714Y-34277935D01*
X515572Y-34222482D01*
X546137Y-34200276D01*
X649386Y-34152129D01*
X652734Y-34150568D01*
X839139Y-34020047D01*
X1000047Y-33859139D01*
X1130568Y-33672734D01*
X1226739Y-33466496D01*
X1285635Y-33246692D01*
X1286896Y-33232285D01*
X1305468Y-33020003D01*
X1305468Y-33019996D01*
X1285636Y-32793315D01*
X1285635Y-32793312D01*
X1285635Y-32793308D01*
X1226739Y-32573504D01*
X1130568Y-32367266D01*
X1029659Y-32223152D01*
X1000053Y-32180869D01*
X1000052Y-32180867D01*
X1000049Y-32180864D01*
X1000047Y-32180861D01*
X839139Y-32019953D01*
X839135Y-32019950D01*
X839132Y-32019947D01*
X839130Y-32019946D01*
X652737Y-31889434D01*
X652736Y-31889433D01*
X652734Y-31889432D01*
X652731Y-31889430D01*
X652723Y-31889426D01*
X546137Y-31839724D01*
X501389Y-31797996D01*
X489714Y-31737935D01*
X515572Y-31682482D01*
X546137Y-31660276D01*
X652723Y-31610573D01*
X652721Y-31610573D01*
X652734Y-31610568D01*
X839139Y-31480047D01*
X1000047Y-31319139D01*
X1130568Y-31132734D01*
X1226739Y-30926496D01*
X1285635Y-30706692D01*
X1305468Y-30480000D01*
X1285635Y-30253308D01*
X1226739Y-30033504D01*
X1195418Y-29966338D01*
X1187963Y-29905610D01*
X1217626Y-29852096D01*
X1273079Y-29826238D01*
X1285144Y-29825500D01*
X1320017Y-29825500D01*
X1334470Y-29827095D01*
X1334471Y-29827087D01*
X1340666Y-29827672D01*
X1340667Y-29827673D01*
X1340667Y-29827672D01*
X1340668Y-29827673D01*
X1344210Y-29827561D01*
X1409067Y-29825523D01*
X1410587Y-29825500D01*
X1439343Y-29825500D01*
X1439350Y-29825500D01*
X1445160Y-29824765D01*
X1446813Y-29824557D01*
X1451459Y-29824190D01*
X1498627Y-29822709D01*
X1519751Y-29816570D01*
X1534961Y-29813421D01*
X1556792Y-29810664D01*
X1556796Y-29810662D01*
X1556798Y-29810662D01*
X1585064Y-29799469D01*
X1600675Y-29793288D01*
X1605067Y-29791784D01*
X1650390Y-29778618D01*
X1669325Y-29767419D01*
X1683265Y-29760589D01*
X1703732Y-29752486D01*
X1741928Y-29724734D01*
X1745785Y-29722200D01*
X1786420Y-29698170D01*
X1801978Y-29682610D01*
X1813784Y-29672527D01*
X1831587Y-29659594D01*
X1861665Y-29623234D01*
X1864801Y-29619788D01*
X2643678Y-28840911D01*
X5070120Y-26414471D01*
X5070123Y-26414467D01*
X5585746Y-25898843D01*
X5597086Y-25889760D01*
X5597080Y-25889753D01*
X5601864Y-25885793D01*
X5601877Y-25885786D01*
X5648739Y-25835882D01*
X5649746Y-25834843D01*
X5670120Y-25814471D01*
X5674738Y-25808516D01*
X5677740Y-25805000D01*
X5710062Y-25770582D01*
X5720661Y-25751299D01*
X5729192Y-25738314D01*
X5742671Y-25720938D01*
X5742673Y-25720936D01*
X5761412Y-25677631D01*
X5763465Y-25673439D01*
X5786196Y-25632094D01*
X5786259Y-25631850D01*
X5791671Y-25610770D01*
X5796699Y-25596087D01*
X5805437Y-25575896D01*
X5812818Y-25529286D01*
X5813756Y-25524754D01*
X5825500Y-25479019D01*
X5825500Y-25457016D01*
X5826719Y-25441529D01*
X5826801Y-25441007D01*
X5830160Y-25419804D01*
X5827604Y-25392765D01*
X5825720Y-25372828D01*
X5825500Y-25368167D01*
X5825500Y-21489089D01*
X5844407Y-21430898D01*
X5850929Y-21422845D01*
X5932533Y-21332216D01*
X6027179Y-21168284D01*
X6085674Y-20988256D01*
X6105460Y-20800000D01*
X6085674Y-20611744D01*
X6027179Y-20431716D01*
X6027176Y-20431711D01*
X6027174Y-20431706D01*
X5956881Y-20309957D01*
X5932533Y-20267784D01*
X5932532Y-20267783D01*
X5932531Y-20267781D01*
X5931149Y-20266246D01*
X5930725Y-20265295D01*
X5929479Y-20263579D01*
X5929843Y-20263314D01*
X5906261Y-20210352D01*
X5918980Y-20150503D01*
X5931149Y-20133754D01*
X5932531Y-20132218D01*
X5932530Y-20132218D01*
X5932533Y-20132216D01*
X6009349Y-19999166D01*
X6027174Y-19968293D01*
X6027174Y-19968291D01*
X6027179Y-19968284D01*
X6064688Y-19852842D01*
X6100650Y-19803346D01*
X6158841Y-19784439D01*
X6217032Y-19803346D01*
G37*
%TD.AperFunction*%
%TA.AperFunction,NonConductor*%
G36*
X8645445Y-36470483D02*
G01*
X8688710Y-36513748D01*
X8699500Y-36558693D01*
X8699500Y-37101307D01*
X8680593Y-37159498D01*
X8631093Y-37195462D01*
X8569907Y-37195462D01*
X8530498Y-37171312D01*
X8459139Y-37099953D01*
X8459135Y-37099950D01*
X8459132Y-37099947D01*
X8459130Y-37099946D01*
X8272737Y-36969434D01*
X8272727Y-36969428D01*
X8166136Y-36919723D01*
X8121388Y-36877995D01*
X8109714Y-36817933D01*
X8135572Y-36762481D01*
X8166131Y-36740277D01*
X8272734Y-36690568D01*
X8459139Y-36560047D01*
X8530498Y-36488687D01*
X8585013Y-36460912D01*
X8645445Y-36470483D01*
G37*
%TD.AperFunction*%
M02*
