%TF.GenerationSoftware,KiCad,Pcbnew,7.0.5*%
%TF.CreationDate,2023-06-05T13:48:53-07:00*%
%TF.ProjectId,M7700,4d373730-302e-46b6-9963-61645f706362,rev?*%
%TF.SameCoordinates,PX7bfa480PY459e440*%
%TF.FileFunction,Copper,L2,Bot*%
%TF.FilePolarity,Positive*%
%FSLAX46Y46*%
G04 Gerber Fmt 4.6, Leading zero omitted, Abs format (unit mm)*
G04 Created by KiCad (PCBNEW 7.0.5) date 2023-06-05 13:48:53*
%MOMM*%
%LPD*%
G01*
G04 APERTURE LIST*
%TA.AperFunction,ComponentPad*%
%ADD10R,1.600000X1.600000*%
%TD*%
%TA.AperFunction,ComponentPad*%
%ADD11C,1.600000*%
%TD*%
%TA.AperFunction,ComponentPad*%
%ADD12O,1.600000X1.600000*%
%TD*%
%TA.AperFunction,ViaPad*%
%ADD13C,0.800000*%
%TD*%
%TA.AperFunction,Conductor*%
%ADD14C,0.250000*%
%TD*%
%TA.AperFunction,Conductor*%
%ADD15C,1.000000*%
%TD*%
%TA.AperFunction,Conductor*%
%ADD16C,0.500000*%
%TD*%
G04 APERTURE END LIST*
D10*
%TO.P,X1,1,EN*%
%TO.N,unconnected-(X1-EN-Pad1)*%
X-9000000Y-35000000D03*
D11*
%TO.P,X1,4,GND*%
%TO.N,GND*%
X-9000000Y-27380000D03*
%TO.P,X1,5,OUT*%
%TO.N,Net-(U2-XIN)*%
X-16620000Y-27380000D03*
%TO.P,X1,8,Vcc*%
%TO.N,VCC*%
X-16620000Y-35000000D03*
%TD*%
D12*
%TO.P,U1,32,VCC*%
%TO.N,VCC*%
X7620000Y0D03*
%TO.P,U1,31,~{PGM}*%
%TO.N,/!PGM*%
X7620000Y-2540000D03*
%TO.P,U1,30*%
%TO.N,N/C*%
X7620000Y-5080000D03*
%TO.P,U1,29,A14*%
%TO.N,/A14*%
X7620000Y-7620000D03*
%TO.P,U1,28,A13*%
%TO.N,/A13*%
X7620000Y-10160000D03*
%TO.P,U1,27,A8*%
%TO.N,/A8*%
X7620000Y-12700000D03*
%TO.P,U1,26,A9*%
%TO.N,/A9*%
X7620000Y-15240000D03*
%TO.P,U1,25,A11*%
%TO.N,/A11*%
X7620000Y-17780000D03*
%TO.P,U1,24,~{OE}*%
%TO.N,/!OE*%
X7620000Y-20320000D03*
%TO.P,U1,23,A10*%
%TO.N,/A10*%
X7620000Y-22860000D03*
%TO.P,U1,22,~{CE}*%
%TO.N,/!CE*%
X7620000Y-25400000D03*
%TO.P,U1,21,D7*%
%TO.N,/D7*%
X7620000Y-27940000D03*
%TO.P,U1,20,D6*%
%TO.N,/D6*%
X7620000Y-30480000D03*
%TO.P,U1,19,D5*%
%TO.N,/D5*%
X7620000Y-33020000D03*
%TO.P,U1,18,D4*%
%TO.N,/D4*%
X7620000Y-35560000D03*
%TO.P,U1,17,D3*%
%TO.N,/D3*%
X7620000Y-38100000D03*
%TO.P,U1,16,GND*%
%TO.N,GND*%
X0Y-38100000D03*
%TO.P,U1,15,D2*%
%TO.N,/D2*%
X0Y-35560000D03*
%TO.P,U1,14,D1*%
%TO.N,/D1*%
X0Y-33020000D03*
%TO.P,U1,13,D0*%
%TO.N,/D0*%
X0Y-30480000D03*
%TO.P,U1,12,A0*%
%TO.N,/A0*%
X0Y-27940000D03*
%TO.P,U1,11,A1*%
%TO.N,/A1*%
X0Y-25400000D03*
%TO.P,U1,10,A2*%
%TO.N,/A2*%
X0Y-22860000D03*
%TO.P,U1,9,A3*%
%TO.N,/A3*%
X0Y-20320000D03*
%TO.P,U1,8,A4*%
%TO.N,/A4*%
X0Y-17780000D03*
%TO.P,U1,7,A5*%
%TO.N,/A5*%
X0Y-15240000D03*
%TO.P,U1,6,A6*%
%TO.N,/A6*%
X0Y-12700000D03*
%TO.P,U1,5,A7*%
%TO.N,/A7*%
X0Y-10160000D03*
%TO.P,U1,4,A12*%
%TO.N,/A12*%
X0Y-7620000D03*
%TO.P,U1,3,A15*%
%TO.N,/A15*%
X0Y-5080000D03*
%TO.P,U1,2,A16*%
%TO.N,unconnected-(U1-A16-Pad2)*%
X0Y-2540000D03*
D10*
%TO.P,U1,1,VPP*%
%TO.N,/VPP*%
X0Y0D03*
%TD*%
D13*
%TO.N,VCC*%
X-19600000Y-12200000D03*
X-18800000Y-11400000D03*
X-19600000Y-10600000D03*
X-11000000Y-2200000D03*
X-10200000Y-1400000D03*
%TO.N,/VPP*%
X-12600000Y-16000000D03*
%TO.N,/!PGM*%
X-11124500Y-14600000D03*
%TO.N,/A15*%
X5200000Y-20800000D03*
%TO.N,/A14*%
X5200000Y-19600000D03*
%TO.N,/A13*%
X5200000Y-18400000D03*
%TO.N,/!OE*%
X-6400000Y-16200000D03*
X-698337Y-19049810D03*
%TO.N,/A12*%
X-7200000Y-14600000D03*
%TO.N,/A0*%
X-6400000Y-5000000D03*
%TO.N,/A5*%
X-6600000Y-9800000D03*
%TO.N,/A1*%
X-7200000Y-5800000D03*
%TO.N,/A2*%
X-6400000Y-6600000D03*
%TO.N,/A3*%
X-7200000Y-7400000D03*
%TO.N,/A4*%
X-6400000Y-8200000D03*
%TO.N,/A6*%
X-3400000Y-9800000D03*
%TO.N,/A10*%
X-3000000Y-13000000D03*
%TO.N,/!CE*%
X-11849000Y-13000000D03*
%TO.N,/D7*%
X-9400000Y-24200000D03*
%TO.N,/D6*%
X-8600000Y-23400000D03*
%TO.N,/D5*%
X-7800000Y-24200000D03*
%TO.N,/D4*%
X-7000000Y-23400000D03*
%TD*%
D14*
%TO.N,/!OE*%
X-698337Y-19049810D02*
X-3550190Y-19049810D01*
X-3550190Y-19049810D02*
X-6400000Y-16200000D01*
D15*
%TO.N,VCC*%
X-19600000Y-32020000D02*
X-19600000Y-12200000D01*
X-16620000Y-35000000D02*
X-19600000Y-32020000D01*
D16*
X6000000Y0D02*
X7620000Y0D01*
X4700000Y1300000D02*
X6000000Y0D01*
X-1500000Y1300000D02*
X4700000Y1300000D01*
X-2800000Y0D02*
X-1500000Y1300000D01*
D15*
X-8800000Y0D02*
X-2800000Y0D01*
X-10200000Y-1400000D02*
X-8800000Y0D01*
X-11000000Y-2200000D02*
X-10200000Y-1400000D01*
X-11000000Y-3600000D02*
X-11000000Y-2200000D01*
X-18800000Y-11400000D02*
X-11000000Y-3600000D01*
X-18800000Y-11400000D02*
X-19600000Y-10600000D01*
X-19600000Y-12200000D02*
X-18800000Y-11400000D01*
D14*
%TO.N,/VPP*%
X-8200000Y-3200000D02*
X-3200000Y-3200000D01*
X-3200000Y-3200000D02*
X0Y0D01*
X-12600000Y-7600000D02*
X-8200000Y-3200000D01*
X-12600000Y-16000000D02*
X-12600000Y-7600000D01*
%TO.N,/!CE*%
X3820000Y-29200000D02*
X7620000Y-25400000D01*
X-4400000Y-22600000D02*
X-4400000Y-26000000D01*
X-4400000Y-26000000D02*
X-1200000Y-29200000D01*
X-1200000Y-29200000D02*
X3820000Y-29200000D01*
X-11849000Y-15151000D02*
X-4400000Y-22600000D01*
X-11849000Y-13000000D02*
X-11849000Y-15151000D01*
%TO.N,/!PGM*%
X1200000Y-3800000D02*
X2460000Y-2540000D01*
X-7800000Y-3800000D02*
X1200000Y-3800000D01*
X-11124500Y-7124500D02*
X-7800000Y-3800000D01*
X2460000Y-2540000D02*
X7620000Y-2540000D01*
X-11124500Y-14600000D02*
X-11124500Y-7124500D01*
%TO.N,/A15*%
X3600000Y-19200000D02*
X3600000Y-8680000D01*
X3600000Y-8680000D02*
X0Y-5080000D01*
X5200000Y-20800000D02*
X3600000Y-19200000D01*
%TO.N,/A14*%
X4400000Y-10840000D02*
X7620000Y-7620000D01*
X4400000Y-18800000D02*
X4400000Y-10840000D01*
X5200000Y-19600000D02*
X4400000Y-18800000D01*
%TO.N,/A13*%
X5200000Y-12580000D02*
X7620000Y-10160000D01*
X5200000Y-18400000D02*
X5200000Y-12580000D01*
%TO.N,/A4*%
X-8000000Y-9000000D02*
X-7200000Y-8200000D01*
X-7200000Y-8200000D02*
X-6400000Y-8200000D01*
X-110000Y-17780000D02*
X-2490000Y-15400000D01*
X-7600000Y-15400000D02*
X-8000000Y-15000000D01*
X-8000000Y-15000000D02*
X-8000000Y-9000000D01*
X0Y-17780000D02*
X-110000Y-17780000D01*
X-2490000Y-15400000D02*
X-7600000Y-15400000D01*
%TO.N,/A12*%
X-7000000Y-9000000D02*
X-1380000Y-9000000D01*
X-1380000Y-9000000D02*
X0Y-7620000D01*
X-7400000Y-14400000D02*
X-7400000Y-9400000D01*
X-7400000Y-9400000D02*
X-7000000Y-9000000D01*
X-7200000Y-14600000D02*
X-7400000Y-14400000D01*
%TO.N,/A5*%
X-2400000Y-11800000D02*
X-1600000Y-12600000D01*
X-5174695Y-9800000D02*
X-3174695Y-11800000D01*
X-1600000Y-13640000D02*
X0Y-15240000D01*
X-3174695Y-11800000D02*
X-2400000Y-11800000D01*
X-1600000Y-12600000D02*
X-1600000Y-13640000D01*
X-6600000Y-9800000D02*
X-5174695Y-9800000D01*
%TO.N,/A3*%
X-7500000Y-7400000D02*
X-7200000Y-7400000D01*
X-8600000Y-8500000D02*
X-7500000Y-7400000D01*
X-8600000Y-15200000D02*
X-8600000Y-8500000D01*
X-3480000Y-20320000D02*
X-8600000Y-15200000D01*
X0Y-20320000D02*
X-3480000Y-20320000D01*
%TO.N,/A2*%
X-7800000Y-6600000D02*
X-6400000Y-6600000D01*
X-9200000Y-8000000D02*
X-7800000Y-6600000D01*
X-1740000Y-22860000D02*
X-9200000Y-15400000D01*
X-9200000Y-15400000D02*
X-9200000Y-8000000D01*
X0Y-22860000D02*
X-1740000Y-22860000D01*
%TO.N,/A1*%
X-8000000Y-5800000D02*
X-7200000Y-5800000D01*
X-9800000Y-15600000D02*
X-9800000Y-7600000D01*
X0Y-25400000D02*
X-9800000Y-15600000D01*
X-9800000Y-7600000D02*
X-8000000Y-5800000D01*
%TO.N,/A0*%
X-8200000Y-5000000D02*
X-6400000Y-5000000D01*
X-10400000Y-15800000D02*
X-10400000Y-7200000D01*
X-3800000Y-22400000D02*
X-10400000Y-15800000D01*
X-3800000Y-24140000D02*
X-3800000Y-22400000D01*
X0Y-27940000D02*
X-3800000Y-24140000D01*
X-10400000Y-7200000D02*
X-8200000Y-5000000D01*
%TO.N,/D7*%
X-5000000Y-27800000D02*
X-1000000Y-31800000D01*
X-5000000Y-22800000D02*
X-5000000Y-27800000D01*
X3760000Y-31800000D02*
X7620000Y-27940000D01*
X-6400000Y-21400000D02*
X-5000000Y-22800000D01*
X-7800000Y-21400000D02*
X-6400000Y-21400000D01*
X-9400000Y-23000000D02*
X-7800000Y-21400000D01*
X-1000000Y-31800000D02*
X3760000Y-31800000D01*
X-9400000Y-24200000D02*
X-9400000Y-23000000D01*
%TO.N,/D6*%
X-1200000Y-34200000D02*
X3900000Y-34200000D01*
X3900000Y-34200000D02*
X7620000Y-30480000D01*
X-7600000Y-22000000D02*
X-6600000Y-22000000D01*
X-8600000Y-23000000D02*
X-7600000Y-22000000D01*
X-6600000Y-22000000D02*
X-5600000Y-23000000D01*
X-8600000Y-23400000D02*
X-8600000Y-23000000D01*
X-5600000Y-23000000D02*
X-5600000Y-29800000D01*
X-5600000Y-29800000D02*
X-1200000Y-34200000D01*
%TO.N,/D5*%
X3840000Y-36800000D02*
X7620000Y-33020000D01*
X-6200000Y-32000000D02*
X-1400000Y-36800000D01*
X-1400000Y-36800000D02*
X3840000Y-36800000D01*
X-7225305Y-22600000D02*
X-6774695Y-22600000D01*
X-7800000Y-23174695D02*
X-7225305Y-22600000D01*
X-6200000Y-23174695D02*
X-6200000Y-32000000D01*
X-7800000Y-24200000D02*
X-7800000Y-23174695D01*
X-6774695Y-22600000D02*
X-6200000Y-23174695D01*
%TO.N,/D4*%
X3780000Y-39400000D02*
X7620000Y-35560000D01*
X-400000Y-39400000D02*
X3780000Y-39400000D01*
X-7000000Y-32800000D02*
X-400000Y-39400000D01*
X-7000000Y-23400000D02*
X-7000000Y-32800000D01*
%TO.N,/A6*%
X-2900000Y-9800000D02*
X0Y-12700000D01*
X-3400000Y-9800000D02*
X-2900000Y-9800000D01*
%TO.N,/A10*%
X-3000000Y-14000000D02*
X-3000000Y-13000000D01*
X-400000Y-16600000D02*
X-3000000Y-14000000D01*
X600000Y-16600000D02*
X-400000Y-16600000D01*
X1400000Y-17400000D02*
X600000Y-16600000D01*
X1400000Y-19800000D02*
X1400000Y-17400000D01*
X4460000Y-22860000D02*
X1400000Y-19800000D01*
X7620000Y-22860000D02*
X4460000Y-22860000D01*
%TD*%
%TA.AperFunction,NonConductor*%
G36*
X7891206Y1679815D02*
G01*
X7911848Y1663181D01*
X8124203Y1450826D01*
X8157688Y1389503D01*
X8152704Y1319811D01*
X8110832Y1263878D01*
X8045368Y1239461D01*
X8004429Y1243370D01*
X7846697Y1285634D01*
X7846693Y1285635D01*
X7846692Y1285635D01*
X7846691Y1285636D01*
X7846686Y1285636D01*
X7620002Y1305468D01*
X7619998Y1305468D01*
X7393313Y1285636D01*
X7393302Y1285634D01*
X7173511Y1226742D01*
X7173502Y1226739D01*
X6967267Y1130569D01*
X6967265Y1130568D01*
X6780858Y1000046D01*
X6619954Y839142D01*
X6594912Y803377D01*
X6540335Y759752D01*
X6493337Y750500D01*
X6362229Y750500D01*
X6295190Y770185D01*
X6274548Y786819D01*
X5573549Y1487819D01*
X5540064Y1549142D01*
X5545048Y1618834D01*
X5586920Y1674767D01*
X5652384Y1699184D01*
X5661230Y1699500D01*
X7824167Y1699500D01*
X7891206Y1679815D01*
G37*
%TD.AperFunction*%
%TA.AperFunction,NonConductor*%
G36*
X8618832Y-942866D02*
G01*
X8674766Y-984736D01*
X8699184Y-1050200D01*
X8699500Y-1059048D01*
X8699500Y-1480951D01*
X8679815Y-1547990D01*
X8627011Y-1593745D01*
X8557853Y-1603689D01*
X8494297Y-1574664D01*
X8487819Y-1568632D01*
X8459141Y-1539954D01*
X8272734Y-1409432D01*
X8272728Y-1409429D01*
X8214725Y-1382382D01*
X8162285Y-1336210D01*
X8143133Y-1269017D01*
X8163348Y-1202135D01*
X8214725Y-1157618D01*
X8272734Y-1130568D01*
X8459139Y-1000047D01*
X8487819Y-971366D01*
X8549140Y-937882D01*
X8618832Y-942866D01*
G37*
%TD.AperFunction*%
%TA.AperFunction,NonConductor*%
G36*
X4404809Y529815D02*
G01*
X4425451Y513181D01*
X5424267Y-485634D01*
X5436048Y-499266D01*
X5450390Y-518530D01*
X5490420Y-552119D01*
X5494392Y-555759D01*
X5497312Y-558679D01*
X5500221Y-561589D01*
X5525250Y-581379D01*
X5526646Y-582517D01*
X5584786Y-631302D01*
X5584787Y-631302D01*
X5584789Y-631304D01*
X5590818Y-635270D01*
X5590785Y-635319D01*
X5597143Y-639369D01*
X5597175Y-639319D01*
X5603317Y-643107D01*
X5603319Y-643108D01*
X5603323Y-643111D01*
X5672132Y-675197D01*
X5673754Y-675983D01*
X5741567Y-710040D01*
X5741569Y-710040D01*
X5748361Y-712513D01*
X5748340Y-712570D01*
X5755455Y-715043D01*
X5755475Y-714986D01*
X5762324Y-717256D01*
X5762327Y-717256D01*
X5762328Y-717257D01*
X5836705Y-732613D01*
X5838414Y-732993D01*
X5862415Y-738681D01*
X5912273Y-750499D01*
X5912276Y-750499D01*
X5912279Y-750500D01*
X5912282Y-750500D01*
X5919452Y-751338D01*
X5919444Y-751397D01*
X5926945Y-752164D01*
X5926951Y-752105D01*
X5934140Y-752734D01*
X5934144Y-752733D01*
X5934145Y-752734D01*
X5962230Y-751916D01*
X6010033Y-750526D01*
X6011836Y-750500D01*
X6493337Y-750500D01*
X6560376Y-770185D01*
X6594912Y-803377D01*
X6619954Y-839141D01*
X6780858Y-1000045D01*
X6780861Y-1000047D01*
X6967266Y-1130568D01*
X7025275Y-1157618D01*
X7077714Y-1203791D01*
X7096866Y-1270984D01*
X7076650Y-1337865D01*
X7025275Y-1382382D01*
X6967267Y-1409431D01*
X6967265Y-1409432D01*
X6780858Y-1539954D01*
X6619954Y-1700858D01*
X6507387Y-1861623D01*
X6452811Y-1905248D01*
X6405812Y-1914500D01*
X2542738Y-1914500D01*
X2527121Y-1912776D01*
X2527094Y-1913062D01*
X2519332Y-1912327D01*
X2451172Y-1914469D01*
X2449225Y-1914500D01*
X2420650Y-1914500D01*
X2419929Y-1914590D01*
X2413757Y-1915369D01*
X2407945Y-1915826D01*
X2361373Y-1917290D01*
X2361372Y-1917290D01*
X2342129Y-1922881D01*
X2323079Y-1926825D01*
X2303211Y-1929334D01*
X2259884Y-1946488D01*
X2254358Y-1948379D01*
X2209614Y-1961379D01*
X2209610Y-1961381D01*
X2192366Y-1971579D01*
X2174905Y-1980133D01*
X2156274Y-1987510D01*
X2156262Y-1987517D01*
X2118570Y-2014902D01*
X2113687Y-2018109D01*
X2073580Y-2041829D01*
X2059414Y-2055995D01*
X2044624Y-2068627D01*
X2028414Y-2080404D01*
X2028411Y-2080407D01*
X1998710Y-2116309D01*
X1994777Y-2120631D01*
X1515217Y-2600190D01*
X1453894Y-2633675D01*
X1384202Y-2628691D01*
X1328269Y-2586819D01*
X1304008Y-2523316D01*
X1299890Y-2476243D01*
X1285635Y-2313308D01*
X1226739Y-2093504D01*
X1130568Y-1887266D01*
X1000047Y-1700861D01*
X1000045Y-1700858D01*
X839143Y-1539956D01*
X814536Y-1522726D01*
X770912Y-1468149D01*
X763719Y-1398650D01*
X795241Y-1336296D01*
X855471Y-1300882D01*
X872404Y-1297861D01*
X907483Y-1294091D01*
X1042331Y-1243796D01*
X1157546Y-1157546D01*
X1243796Y-1042331D01*
X1294091Y-907483D01*
X1300500Y-847873D01*
X1300499Y425501D01*
X1320184Y492539D01*
X1372987Y538294D01*
X1424499Y549500D01*
X4337770Y549500D01*
X4404809Y529815D01*
G37*
%TD.AperFunction*%
%TA.AperFunction,NonConductor*%
G36*
X-1381805Y-2368907D02*
G01*
X-1325871Y-2410778D01*
X-1301454Y-2476243D01*
X-1301610Y-2495895D01*
X-1305468Y-2539996D01*
X-1305468Y-2540001D01*
X-1285636Y-2766686D01*
X-1285634Y-2766697D01*
X-1226742Y-2986488D01*
X-1226739Y-2986497D01*
X-1221330Y-2998095D01*
X-1210838Y-3067172D01*
X-1239357Y-3130956D01*
X-1297834Y-3169196D01*
X-1333712Y-3174500D01*
X-1990548Y-3174500D01*
X-2057587Y-3154815D01*
X-2103342Y-3102011D01*
X-2113286Y-3032853D01*
X-2084261Y-2969297D01*
X-2078229Y-2962819D01*
X-1817239Y-2701829D01*
X-1512817Y-2397406D01*
X-1451496Y-2363923D01*
X-1381805Y-2368907D01*
G37*
%TD.AperFunction*%
%TA.AperFunction,NonConductor*%
G36*
X-1381166Y254954D02*
G01*
X-1325233Y213082D01*
X-1300816Y147618D01*
X-1300500Y138772D01*
X-1300501Y-364546D01*
X-1320186Y-431586D01*
X-1336820Y-452227D01*
X-3422772Y-2538181D01*
X-3484095Y-2571666D01*
X-3510453Y-2574500D01*
X-8117257Y-2574500D01*
X-8132878Y-2572775D01*
X-8132905Y-2573061D01*
X-8140667Y-2572326D01*
X-8208860Y-2574469D01*
X-8210807Y-2574500D01*
X-8239351Y-2574500D01*
X-8246222Y-2575367D01*
X-8252041Y-2575825D01*
X-8298626Y-2577289D01*
X-8298632Y-2577290D01*
X-8317874Y-2582880D01*
X-8336913Y-2586823D01*
X-8356783Y-2589334D01*
X-8356797Y-2589337D01*
X-8400117Y-2606488D01*
X-8405642Y-2608380D01*
X-8450387Y-2621380D01*
X-8450390Y-2621381D01*
X-8467634Y-2631579D01*
X-8485095Y-2640133D01*
X-8503726Y-2647510D01*
X-8503738Y-2647517D01*
X-8541430Y-2674902D01*
X-8546313Y-2678109D01*
X-8586420Y-2701829D01*
X-8600586Y-2715995D01*
X-8615376Y-2728627D01*
X-8631586Y-2740404D01*
X-8631589Y-2740407D01*
X-8661290Y-2776309D01*
X-8665223Y-2780631D01*
X-9810999Y-3926407D01*
X-9872322Y-3959892D01*
X-9942014Y-3954908D01*
X-9997947Y-3913036D01*
X-10022364Y-3847572D01*
X-10017894Y-3804610D01*
X-10010113Y-3777418D01*
X-10007505Y-3743160D01*
X-10006413Y-3735376D01*
X-9999500Y-3701739D01*
X-9999500Y-3640401D01*
X-9999321Y-3635692D01*
X-9994663Y-3574524D01*
X-9994663Y-3574523D01*
X-9999005Y-3540429D01*
X-9999501Y-3532618D01*
X-9999501Y-2665780D01*
X-9979816Y-2598742D01*
X-9963187Y-2578105D01*
X-9574691Y-2189610D01*
X-9574686Y-2189606D01*
X-9564483Y-2179402D01*
X-9564481Y-2179402D01*
X-8421899Y-1036818D01*
X-8360576Y-1003334D01*
X-8334218Y-1000500D01*
X-2749257Y-1000500D01*
X-2597561Y-985074D01*
X-2403421Y-924162D01*
X-2403420Y-924161D01*
X-2403412Y-924159D01*
X-2225498Y-825409D01*
X-2071105Y-692866D01*
X-1946552Y-531958D01*
X-1856940Y-349271D01*
X-1805937Y-152285D01*
X-1803815Y-110420D01*
X-1780761Y-44465D01*
X-1767661Y-29027D01*
X-1512180Y226454D01*
X-1450858Y259938D01*
X-1381166Y254954D01*
G37*
%TD.AperFunction*%
%TA.AperFunction,NonConductor*%
G36*
X8618832Y-3482866D02*
G01*
X8674766Y-3524736D01*
X8699184Y-3590200D01*
X8699500Y-3599048D01*
X8699500Y-4020951D01*
X8679815Y-4087990D01*
X8627011Y-4133745D01*
X8557853Y-4143689D01*
X8494297Y-4114664D01*
X8487819Y-4108632D01*
X8459141Y-4079954D01*
X8272734Y-3949432D01*
X8272728Y-3949429D01*
X8214725Y-3922382D01*
X8162285Y-3876210D01*
X8143133Y-3809017D01*
X8163348Y-3742135D01*
X8214725Y-3697618D01*
X8272734Y-3670568D01*
X8459139Y-3540047D01*
X8487819Y-3511366D01*
X8549140Y-3477882D01*
X8618832Y-3482866D01*
G37*
%TD.AperFunction*%
%TA.AperFunction,NonConductor*%
G36*
X8618834Y-6022867D02*
G01*
X8674767Y-6064739D01*
X8699184Y-6130203D01*
X8699500Y-6139049D01*
X8699500Y-6560951D01*
X8679815Y-6627990D01*
X8627011Y-6673745D01*
X8557853Y-6683689D01*
X8494297Y-6654664D01*
X8487819Y-6648632D01*
X8459141Y-6619954D01*
X8272734Y-6489432D01*
X8272728Y-6489429D01*
X8214725Y-6462382D01*
X8162285Y-6416210D01*
X8143133Y-6349017D01*
X8163348Y-6282135D01*
X8214725Y-6237618D01*
X8227384Y-6231715D01*
X8272734Y-6210568D01*
X8459139Y-6080047D01*
X8471402Y-6067784D01*
X8487819Y-6051368D01*
X8549142Y-6017883D01*
X8618834Y-6022867D01*
G37*
%TD.AperFunction*%
%TA.AperFunction,NonConductor*%
G36*
X-1257347Y-4445185D02*
G01*
X-1211592Y-4497989D01*
X-1201648Y-4567147D01*
X-1212004Y-4601905D01*
X-1226738Y-4633502D01*
X-1226742Y-4633511D01*
X-1285634Y-4853302D01*
X-1285636Y-4853313D01*
X-1305468Y-5079998D01*
X-1305468Y-5080001D01*
X-1285636Y-5306686D01*
X-1285634Y-5306697D01*
X-1226742Y-5526488D01*
X-1226739Y-5526497D01*
X-1130569Y-5732732D01*
X-1130568Y-5732734D01*
X-1000046Y-5919141D01*
X-839142Y-6080045D01*
X-839139Y-6080047D01*
X-652734Y-6210568D01*
X-607384Y-6231715D01*
X-594725Y-6237618D01*
X-542286Y-6283791D01*
X-523134Y-6350984D01*
X-543350Y-6417865D01*
X-594725Y-6462382D01*
X-652733Y-6489431D01*
X-652735Y-6489432D01*
X-839142Y-6619954D01*
X-1000046Y-6780858D01*
X-1130568Y-6967265D01*
X-1130569Y-6967267D01*
X-1226739Y-7173502D01*
X-1226742Y-7173511D01*
X-1285634Y-7393302D01*
X-1285636Y-7393313D01*
X-1301986Y-7580195D01*
X-1305468Y-7620000D01*
X-1285636Y-7846686D01*
X-1285635Y-7846691D01*
X-1285634Y-7846697D01*
X-1267320Y-7915048D01*
X-1268983Y-7984897D01*
X-1299414Y-8034821D01*
X-1602774Y-8338182D01*
X-1664095Y-8371666D01*
X-1690453Y-8374500D01*
X-5375165Y-8374500D01*
X-5442204Y-8354815D01*
X-5487959Y-8302011D01*
X-5498486Y-8237540D01*
X-5494540Y-8200000D01*
X-5514326Y-8011744D01*
X-5572821Y-7831716D01*
X-5667467Y-7667784D01*
X-5794129Y-7527112D01*
X-5802568Y-7520981D01*
X-5831008Y-7500318D01*
X-5873674Y-7444989D01*
X-5879653Y-7375375D01*
X-5847048Y-7313580D01*
X-5831008Y-7299682D01*
X-5802630Y-7279064D01*
X-5794129Y-7272888D01*
X-5667467Y-7132216D01*
X-5572821Y-6968284D01*
X-5514326Y-6788256D01*
X-5494540Y-6600000D01*
X-5514326Y-6411744D01*
X-5572821Y-6231716D01*
X-5667467Y-6067784D01*
X-5794129Y-5927112D01*
X-5831009Y-5900317D01*
X-5873674Y-5844989D01*
X-5879653Y-5775375D01*
X-5847048Y-5713580D01*
X-5831008Y-5699682D01*
X-5794129Y-5672888D01*
X-5667467Y-5532216D01*
X-5572821Y-5368284D01*
X-5514326Y-5188256D01*
X-5494540Y-5000000D01*
X-5514326Y-4811744D01*
X-5572821Y-4631716D01*
X-5584494Y-4611499D01*
X-5600966Y-4543600D01*
X-5578113Y-4477573D01*
X-5523192Y-4434382D01*
X-5477106Y-4425500D01*
X-1324386Y-4425500D01*
X-1257347Y-4445185D01*
G37*
%TD.AperFunction*%
%TA.AperFunction,NonConductor*%
G36*
X8618834Y-8562867D02*
G01*
X8674767Y-8604739D01*
X8699184Y-8670203D01*
X8699500Y-8679049D01*
X8699500Y-9100951D01*
X8679815Y-9167990D01*
X8627011Y-9213745D01*
X8557853Y-9223689D01*
X8494297Y-9194664D01*
X8487819Y-9188632D01*
X8459141Y-9159954D01*
X8272734Y-9029432D01*
X8272728Y-9029429D01*
X8214725Y-9002382D01*
X8162285Y-8956210D01*
X8143133Y-8889017D01*
X8163348Y-8822135D01*
X8214725Y-8777618D01*
X8272734Y-8750568D01*
X8459139Y-8620047D01*
X8459140Y-8620045D01*
X8487819Y-8591368D01*
X8549142Y-8557883D01*
X8618834Y-8562867D01*
G37*
%TD.AperFunction*%
%TA.AperFunction,NonConductor*%
G36*
X6472851Y-3185185D02*
G01*
X6507387Y-3218377D01*
X6619954Y-3379141D01*
X6780858Y-3540045D01*
X6780861Y-3540047D01*
X6967266Y-3670568D01*
X7025275Y-3697618D01*
X7077714Y-3743791D01*
X7096866Y-3810984D01*
X7076650Y-3877865D01*
X7025275Y-3922382D01*
X6967267Y-3949431D01*
X6967265Y-3949432D01*
X6780858Y-4079954D01*
X6619954Y-4240858D01*
X6489432Y-4427265D01*
X6489431Y-4427267D01*
X6393261Y-4633502D01*
X6393258Y-4633511D01*
X6334366Y-4853302D01*
X6334364Y-4853313D01*
X6314532Y-5079998D01*
X6314532Y-5080001D01*
X6334364Y-5306686D01*
X6334366Y-5306697D01*
X6393258Y-5526488D01*
X6393261Y-5526497D01*
X6489431Y-5732732D01*
X6489432Y-5732734D01*
X6619954Y-5919141D01*
X6780858Y-6080045D01*
X6780861Y-6080047D01*
X6967266Y-6210568D01*
X7012616Y-6231715D01*
X7025275Y-6237618D01*
X7077714Y-6283791D01*
X7096866Y-6350984D01*
X7076650Y-6417865D01*
X7025275Y-6462382D01*
X6967267Y-6489431D01*
X6967265Y-6489432D01*
X6780858Y-6619954D01*
X6619954Y-6780858D01*
X6489432Y-6967265D01*
X6489431Y-6967267D01*
X6393261Y-7173502D01*
X6393258Y-7173511D01*
X6334366Y-7393302D01*
X6334364Y-7393313D01*
X6318014Y-7580195D01*
X6314532Y-7620000D01*
X6334364Y-7846686D01*
X6334365Y-7846691D01*
X6334366Y-7846697D01*
X6352680Y-7915048D01*
X6351017Y-7984897D01*
X6320586Y-8034821D01*
X4437181Y-9918227D01*
X4375858Y-9951712D01*
X4306166Y-9946728D01*
X4250233Y-9904856D01*
X4225816Y-9839392D01*
X4225500Y-9830546D01*
X4225500Y-8762742D01*
X4227224Y-8747122D01*
X4226939Y-8747096D01*
X4227673Y-8739333D01*
X4225531Y-8671152D01*
X4225500Y-8669205D01*
X4225500Y-8640654D01*
X4225500Y-8640650D01*
X4224631Y-8633772D01*
X4224172Y-8627943D01*
X4222709Y-8581372D01*
X4217122Y-8562144D01*
X4213174Y-8543084D01*
X4210663Y-8523204D01*
X4193512Y-8479887D01*
X4191619Y-8474358D01*
X4178618Y-8429609D01*
X4178616Y-8429606D01*
X4168423Y-8412371D01*
X4159861Y-8394894D01*
X4152487Y-8376270D01*
X4149142Y-8371666D01*
X4125079Y-8338545D01*
X4121888Y-8333686D01*
X4098172Y-8293583D01*
X4098165Y-8293574D01*
X4084006Y-8279415D01*
X4071368Y-8264619D01*
X4059594Y-8248413D01*
X4046448Y-8237538D01*
X4023688Y-8218709D01*
X4019376Y-8214786D01*
X1299413Y-5494822D01*
X1265928Y-5433499D01*
X1267319Y-5375048D01*
X1269133Y-5368277D01*
X1285635Y-5306692D01*
X1305468Y-5080000D01*
X1285635Y-4853308D01*
X1226739Y-4633504D01*
X1209690Y-4596944D01*
X1199199Y-4527867D01*
X1227719Y-4464083D01*
X1286195Y-4425844D01*
X1293949Y-4424067D01*
X1298621Y-4422709D01*
X1298627Y-4422709D01*
X1317869Y-4417117D01*
X1336912Y-4413174D01*
X1356792Y-4410664D01*
X1400122Y-4393507D01*
X1405646Y-4391617D01*
X1409396Y-4390527D01*
X1450390Y-4378618D01*
X1467629Y-4368422D01*
X1485103Y-4359862D01*
X1503727Y-4352488D01*
X1503727Y-4352487D01*
X1503732Y-4352486D01*
X1541449Y-4325082D01*
X1546305Y-4321892D01*
X1586420Y-4298170D01*
X1600589Y-4283999D01*
X1615379Y-4271368D01*
X1631587Y-4259594D01*
X1661299Y-4223676D01*
X1665212Y-4219376D01*
X2682771Y-3201819D01*
X2744095Y-3168334D01*
X2770453Y-3165500D01*
X6405812Y-3165500D01*
X6472851Y-3185185D01*
G37*
%TD.AperFunction*%
%TA.AperFunction,NonConductor*%
G36*
X-1447123Y-9627224D02*
G01*
X-1447096Y-9626939D01*
X-1439334Y-9627673D01*
X-1439334Y-9627672D01*
X-1439333Y-9627673D01*
X-1436001Y-9627568D01*
X-1371153Y-9625531D01*
X-1369206Y-9625500D01*
X-1364759Y-9625500D01*
X-1297720Y-9645185D01*
X-1251965Y-9697989D01*
X-1242021Y-9767147D01*
X-1244984Y-9781593D01*
X-1285634Y-9933302D01*
X-1285636Y-9933313D01*
X-1305468Y-10159998D01*
X-1305468Y-10160002D01*
X-1301610Y-10204102D01*
X-1315377Y-10272602D01*
X-1363992Y-10322785D01*
X-1432021Y-10338718D01*
X-1497865Y-10315342D01*
X-1512819Y-10302590D01*
X-1978228Y-9837181D01*
X-2011713Y-9775858D01*
X-2006729Y-9706166D01*
X-1964857Y-9650233D01*
X-1899393Y-9625816D01*
X-1890547Y-9625500D01*
X-1462743Y-9625500D01*
X-1447123Y-9627224D01*
G37*
%TD.AperFunction*%
%TA.AperFunction,NonConductor*%
G36*
X-2929389Y-10655536D02*
G01*
X-2923798Y-10660792D01*
X-2621772Y-10962819D01*
X-2588287Y-11024142D01*
X-2593271Y-11093834D01*
X-2635143Y-11149767D01*
X-2700607Y-11174184D01*
X-2709453Y-11174500D01*
X-2864242Y-11174500D01*
X-2931281Y-11154815D01*
X-2951923Y-11138181D01*
X-3213347Y-10876757D01*
X-3246832Y-10815434D01*
X-3241848Y-10745742D01*
X-3199976Y-10689809D01*
X-3151449Y-10667786D01*
X-3120197Y-10661144D01*
X-3061914Y-10635193D01*
X-2992666Y-10625908D01*
X-2929389Y-10655536D01*
G37*
%TD.AperFunction*%
%TA.AperFunction,NonConductor*%
G36*
X6238196Y-9988906D02*
G01*
X6294129Y-10030778D01*
X6318546Y-10096242D01*
X6318390Y-10115894D01*
X6314532Y-10159996D01*
X6314532Y-10160000D01*
X6334364Y-10386686D01*
X6334365Y-10386691D01*
X6334366Y-10386697D01*
X6352680Y-10455048D01*
X6351017Y-10524897D01*
X6320586Y-10574821D01*
X5237181Y-11658227D01*
X5175858Y-11691712D01*
X5106166Y-11686728D01*
X5050233Y-11644856D01*
X5025816Y-11579392D01*
X5025500Y-11570546D01*
X5025500Y-11150451D01*
X5045185Y-11083412D01*
X5061814Y-11062775D01*
X6107183Y-10017405D01*
X6168504Y-9983922D01*
X6238196Y-9988906D01*
G37*
%TD.AperFunction*%
%TA.AperFunction,NonConductor*%
G36*
X8618834Y-11102867D02*
G01*
X8674767Y-11144739D01*
X8699184Y-11210203D01*
X8699500Y-11219049D01*
X8699500Y-11640951D01*
X8679815Y-11707990D01*
X8627011Y-11753745D01*
X8557853Y-11763689D01*
X8494297Y-11734664D01*
X8487819Y-11728632D01*
X8459141Y-11699954D01*
X8272734Y-11569432D01*
X8272728Y-11569429D01*
X8220213Y-11544941D01*
X8214724Y-11542381D01*
X8162285Y-11496210D01*
X8143133Y-11429017D01*
X8163348Y-11362135D01*
X8214725Y-11317618D01*
X8226374Y-11312186D01*
X8272734Y-11290568D01*
X8459139Y-11160047D01*
X8469419Y-11149767D01*
X8487819Y-11131368D01*
X8549142Y-11097883D01*
X8618834Y-11102867D01*
G37*
%TD.AperFunction*%
%TA.AperFunction,NonConductor*%
G36*
X8618834Y-13642867D02*
G01*
X8674767Y-13684739D01*
X8699184Y-13750203D01*
X8699500Y-13759049D01*
X8699500Y-14180951D01*
X8679815Y-14247990D01*
X8627011Y-14293745D01*
X8557853Y-14303689D01*
X8494297Y-14274664D01*
X8487819Y-14268632D01*
X8459141Y-14239954D01*
X8272734Y-14109432D01*
X8272728Y-14109429D01*
X8214725Y-14082382D01*
X8162285Y-14036210D01*
X8143133Y-13969017D01*
X8163348Y-13902135D01*
X8214725Y-13857618D01*
X8272734Y-13830568D01*
X8459139Y-13700047D01*
X8470056Y-13689130D01*
X8487819Y-13671368D01*
X8549142Y-13637883D01*
X8618834Y-13642867D01*
G37*
%TD.AperFunction*%
%TA.AperFunction,NonConductor*%
G36*
X-5418108Y-10445185D02*
G01*
X-5397467Y-10461818D01*
X-4497151Y-11362135D01*
X-3675498Y-12183788D01*
X-3665673Y-12196051D01*
X-3665452Y-12195869D01*
X-3660485Y-12201874D01*
X-3658311Y-12203915D01*
X-3657122Y-12205938D01*
X-3655507Y-12207891D01*
X-3655822Y-12208151D01*
X-3622916Y-12264156D01*
X-3625708Y-12333970D01*
X-3651043Y-12377280D01*
X-3732536Y-12467787D01*
X-3827179Y-12631715D01*
X-3827182Y-12631722D01*
X-3882758Y-12802770D01*
X-3885674Y-12811744D01*
X-3905460Y-13000000D01*
X-3885674Y-13188256D01*
X-3885673Y-13188259D01*
X-3827182Y-13368277D01*
X-3827179Y-13368284D01*
X-3732533Y-13532216D01*
X-3697661Y-13570945D01*
X-3657350Y-13615715D01*
X-3627120Y-13678706D01*
X-3625500Y-13698687D01*
X-3625500Y-13917255D01*
X-3627225Y-13932872D01*
X-3626939Y-13932899D01*
X-3627673Y-13940662D01*
X-3625531Y-14008846D01*
X-3625500Y-14010793D01*
X-3625500Y-14039343D01*
X-3625499Y-14039360D01*
X-3624632Y-14046231D01*
X-3624174Y-14052050D01*
X-3622710Y-14098624D01*
X-3622709Y-14098627D01*
X-3617120Y-14117867D01*
X-3613176Y-14136911D01*
X-3610664Y-14156791D01*
X-3593510Y-14200119D01*
X-3591618Y-14205647D01*
X-3578619Y-14250388D01*
X-3568420Y-14267634D01*
X-3559862Y-14285103D01*
X-3552486Y-14303732D01*
X-3525102Y-14341423D01*
X-3521894Y-14346307D01*
X-3498173Y-14386416D01*
X-3498167Y-14386424D01*
X-3484010Y-14400580D01*
X-3471372Y-14415376D01*
X-3459595Y-14431586D01*
X-3459594Y-14431587D01*
X-3423691Y-14461288D01*
X-3419380Y-14465210D01*
X-3370258Y-14514332D01*
X-3321771Y-14562819D01*
X-3288286Y-14624142D01*
X-3293270Y-14693834D01*
X-3335142Y-14749767D01*
X-3400606Y-14774184D01*
X-3409452Y-14774500D01*
X-6175165Y-14774500D01*
X-6242204Y-14754815D01*
X-6287959Y-14702011D01*
X-6298486Y-14637540D01*
X-6294540Y-14600000D01*
X-6314326Y-14411744D01*
X-6372821Y-14231716D01*
X-6467467Y-14067784D01*
X-6594129Y-13927112D01*
X-6609379Y-13916032D01*
X-6723386Y-13833201D01*
X-6766052Y-13777871D01*
X-6774501Y-13732883D01*
X-6774500Y-10824500D01*
X-6754815Y-10757461D01*
X-6702011Y-10711706D01*
X-6650500Y-10700500D01*
X-6505356Y-10700500D01*
X-6505354Y-10700500D01*
X-6320197Y-10661144D01*
X-6147270Y-10584151D01*
X-5994129Y-10472888D01*
X-5991212Y-10469647D01*
X-5988400Y-10466526D01*
X-5928913Y-10429879D01*
X-5896252Y-10425500D01*
X-5485147Y-10425500D01*
X-5418108Y-10445185D01*
G37*
%TD.AperFunction*%
%TA.AperFunction,NonConductor*%
G36*
X8618832Y-16182866D02*
G01*
X8674766Y-16224736D01*
X8699184Y-16290200D01*
X8699500Y-16299048D01*
X8699500Y-16720951D01*
X8679815Y-16787990D01*
X8627011Y-16833745D01*
X8557853Y-16843689D01*
X8494297Y-16814664D01*
X8487819Y-16808632D01*
X8459141Y-16779954D01*
X8272734Y-16649432D01*
X8272728Y-16649429D01*
X8214725Y-16622382D01*
X8162285Y-16576210D01*
X8143133Y-16509017D01*
X8163348Y-16442135D01*
X8214725Y-16397618D01*
X8272734Y-16370568D01*
X8459139Y-16240047D01*
X8487819Y-16211366D01*
X8549140Y-16177882D01*
X8618832Y-16182866D01*
G37*
%TD.AperFunction*%
%TA.AperFunction,NonConductor*%
G36*
X-2733413Y-16045185D02*
G01*
X-2712771Y-16061819D01*
X-1321345Y-17453245D01*
X-1287860Y-17514568D01*
X-1285498Y-17551733D01*
X-1305468Y-17779997D01*
X-1305468Y-17780001D01*
X-1285636Y-18006686D01*
X-1285634Y-18006697D01*
X-1227682Y-18222978D01*
X-1229345Y-18292828D01*
X-1268508Y-18350690D01*
X-1274570Y-18355388D01*
X-1304209Y-18376922D01*
X-1304211Y-18376924D01*
X-1309937Y-18383284D01*
X-1369424Y-18419931D01*
X-1402085Y-18424310D01*
X-3239738Y-18424310D01*
X-3306777Y-18404625D01*
X-3327419Y-18387991D01*
X-4381908Y-17333502D01*
X-5461042Y-16254367D01*
X-5494525Y-16193047D01*
X-5496678Y-16179660D01*
X-5498486Y-16162456D01*
X-5485914Y-16093728D01*
X-5438181Y-16042706D01*
X-5375165Y-16025500D01*
X-2800452Y-16025500D01*
X-2733413Y-16045185D01*
G37*
%TD.AperFunction*%
%TA.AperFunction,NonConductor*%
G36*
X8618832Y-18722866D02*
G01*
X8674766Y-18764736D01*
X8699184Y-18830200D01*
X8699500Y-18839048D01*
X8699500Y-19260951D01*
X8679815Y-19327990D01*
X8627011Y-19373745D01*
X8557853Y-19383689D01*
X8494297Y-19354664D01*
X8487819Y-19348632D01*
X8459141Y-19319954D01*
X8272734Y-19189432D01*
X8272728Y-19189429D01*
X8214725Y-19162382D01*
X8162285Y-19116210D01*
X8143133Y-19049017D01*
X8163348Y-18982135D01*
X8214725Y-18937618D01*
X8272734Y-18910568D01*
X8459139Y-18780047D01*
X8487819Y-18751366D01*
X8549140Y-18717882D01*
X8618832Y-18722866D01*
G37*
%TD.AperFunction*%
%TA.AperFunction,NonConductor*%
G36*
X8618832Y-21262866D02*
G01*
X8674766Y-21304736D01*
X8699184Y-21370200D01*
X8699500Y-21379048D01*
X8699500Y-21800951D01*
X8679815Y-21867990D01*
X8627011Y-21913745D01*
X8557853Y-21923689D01*
X8494297Y-21894664D01*
X8487819Y-21888632D01*
X8459141Y-21859954D01*
X8272734Y-21729432D01*
X8272728Y-21729429D01*
X8214725Y-21702382D01*
X8162285Y-21656210D01*
X8143133Y-21589017D01*
X8163348Y-21522135D01*
X8214725Y-21477618D01*
X8272734Y-21450568D01*
X8459139Y-21320047D01*
X8487819Y-21291366D01*
X8549140Y-21257882D01*
X8618832Y-21262866D01*
G37*
%TD.AperFunction*%
%TA.AperFunction,NonConductor*%
G36*
X1497862Y-7464655D02*
G01*
X1512818Y-7477408D01*
X2938181Y-8902771D01*
X2971666Y-8964094D01*
X2974500Y-8990452D01*
X2974500Y-19117255D01*
X2972775Y-19132872D01*
X2973061Y-19132899D01*
X2972326Y-19140666D01*
X2974469Y-19208846D01*
X2974500Y-19210793D01*
X2974500Y-19239343D01*
X2974501Y-19239360D01*
X2975368Y-19246231D01*
X2975826Y-19252050D01*
X2977290Y-19298624D01*
X2977291Y-19298627D01*
X2982880Y-19317867D01*
X2986824Y-19336911D01*
X2989067Y-19354664D01*
X2989336Y-19356791D01*
X3006490Y-19400119D01*
X3008382Y-19405647D01*
X3021381Y-19450388D01*
X3031580Y-19467634D01*
X3040136Y-19485100D01*
X3047514Y-19503732D01*
X3074524Y-19540909D01*
X3074898Y-19541423D01*
X3078106Y-19546307D01*
X3101827Y-19586416D01*
X3101833Y-19586424D01*
X3115990Y-19600580D01*
X3128628Y-19615376D01*
X3140405Y-19631586D01*
X3140406Y-19631587D01*
X3176309Y-19661288D01*
X3180620Y-19665210D01*
X3722831Y-20207421D01*
X4261038Y-20745628D01*
X4294523Y-20806951D01*
X4296678Y-20820347D01*
X4299534Y-20847517D01*
X4314326Y-20988256D01*
X4314327Y-20988259D01*
X4372818Y-21168277D01*
X4372821Y-21168284D01*
X4467467Y-21332216D01*
X4509635Y-21379048D01*
X4594129Y-21472888D01*
X4747265Y-21584148D01*
X4747270Y-21584151D01*
X4920192Y-21661142D01*
X4920197Y-21661144D01*
X5105354Y-21700500D01*
X5105355Y-21700500D01*
X5294644Y-21700500D01*
X5294646Y-21700500D01*
X5479803Y-21661144D01*
X5652730Y-21584151D01*
X5805871Y-21472888D01*
X5932533Y-21332216D01*
X6027179Y-21168284D01*
X6085674Y-20988256D01*
X6105460Y-20800000D01*
X6085674Y-20611744D01*
X6027179Y-20431716D01*
X5971539Y-20335345D01*
X5929284Y-20262156D01*
X5931929Y-20260628D01*
X5912779Y-20207421D01*
X5928417Y-20139323D01*
X5929344Y-20137879D01*
X5929284Y-20137844D01*
X5954994Y-20093313D01*
X6027179Y-19968284D01*
X6085674Y-19788256D01*
X6105460Y-19600000D01*
X6085674Y-19411744D01*
X6027179Y-19231716D01*
X5932533Y-19067784D01*
X5929284Y-19062156D01*
X5931929Y-19060628D01*
X5912779Y-19007421D01*
X5928417Y-18939323D01*
X5929344Y-18937879D01*
X5929284Y-18937844D01*
X5986323Y-18839048D01*
X6027179Y-18768284D01*
X6085674Y-18588256D01*
X6105460Y-18400000D01*
X6085674Y-18211744D01*
X6027179Y-18031716D01*
X5932533Y-17867784D01*
X5857350Y-17784284D01*
X5827120Y-17721292D01*
X5825500Y-17701312D01*
X5825500Y-12890451D01*
X5845185Y-12823412D01*
X5861815Y-12802774D01*
X6107182Y-12557407D01*
X6168504Y-12523923D01*
X6238196Y-12528907D01*
X6294129Y-12570779D01*
X6318546Y-12636243D01*
X6318390Y-12655895D01*
X6314532Y-12699996D01*
X6314532Y-12700001D01*
X6334364Y-12926686D01*
X6334366Y-12926697D01*
X6393258Y-13146488D01*
X6393261Y-13146497D01*
X6489431Y-13352732D01*
X6489432Y-13352734D01*
X6619954Y-13539141D01*
X6780858Y-13700045D01*
X6780861Y-13700047D01*
X6967266Y-13830568D01*
X7025275Y-13857618D01*
X7077714Y-13903791D01*
X7096866Y-13970984D01*
X7076650Y-14037865D01*
X7025275Y-14082382D01*
X6967267Y-14109431D01*
X6967265Y-14109432D01*
X6780858Y-14239954D01*
X6619954Y-14400858D01*
X6489432Y-14587265D01*
X6489431Y-14587267D01*
X6393261Y-14793502D01*
X6393258Y-14793511D01*
X6334366Y-15013302D01*
X6334364Y-15013313D01*
X6314532Y-15239998D01*
X6314532Y-15240001D01*
X6334364Y-15466686D01*
X6334366Y-15466697D01*
X6393258Y-15686488D01*
X6393261Y-15686497D01*
X6489431Y-15892732D01*
X6489432Y-15892734D01*
X6619954Y-16079141D01*
X6780858Y-16240045D01*
X6827693Y-16272839D01*
X6967266Y-16370568D01*
X7025275Y-16397618D01*
X7077714Y-16443791D01*
X7096866Y-16510984D01*
X7076650Y-16577865D01*
X7025275Y-16622382D01*
X6967267Y-16649431D01*
X6967265Y-16649432D01*
X6780858Y-16779954D01*
X6619954Y-16940858D01*
X6489432Y-17127265D01*
X6489431Y-17127267D01*
X6393261Y-17333502D01*
X6393258Y-17333511D01*
X6334366Y-17553302D01*
X6334364Y-17553313D01*
X6314532Y-17779998D01*
X6314532Y-17780001D01*
X6334364Y-18006686D01*
X6334366Y-18006697D01*
X6393258Y-18226488D01*
X6393261Y-18226497D01*
X6489431Y-18432732D01*
X6489432Y-18432734D01*
X6619954Y-18619141D01*
X6780858Y-18780045D01*
X6780861Y-18780047D01*
X6967266Y-18910568D01*
X7025275Y-18937618D01*
X7077714Y-18983791D01*
X7096866Y-19050984D01*
X7076650Y-19117865D01*
X7025275Y-19162382D01*
X6967267Y-19189431D01*
X6967265Y-19189432D01*
X6780858Y-19319954D01*
X6619954Y-19480858D01*
X6489432Y-19667265D01*
X6489431Y-19667267D01*
X6393261Y-19873502D01*
X6393258Y-19873511D01*
X6334366Y-20093302D01*
X6334364Y-20093313D01*
X6314532Y-20319998D01*
X6314532Y-20320001D01*
X6334364Y-20546686D01*
X6334366Y-20546697D01*
X6393258Y-20766488D01*
X6393261Y-20766497D01*
X6489431Y-20972732D01*
X6489432Y-20972734D01*
X6619954Y-21159141D01*
X6780858Y-21320045D01*
X6780861Y-21320047D01*
X6967266Y-21450568D01*
X7025275Y-21477618D01*
X7077714Y-21523791D01*
X7096866Y-21590984D01*
X7076650Y-21657865D01*
X7025275Y-21702382D01*
X6967267Y-21729431D01*
X6967265Y-21729432D01*
X6780858Y-21859954D01*
X6619954Y-22020858D01*
X6507387Y-22181623D01*
X6452811Y-22225248D01*
X6405812Y-22234500D01*
X4770453Y-22234500D01*
X4703414Y-22214815D01*
X4682772Y-22198181D01*
X2061818Y-19577227D01*
X2028333Y-19515904D01*
X2025499Y-19489555D01*
X2025499Y-17482749D01*
X2027224Y-17467128D01*
X2026938Y-17467101D01*
X2027671Y-17459341D01*
X2027673Y-17459333D01*
X2026359Y-17417543D01*
X2025531Y-17391152D01*
X2025500Y-17389205D01*
X2025500Y-17360654D01*
X2025500Y-17360650D01*
X2024631Y-17353772D01*
X2024172Y-17347943D01*
X2022709Y-17301372D01*
X2017122Y-17282144D01*
X2013174Y-17263084D01*
X2010663Y-17243204D01*
X1993512Y-17199887D01*
X1991619Y-17194358D01*
X1978618Y-17149609D01*
X1978616Y-17149606D01*
X1968423Y-17132371D01*
X1959861Y-17114894D01*
X1952487Y-17096270D01*
X1952486Y-17096268D01*
X1925079Y-17058545D01*
X1921888Y-17053686D01*
X1898172Y-17013583D01*
X1898165Y-17013574D01*
X1884006Y-16999415D01*
X1871368Y-16984619D01*
X1859594Y-16968413D01*
X1826285Y-16940858D01*
X1823688Y-16938709D01*
X1819376Y-16934786D01*
X1100803Y-16216212D01*
X1090980Y-16203950D01*
X1090759Y-16204134D01*
X1085786Y-16198122D01*
X1062095Y-16175875D01*
X1026700Y-16115633D01*
X1029494Y-16045820D01*
X1045398Y-16014369D01*
X1130568Y-15892734D01*
X1226739Y-15686496D01*
X1285635Y-15466692D01*
X1305468Y-15240000D01*
X1285635Y-15013308D01*
X1226739Y-14793504D01*
X1130568Y-14587266D01*
X1007667Y-14411744D01*
X1000045Y-14400858D01*
X839141Y-14239954D01*
X652734Y-14109432D01*
X652728Y-14109429D01*
X594725Y-14082382D01*
X542285Y-14036210D01*
X523133Y-13969017D01*
X543348Y-13902135D01*
X594725Y-13857618D01*
X652734Y-13830568D01*
X839139Y-13700047D01*
X1000047Y-13539139D01*
X1130568Y-13352734D01*
X1226739Y-13146496D01*
X1285635Y-12926692D01*
X1305468Y-12700000D01*
X1285635Y-12473308D01*
X1233263Y-12277853D01*
X1226741Y-12253511D01*
X1226738Y-12253502D01*
X1196942Y-12189604D01*
X1130568Y-12047266D01*
X1026711Y-11898942D01*
X1000045Y-11860858D01*
X839141Y-11699954D01*
X652734Y-11569432D01*
X652728Y-11569429D01*
X600213Y-11544941D01*
X594724Y-11542381D01*
X542285Y-11496210D01*
X523133Y-11429017D01*
X543348Y-11362135D01*
X594725Y-11317618D01*
X606374Y-11312186D01*
X652734Y-11290568D01*
X839139Y-11160047D01*
X1000047Y-10999139D01*
X1130568Y-10812734D01*
X1226739Y-10606496D01*
X1285635Y-10386692D01*
X1305468Y-10160000D01*
X1285635Y-9933308D01*
X1226739Y-9713504D01*
X1130568Y-9507266D01*
X1000047Y-9320861D01*
X1000045Y-9320858D01*
X839141Y-9159954D01*
X652734Y-9029432D01*
X652728Y-9029429D01*
X594725Y-9002382D01*
X542285Y-8956210D01*
X523133Y-8889017D01*
X543348Y-8822135D01*
X594725Y-8777618D01*
X652734Y-8750568D01*
X839139Y-8620047D01*
X1000047Y-8459139D01*
X1130568Y-8272734D01*
X1226739Y-8066496D01*
X1285635Y-7846692D01*
X1305468Y-7620000D01*
X1301609Y-7575896D01*
X1315375Y-7507398D01*
X1363990Y-7457214D01*
X1432018Y-7441280D01*
X1497862Y-7464655D01*
G37*
%TD.AperFunction*%
%TA.AperFunction,NonConductor*%
G36*
X-1147149Y-20965185D02*
G01*
X-1112613Y-20998377D01*
X-1000046Y-21159141D01*
X-839142Y-21320045D01*
X-839139Y-21320047D01*
X-652734Y-21450568D01*
X-594725Y-21477618D01*
X-542286Y-21523791D01*
X-523134Y-21590984D01*
X-543350Y-21657865D01*
X-594725Y-21702382D01*
X-652733Y-21729431D01*
X-652735Y-21729432D01*
X-839142Y-21859954D01*
X-1000046Y-22020858D01*
X-1112613Y-22181623D01*
X-1167189Y-22225248D01*
X-1214188Y-22234500D01*
X-1429547Y-22234500D01*
X-1496586Y-22214815D01*
X-1517228Y-22198181D01*
X-2558228Y-21157181D01*
X-2591713Y-21095858D01*
X-2586729Y-21026166D01*
X-2544857Y-20970233D01*
X-2479393Y-20945816D01*
X-2470547Y-20945500D01*
X-1214188Y-20945500D01*
X-1147149Y-20965185D01*
G37*
%TD.AperFunction*%
%TA.AperFunction,NonConductor*%
G36*
X8618832Y-23802866D02*
G01*
X8674766Y-23844736D01*
X8699184Y-23910200D01*
X8699500Y-23919048D01*
X8699500Y-24340951D01*
X8679815Y-24407990D01*
X8627011Y-24453745D01*
X8557853Y-24463689D01*
X8494297Y-24434664D01*
X8487819Y-24428632D01*
X8459141Y-24399954D01*
X8272734Y-24269432D01*
X8272728Y-24269429D01*
X8214725Y-24242382D01*
X8162285Y-24196210D01*
X8143133Y-24129017D01*
X8163348Y-24062135D01*
X8214725Y-24017618D01*
X8272734Y-23990568D01*
X8459139Y-23860047D01*
X8487819Y-23831366D01*
X8549140Y-23797882D01*
X8618832Y-23802866D01*
G37*
%TD.AperFunction*%
%TA.AperFunction,NonConductor*%
G36*
X-2969297Y-23315739D02*
G01*
X-2962821Y-23321769D01*
X-2111330Y-24173261D01*
X-1299414Y-24985177D01*
X-1265929Y-25046500D01*
X-1267320Y-25104949D01*
X-1285633Y-25173296D01*
X-1285636Y-25173313D01*
X-1305468Y-25399999D01*
X-1305468Y-25400003D01*
X-1301610Y-25444104D01*
X-1315377Y-25512603D01*
X-1363993Y-25562786D01*
X-1432021Y-25578719D01*
X-1497865Y-25555343D01*
X-1512819Y-25542591D01*
X-2295781Y-24759629D01*
X-3138181Y-23917228D01*
X-3171666Y-23855905D01*
X-3174500Y-23829547D01*
X-3174500Y-23409452D01*
X-3154815Y-23342413D01*
X-3102011Y-23296658D01*
X-3032853Y-23286714D01*
X-2969297Y-23315739D01*
G37*
%TD.AperFunction*%
%TA.AperFunction,NonConductor*%
G36*
X8618832Y-26342866D02*
G01*
X8674766Y-26384736D01*
X8699184Y-26450200D01*
X8699500Y-26459048D01*
X8699500Y-26880951D01*
X8679815Y-26947990D01*
X8627011Y-26993745D01*
X8557853Y-27003689D01*
X8494297Y-26974664D01*
X8487819Y-26968632D01*
X8459141Y-26939954D01*
X8272734Y-26809432D01*
X8272728Y-26809429D01*
X8245038Y-26796517D01*
X8214724Y-26782381D01*
X8162285Y-26736210D01*
X8143133Y-26669017D01*
X8163348Y-26602135D01*
X8214725Y-26557618D01*
X8272734Y-26530568D01*
X8459139Y-26400047D01*
X8487819Y-26371366D01*
X8549140Y-26337882D01*
X8618832Y-26342866D01*
G37*
%TD.AperFunction*%
%TA.AperFunction,NonConductor*%
G36*
X-3569298Y-25255738D02*
G01*
X-3562820Y-25261770D01*
X-1299414Y-27525176D01*
X-1265929Y-27586499D01*
X-1267319Y-27644948D01*
X-1285635Y-27713307D01*
X-1285636Y-27713313D01*
X-1304009Y-27923318D01*
X-1329462Y-27988386D01*
X-1386053Y-28029365D01*
X-1455815Y-28033243D01*
X-1515218Y-28000191D01*
X-3738182Y-25777228D01*
X-3771667Y-25715905D01*
X-3774501Y-25689547D01*
X-3774501Y-25399998D01*
X-3774501Y-25349449D01*
X-3754816Y-25282412D01*
X-3702012Y-25236657D01*
X-3632854Y-25226713D01*
X-3569298Y-25255738D01*
G37*
%TD.AperFunction*%
%TA.AperFunction,NonConductor*%
G36*
X1403341Y-20695431D02*
G01*
X1432461Y-20717051D01*
X3959194Y-23243784D01*
X3969019Y-23256048D01*
X3969240Y-23255866D01*
X3974210Y-23261874D01*
X4023949Y-23308582D01*
X4025316Y-23309906D01*
X4045530Y-23330120D01*
X4051004Y-23334366D01*
X4055442Y-23338156D01*
X4089418Y-23370062D01*
X4089422Y-23370064D01*
X4106973Y-23379713D01*
X4123231Y-23390392D01*
X4139064Y-23402674D01*
X4154728Y-23409452D01*
X4181837Y-23421183D01*
X4187081Y-23423752D01*
X4227908Y-23446197D01*
X4247312Y-23451179D01*
X4265710Y-23457478D01*
X4284105Y-23465438D01*
X4330129Y-23472726D01*
X4335832Y-23473907D01*
X4380981Y-23485500D01*
X4401016Y-23485500D01*
X4420413Y-23487026D01*
X4440196Y-23490160D01*
X4486583Y-23485775D01*
X4492422Y-23485500D01*
X6405812Y-23485500D01*
X6472851Y-23505185D01*
X6507387Y-23538377D01*
X6619954Y-23699141D01*
X6780858Y-23860045D01*
X6852488Y-23910200D01*
X6967266Y-23990568D01*
X7025278Y-24017619D01*
X7077713Y-24063788D01*
X7096866Y-24130982D01*
X7076651Y-24197863D01*
X7025277Y-24242380D01*
X6967268Y-24269430D01*
X6967265Y-24269432D01*
X6780858Y-24399954D01*
X6619954Y-24560858D01*
X6489432Y-24747265D01*
X6489431Y-24747267D01*
X6393261Y-24953502D01*
X6393258Y-24953511D01*
X6334366Y-25173302D01*
X6334364Y-25173313D01*
X6318954Y-25349451D01*
X6314532Y-25400000D01*
X6334364Y-25626686D01*
X6334365Y-25626691D01*
X6334366Y-25626697D01*
X6352680Y-25695048D01*
X6351017Y-25764897D01*
X6320586Y-25814821D01*
X3597228Y-28538181D01*
X3535905Y-28571666D01*
X3509547Y-28574500D01*
X1333712Y-28574500D01*
X1266673Y-28554815D01*
X1220918Y-28502011D01*
X1210974Y-28432853D01*
X1221330Y-28398095D01*
X1226739Y-28386496D01*
X1285635Y-28166692D01*
X1305468Y-27940000D01*
X1285635Y-27713308D01*
X1226739Y-27493504D01*
X1130568Y-27287266D01*
X1000047Y-27100861D01*
X1000045Y-27100858D01*
X839141Y-26939954D01*
X652735Y-26809433D01*
X652736Y-26809433D01*
X652734Y-26809432D01*
X594722Y-26782380D01*
X542284Y-26736208D01*
X523133Y-26669014D01*
X543349Y-26602133D01*
X594721Y-26557619D01*
X652734Y-26530568D01*
X839139Y-26400047D01*
X1000047Y-26239139D01*
X1130568Y-26052734D01*
X1226739Y-25846496D01*
X1285635Y-25626692D01*
X1305468Y-25400000D01*
X1285635Y-25173308D01*
X1226739Y-24953504D01*
X1130568Y-24747266D01*
X1000047Y-24560861D01*
X1000045Y-24560858D01*
X839141Y-24399954D01*
X652734Y-24269432D01*
X652728Y-24269429D01*
X594725Y-24242382D01*
X542285Y-24196210D01*
X523133Y-24129017D01*
X543348Y-24062135D01*
X594725Y-24017618D01*
X652734Y-23990568D01*
X839139Y-23860047D01*
X1000047Y-23699139D01*
X1130568Y-23512734D01*
X1226739Y-23306496D01*
X1285635Y-23086692D01*
X1305468Y-22860000D01*
X1285635Y-22633308D01*
X1226739Y-22413504D01*
X1130568Y-22207266D01*
X1000047Y-22020861D01*
X1000045Y-22020858D01*
X839141Y-21859954D01*
X652734Y-21729432D01*
X652728Y-21729429D01*
X594725Y-21702382D01*
X542285Y-21656210D01*
X523133Y-21589017D01*
X543348Y-21522135D01*
X594725Y-21477618D01*
X652734Y-21450568D01*
X839139Y-21320047D01*
X1000047Y-21159139D01*
X1130568Y-20972734D01*
X1226739Y-20766496D01*
X1226741Y-20766488D01*
X1228258Y-20762323D01*
X1269684Y-20706058D01*
X1334952Y-20681122D01*
X1403341Y-20695431D01*
G37*
%TD.AperFunction*%
%TA.AperFunction,NonConductor*%
G36*
X8618834Y-28882867D02*
G01*
X8674767Y-28924739D01*
X8699184Y-28990203D01*
X8699500Y-28999049D01*
X8699500Y-29420951D01*
X8679815Y-29487990D01*
X8627011Y-29533745D01*
X8557853Y-29543689D01*
X8494297Y-29514664D01*
X8487819Y-29508632D01*
X8459141Y-29479954D01*
X8272734Y-29349432D01*
X8272728Y-29349429D01*
X8214725Y-29322382D01*
X8162285Y-29276210D01*
X8143133Y-29209017D01*
X8163348Y-29142135D01*
X8214725Y-29097618D01*
X8272734Y-29070568D01*
X8459139Y-28940047D01*
X8459140Y-28940045D01*
X8487819Y-28911368D01*
X8549142Y-28877883D01*
X8618834Y-28882867D01*
G37*
%TD.AperFunction*%
%TA.AperFunction,NonConductor*%
G36*
X-4169297Y-27115739D02*
G01*
X-4162821Y-27121769D01*
X-2929770Y-28354821D01*
X-1700803Y-29583788D01*
X-1690978Y-29596051D01*
X-1690757Y-29595869D01*
X-1685789Y-29601874D01*
X-1636068Y-29648566D01*
X-1634668Y-29649923D01*
X-1614477Y-29670115D01*
X-1614473Y-29670118D01*
X-1614471Y-29670120D01*
X-1608989Y-29674373D01*
X-1604557Y-29678157D01*
X-1570582Y-29710062D01*
X-1553024Y-29719714D01*
X-1536765Y-29730395D01*
X-1520936Y-29742673D01*
X-1478162Y-29761182D01*
X-1472944Y-29763738D01*
X-1432092Y-29786197D01*
X-1412684Y-29791180D01*
X-1394283Y-29797480D01*
X-1375896Y-29805437D01*
X-1332512Y-29812308D01*
X-1329881Y-29812725D01*
X-1324172Y-29813906D01*
X-1290372Y-29822585D01*
X-1230336Y-29858320D01*
X-1199149Y-29920843D01*
X-1206716Y-29990302D01*
X-1208827Y-29995092D01*
X-1226740Y-30033506D01*
X-1226742Y-30033511D01*
X-1285634Y-30253302D01*
X-1285636Y-30253312D01*
X-1292746Y-30334581D01*
X-1318199Y-30399650D01*
X-1374790Y-30440628D01*
X-1444552Y-30444506D01*
X-1503955Y-30411454D01*
X-4338181Y-27577228D01*
X-4371666Y-27515905D01*
X-4374500Y-27489547D01*
X-4374500Y-27209452D01*
X-4354815Y-27142413D01*
X-4302011Y-27096658D01*
X-4232853Y-27086714D01*
X-4169297Y-27115739D01*
G37*
%TD.AperFunction*%
%TA.AperFunction,NonConductor*%
G36*
X6238196Y-27768906D02*
G01*
X6294129Y-27810778D01*
X6318546Y-27876242D01*
X6318390Y-27895894D01*
X6315991Y-27923318D01*
X6314532Y-27940000D01*
X6334364Y-28166686D01*
X6334365Y-28166691D01*
X6334366Y-28166697D01*
X6352680Y-28235048D01*
X6351017Y-28304897D01*
X6320586Y-28354821D01*
X3537228Y-31138181D01*
X3475905Y-31171666D01*
X3449547Y-31174500D01*
X1305734Y-31174500D01*
X1238695Y-31154815D01*
X1192940Y-31102011D01*
X1182996Y-31032853D01*
X1193352Y-30998096D01*
X1226736Y-30926502D01*
X1226739Y-30926496D01*
X1285635Y-30706692D01*
X1305468Y-30480000D01*
X1285635Y-30253308D01*
X1226739Y-30033504D01*
X1212003Y-30001904D01*
X1201512Y-29932827D01*
X1230032Y-29869043D01*
X1288508Y-29830804D01*
X1324386Y-29825500D01*
X3737257Y-29825500D01*
X3752877Y-29827224D01*
X3752904Y-29826939D01*
X3760666Y-29827673D01*
X3760666Y-29827672D01*
X3760667Y-29827673D01*
X3763999Y-29827568D01*
X3828847Y-29825531D01*
X3830794Y-29825500D01*
X3859347Y-29825500D01*
X3859350Y-29825500D01*
X3866228Y-29824630D01*
X3872041Y-29824172D01*
X3918627Y-29822709D01*
X3937869Y-29817117D01*
X3956912Y-29813174D01*
X3976792Y-29810664D01*
X4020122Y-29793507D01*
X4025646Y-29791617D01*
X4029396Y-29790527D01*
X4070390Y-29778618D01*
X4087629Y-29768422D01*
X4105103Y-29759862D01*
X4123727Y-29752488D01*
X4123727Y-29752487D01*
X4123732Y-29752486D01*
X4161449Y-29725082D01*
X4166305Y-29721892D01*
X4206420Y-29698170D01*
X4220589Y-29683999D01*
X4235379Y-29671368D01*
X4251587Y-29659594D01*
X4281299Y-29623676D01*
X4285212Y-29619376D01*
X6107183Y-27797405D01*
X6168504Y-27763922D01*
X6238196Y-27768906D01*
G37*
%TD.AperFunction*%
%TA.AperFunction,NonConductor*%
G36*
X8618834Y-31422867D02*
G01*
X8674767Y-31464739D01*
X8699184Y-31530203D01*
X8699500Y-31539049D01*
X8699500Y-31960951D01*
X8679815Y-32027990D01*
X8627011Y-32073745D01*
X8557853Y-32083689D01*
X8494297Y-32054664D01*
X8487819Y-32048632D01*
X8459141Y-32019954D01*
X8272734Y-31889432D01*
X8272728Y-31889429D01*
X8214725Y-31862382D01*
X8162285Y-31816210D01*
X8143133Y-31749017D01*
X8163348Y-31682135D01*
X8214725Y-31637618D01*
X8272734Y-31610568D01*
X8459139Y-31480047D01*
X8459140Y-31480045D01*
X8487819Y-31451368D01*
X8549142Y-31417883D01*
X8618834Y-31422867D01*
G37*
%TD.AperFunction*%
%TA.AperFunction,NonConductor*%
G36*
X-4769298Y-28915739D02*
G01*
X-4762820Y-28921771D01*
X-1500803Y-32183788D01*
X-1490978Y-32196051D01*
X-1490757Y-32195869D01*
X-1485789Y-32201874D01*
X-1485787Y-32201876D01*
X-1485786Y-32201877D01*
X-1463891Y-32222438D01*
X-1436068Y-32248566D01*
X-1434668Y-32249923D01*
X-1414477Y-32270115D01*
X-1414473Y-32270118D01*
X-1414471Y-32270120D01*
X-1408989Y-32274373D01*
X-1404557Y-32278157D01*
X-1370582Y-32310062D01*
X-1353024Y-32319714D01*
X-1336765Y-32330395D01*
X-1320936Y-32342673D01*
X-1278162Y-32361182D01*
X-1272936Y-32363742D01*
X-1259991Y-32370859D01*
X-1210729Y-32420406D01*
X-1196074Y-32488722D01*
X-1207350Y-32531923D01*
X-1226737Y-32573497D01*
X-1226742Y-32573511D01*
X-1285634Y-32793302D01*
X-1285636Y-32793312D01*
X-1297573Y-32929754D01*
X-1323026Y-32994823D01*
X-1379617Y-33035801D01*
X-1449379Y-33039679D01*
X-1508782Y-33006627D01*
X-4938181Y-29577227D01*
X-4971666Y-29515904D01*
X-4974500Y-29489546D01*
X-4974500Y-29253261D01*
X-4974500Y-29009448D01*
X-4954817Y-28942413D01*
X-4902013Y-28896658D01*
X-4832854Y-28886714D01*
X-4769298Y-28915739D01*
G37*
%TD.AperFunction*%
%TA.AperFunction,NonConductor*%
G36*
X6238196Y-30308907D02*
G01*
X6294129Y-30350779D01*
X6318546Y-30416243D01*
X6318390Y-30435895D01*
X6317637Y-30444506D01*
X6314532Y-30480000D01*
X6334364Y-30706686D01*
X6334365Y-30706691D01*
X6334366Y-30706697D01*
X6352680Y-30775048D01*
X6351017Y-30844897D01*
X6320586Y-30894821D01*
X3677228Y-33538181D01*
X3615905Y-33571666D01*
X3589547Y-33574500D01*
X1359400Y-33574500D01*
X1292361Y-33554815D01*
X1246606Y-33502011D01*
X1236662Y-33432853D01*
X1239625Y-33418407D01*
X1280670Y-33265221D01*
X1285635Y-33246692D01*
X1305468Y-33020000D01*
X1303966Y-33002837D01*
X1294849Y-32898624D01*
X1285635Y-32793308D01*
X1241029Y-32626835D01*
X1228907Y-32581593D01*
X1230570Y-32511743D01*
X1269733Y-32453881D01*
X1333961Y-32426377D01*
X1348682Y-32425500D01*
X3677257Y-32425500D01*
X3692877Y-32427224D01*
X3692904Y-32426939D01*
X3700666Y-32427673D01*
X3700666Y-32427672D01*
X3700667Y-32427673D01*
X3703999Y-32427568D01*
X3768847Y-32425531D01*
X3770794Y-32425500D01*
X3799347Y-32425500D01*
X3799350Y-32425500D01*
X3806228Y-32424630D01*
X3812041Y-32424172D01*
X3858627Y-32422709D01*
X3877869Y-32417117D01*
X3896912Y-32413174D01*
X3916792Y-32410664D01*
X3960122Y-32393507D01*
X3965646Y-32391617D01*
X3969396Y-32390527D01*
X4010390Y-32378618D01*
X4027629Y-32368422D01*
X4045103Y-32359862D01*
X4063727Y-32352488D01*
X4063727Y-32352487D01*
X4063732Y-32352486D01*
X4101449Y-32325082D01*
X4106305Y-32321892D01*
X4146420Y-32298170D01*
X4160589Y-32283999D01*
X4175379Y-32271368D01*
X4191587Y-32259594D01*
X4221299Y-32223676D01*
X4225212Y-32219376D01*
X6107182Y-30337406D01*
X6168504Y-30303923D01*
X6238196Y-30308907D01*
G37*
%TD.AperFunction*%
%TA.AperFunction,NonConductor*%
G36*
X8618834Y-33962867D02*
G01*
X8674767Y-34004739D01*
X8699184Y-34070203D01*
X8699500Y-34079049D01*
X8699500Y-34500951D01*
X8679815Y-34567990D01*
X8627011Y-34613745D01*
X8557853Y-34623689D01*
X8494297Y-34594664D01*
X8487819Y-34588632D01*
X8459141Y-34559954D01*
X8272734Y-34429432D01*
X8272728Y-34429429D01*
X8214725Y-34402382D01*
X8162285Y-34356210D01*
X8143133Y-34289017D01*
X8163348Y-34222135D01*
X8214725Y-34177618D01*
X8272734Y-34150568D01*
X8459139Y-34020047D01*
X8459140Y-34020045D01*
X8487819Y-33991368D01*
X8549142Y-33957883D01*
X8618834Y-33962867D01*
G37*
%TD.AperFunction*%
%TA.AperFunction,NonConductor*%
G36*
X-5369298Y-30915738D02*
G01*
X-5362820Y-30921770D01*
X-1700806Y-34583784D01*
X-1690981Y-34596048D01*
X-1690760Y-34595866D01*
X-1685790Y-34601874D01*
X-1636051Y-34648582D01*
X-1634684Y-34649906D01*
X-1614470Y-34670120D01*
X-1608996Y-34674366D01*
X-1604558Y-34678156D01*
X-1570582Y-34710062D01*
X-1570578Y-34710064D01*
X-1553027Y-34719713D01*
X-1536769Y-34730392D01*
X-1520936Y-34742674D01*
X-1498985Y-34752172D01*
X-1478163Y-34761183D01*
X-1472919Y-34763752D01*
X-1432092Y-34786197D01*
X-1412688Y-34791179D01*
X-1394290Y-34797478D01*
X-1375895Y-34805438D01*
X-1329871Y-34812726D01*
X-1324168Y-34813907D01*
X-1279019Y-34825500D01*
X-1279009Y-34825500D01*
X-1271531Y-34826445D01*
X-1207486Y-34854374D01*
X-1168707Y-34912495D01*
X-1167507Y-34982354D01*
X-1174685Y-35001872D01*
X-1226737Y-35113497D01*
X-1226742Y-35113511D01*
X-1285634Y-35333302D01*
X-1285636Y-35333313D01*
X-1305468Y-35559998D01*
X-1305468Y-35560002D01*
X-1292022Y-35713691D01*
X-1305789Y-35782191D01*
X-1354404Y-35832374D01*
X-1422433Y-35848307D01*
X-1488276Y-35824932D01*
X-1503231Y-35812179D01*
X-5538182Y-31777228D01*
X-5571667Y-31715905D01*
X-5574501Y-31689547D01*
X-5574501Y-31009451D01*
X-5554816Y-30942412D01*
X-5502012Y-30896657D01*
X-5432854Y-30886713D01*
X-5369298Y-30915738D01*
G37*
%TD.AperFunction*%
%TA.AperFunction,NonConductor*%
G36*
X6238196Y-32848907D02*
G01*
X6294129Y-32890779D01*
X6318546Y-32956243D01*
X6318390Y-32975895D01*
X6315702Y-33006627D01*
X6314532Y-33020000D01*
X6334364Y-33246686D01*
X6334365Y-33246691D01*
X6334366Y-33246697D01*
X6352680Y-33315048D01*
X6351017Y-33384897D01*
X6320586Y-33434821D01*
X3617228Y-36138181D01*
X3555905Y-36171666D01*
X3529547Y-36174500D01*
X1342681Y-36174500D01*
X1275642Y-36154815D01*
X1229887Y-36102011D01*
X1219943Y-36032853D01*
X1226161Y-36008085D01*
X1226739Y-36006496D01*
X1253269Y-35907483D01*
X1285635Y-35786692D01*
X1305468Y-35560000D01*
X1285635Y-35333308D01*
X1240512Y-35164906D01*
X1226741Y-35113511D01*
X1226740Y-35113510D01*
X1226739Y-35113504D01*
X1174698Y-35001904D01*
X1164207Y-34932828D01*
X1192727Y-34869044D01*
X1251203Y-34830804D01*
X1287081Y-34825500D01*
X3817257Y-34825500D01*
X3832877Y-34827224D01*
X3832904Y-34826939D01*
X3840666Y-34827673D01*
X3840666Y-34827672D01*
X3840667Y-34827673D01*
X3843999Y-34827568D01*
X3908847Y-34825531D01*
X3910794Y-34825500D01*
X3939347Y-34825500D01*
X3939350Y-34825500D01*
X3946228Y-34824630D01*
X3952041Y-34824172D01*
X3998627Y-34822709D01*
X4017869Y-34817117D01*
X4036912Y-34813174D01*
X4056792Y-34810664D01*
X4100122Y-34793507D01*
X4105646Y-34791617D01*
X4109396Y-34790527D01*
X4150390Y-34778618D01*
X4167629Y-34768422D01*
X4185103Y-34759862D01*
X4203727Y-34752488D01*
X4203727Y-34752487D01*
X4203732Y-34752486D01*
X4241449Y-34725082D01*
X4246305Y-34721892D01*
X4286420Y-34698170D01*
X4300589Y-34683999D01*
X4315379Y-34671368D01*
X4331587Y-34659594D01*
X4361299Y-34623676D01*
X4365212Y-34619376D01*
X6107182Y-32877406D01*
X6168504Y-32843923D01*
X6238196Y-32848907D01*
G37*
%TD.AperFunction*%
%TA.AperFunction,NonConductor*%
G36*
X8618834Y-36502867D02*
G01*
X8674767Y-36544739D01*
X8699184Y-36610203D01*
X8699500Y-36619049D01*
X8699500Y-37040951D01*
X8679815Y-37107990D01*
X8627011Y-37153745D01*
X8557853Y-37163689D01*
X8494297Y-37134664D01*
X8487819Y-37128632D01*
X8459141Y-37099954D01*
X8272734Y-36969432D01*
X8272728Y-36969429D01*
X8214725Y-36942382D01*
X8162285Y-36896210D01*
X8143133Y-36829017D01*
X8163348Y-36762135D01*
X8214725Y-36717618D01*
X8272734Y-36690568D01*
X8459139Y-36560047D01*
X8459140Y-36560045D01*
X8487819Y-36531368D01*
X8549142Y-36497883D01*
X8618834Y-36502867D01*
G37*
%TD.AperFunction*%
%TA.AperFunction,NonConductor*%
G36*
X6238196Y-35388907D02*
G01*
X6294129Y-35430779D01*
X6318546Y-35496243D01*
X6318390Y-35515895D01*
X6314532Y-35559996D01*
X6314532Y-35560000D01*
X6334364Y-35786686D01*
X6334365Y-35786691D01*
X6334366Y-35786697D01*
X6352680Y-35855048D01*
X6351017Y-35924897D01*
X6320586Y-35974821D01*
X3557228Y-38738181D01*
X3495905Y-38771666D01*
X3469547Y-38774500D01*
X1315060Y-38774500D01*
X1248021Y-38754815D01*
X1202266Y-38702011D01*
X1192322Y-38632853D01*
X1202678Y-38598096D01*
X1226736Y-38546502D01*
X1226739Y-38546496D01*
X1285635Y-38326692D01*
X1305468Y-38100000D01*
X1285635Y-37873308D01*
X1226739Y-37653504D01*
X1226736Y-37653497D01*
X1202678Y-37601904D01*
X1192186Y-37532827D01*
X1220706Y-37469043D01*
X1279183Y-37430804D01*
X1315060Y-37425500D01*
X3757257Y-37425500D01*
X3772877Y-37427224D01*
X3772904Y-37426939D01*
X3780666Y-37427673D01*
X3780666Y-37427672D01*
X3780667Y-37427673D01*
X3783999Y-37427568D01*
X3848847Y-37425531D01*
X3850794Y-37425500D01*
X3879347Y-37425500D01*
X3879350Y-37425500D01*
X3886228Y-37424630D01*
X3892041Y-37424172D01*
X3938627Y-37422709D01*
X3957869Y-37417117D01*
X3976912Y-37413174D01*
X3996792Y-37410664D01*
X4040122Y-37393507D01*
X4045646Y-37391617D01*
X4049396Y-37390527D01*
X4090390Y-37378618D01*
X4107629Y-37368422D01*
X4125103Y-37359862D01*
X4143727Y-37352488D01*
X4143727Y-37352487D01*
X4143732Y-37352486D01*
X4181449Y-37325082D01*
X4186305Y-37321892D01*
X4226420Y-37298170D01*
X4240589Y-37283999D01*
X4255379Y-37271368D01*
X4271587Y-37259594D01*
X4301299Y-37223676D01*
X4305212Y-37219376D01*
X6107182Y-35417406D01*
X6168504Y-35383923D01*
X6238196Y-35388907D01*
G37*
%TD.AperFunction*%
%TA.AperFunction,NonConductor*%
G36*
X6238196Y-37928907D02*
G01*
X6294129Y-37970779D01*
X6318546Y-38036243D01*
X6318390Y-38055895D01*
X6314532Y-38099996D01*
X6314532Y-38100001D01*
X6334364Y-38326686D01*
X6334366Y-38326697D01*
X6393258Y-38546488D01*
X6393261Y-38546497D01*
X6489431Y-38752732D01*
X6489432Y-38752734D01*
X6619954Y-38939141D01*
X6780858Y-39100045D01*
X6780861Y-39100047D01*
X6967266Y-39230568D01*
X7173504Y-39326739D01*
X7393308Y-39385635D01*
X7555230Y-39399801D01*
X7619998Y-39405468D01*
X7620000Y-39405468D01*
X7620002Y-39405468D01*
X7676673Y-39400509D01*
X7846692Y-39385635D01*
X7867826Y-39379972D01*
X7937671Y-39381633D01*
X7995535Y-39420793D01*
X8023042Y-39485020D01*
X8011458Y-39553923D01*
X7987601Y-39587426D01*
X7911849Y-39663180D01*
X7850527Y-39696666D01*
X7824167Y-39699500D01*
X4664452Y-39699500D01*
X4597413Y-39679815D01*
X4551658Y-39627011D01*
X4541714Y-39557853D01*
X4570739Y-39494297D01*
X4576771Y-39487819D01*
X5326409Y-38738181D01*
X6107183Y-37957406D01*
X6168504Y-37923923D01*
X6238196Y-37928907D01*
G37*
%TD.AperFunction*%
%TA.AperFunction,NonConductor*%
G36*
X-2394190Y1679815D02*
G01*
X-2348435Y1627011D01*
X-2338491Y1557853D01*
X-2367516Y1494297D01*
X-2373544Y1487824D01*
X-2614221Y1247147D01*
X-2824549Y1036819D01*
X-2885872Y1003334D01*
X-2912230Y1000500D01*
X-8786507Y1000500D01*
X-8788070Y1000520D01*
X-8876363Y1002757D01*
X-8876372Y1002757D01*
X-8929364Y993259D01*
X-8936746Y991936D01*
X-8941405Y991282D01*
X-9002436Y985075D01*
X-9002438Y985074D01*
X-9035220Y974790D01*
X-9042844Y972919D01*
X-9050692Y971512D01*
X-9076651Y966859D01*
X-9133619Y944105D01*
X-9138055Y942526D01*
X-9196586Y924160D01*
X-9196590Y924158D01*
X-9226622Y907490D01*
X-9233716Y904121D01*
X-9265618Y891377D01*
X-9265623Y891375D01*
X-9316844Y857619D01*
X-9320872Y855178D01*
X-9374499Y825412D01*
X-9400566Y803035D01*
X-9406835Y798308D01*
X-9435516Y779405D01*
X-9435522Y779400D01*
X-9478891Y736032D01*
X-9482345Y732831D01*
X-9528898Y692864D01*
X-9549924Y665702D01*
X-9555115Y659808D01*
X-10894106Y-679185D01*
X-11697909Y-1482987D01*
X-11699033Y-1484083D01*
X-11763054Y-1544942D01*
X-11798101Y-1595294D01*
X-11800938Y-1599056D01*
X-11839698Y-1646592D01*
X-11839701Y-1646597D01*
X-11855608Y-1677047D01*
X-11859676Y-1683761D01*
X-11879298Y-1711954D01*
X-11903491Y-1768330D01*
X-11905512Y-1772584D01*
X-11933909Y-1826951D01*
X-11933910Y-1826952D01*
X-11943360Y-1859975D01*
X-11945993Y-1867371D01*
X-11959541Y-1898943D01*
X-11971887Y-1959019D01*
X-11973010Y-1963595D01*
X-11989887Y-2022577D01*
X-11989887Y-2022579D01*
X-11992497Y-2056841D01*
X-11993586Y-2064608D01*
X-11999020Y-2091052D01*
X-12000500Y-2098258D01*
X-12000500Y-2159597D01*
X-12000679Y-2164306D01*
X-12005338Y-2225473D01*
X-12000998Y-2259549D01*
X-12000501Y-2267389D01*
X-12000501Y-3134217D01*
X-12020186Y-3201256D01*
X-12036820Y-3221898D01*
X-18712320Y-9897398D01*
X-18773643Y-9930883D01*
X-18843335Y-9925899D01*
X-18887682Y-9897398D01*
X-18928418Y-9856662D01*
X-18949597Y-9839392D01*
X-19046593Y-9760302D01*
X-19226951Y-9666091D01*
X-19422582Y-9610113D01*
X-19422583Y-9610112D01*
X-19422584Y-9610112D01*
X-19625475Y-9594662D01*
X-19625478Y-9594662D01*
X-19827322Y-9620368D01*
X-19827330Y-9620370D01*
X-20019871Y-9686183D01*
X-20019883Y-9686189D01*
X-20195222Y-9789406D01*
X-20195229Y-9789411D01*
X-20346213Y-9925820D01*
X-20346213Y-9925821D01*
X-20466647Y-10089828D01*
X-20466651Y-10089835D01*
X-20551603Y-10274725D01*
X-20551607Y-10274737D01*
X-20597604Y-10472945D01*
X-20602758Y-10676358D01*
X-20566860Y-10876648D01*
X-20566858Y-10876654D01*
X-20532439Y-10962819D01*
X-20517931Y-10999141D01*
X-20491377Y-11065616D01*
X-20491371Y-11065628D01*
X-20379404Y-11235517D01*
X-20379400Y-11235522D01*
X-20302736Y-11312186D01*
X-20269251Y-11373509D01*
X-20274235Y-11443201D01*
X-20304983Y-11489739D01*
X-20363050Y-11544938D01*
X-20363054Y-11544942D01*
X-20398101Y-11595294D01*
X-20400938Y-11599056D01*
X-20439698Y-11646592D01*
X-20439701Y-11646597D01*
X-20455608Y-11677047D01*
X-20459676Y-11683761D01*
X-20479298Y-11711954D01*
X-20503491Y-11768330D01*
X-20505512Y-11772584D01*
X-20533909Y-11826951D01*
X-20533910Y-11826952D01*
X-20543360Y-11859975D01*
X-20545993Y-11867371D01*
X-20559541Y-11898943D01*
X-20571887Y-11959019D01*
X-20573010Y-11963595D01*
X-20589887Y-12022577D01*
X-20589887Y-12022579D01*
X-20592497Y-12056841D01*
X-20593586Y-12064608D01*
X-20595552Y-12074181D01*
X-20600500Y-12098258D01*
X-20600500Y-12159597D01*
X-20600679Y-12164306D01*
X-20605338Y-12225473D01*
X-20600998Y-12259549D01*
X-20600501Y-12267389D01*
X-20600501Y-32006509D01*
X-20600521Y-32008079D01*
X-20602757Y-32096359D01*
X-20602757Y-32096367D01*
X-20591936Y-32156739D01*
X-20591282Y-32161404D01*
X-20585075Y-32222430D01*
X-20585073Y-32222444D01*
X-20574792Y-32255213D01*
X-20572921Y-32262837D01*
X-20566858Y-32296652D01*
X-20566858Y-32296655D01*
X-20544106Y-32353612D01*
X-20542526Y-32358051D01*
X-20524159Y-32416588D01*
X-20524156Y-32416595D01*
X-20507491Y-32446619D01*
X-20504121Y-32453714D01*
X-20491378Y-32485614D01*
X-20491373Y-32485624D01*
X-20457623Y-32536833D01*
X-20455182Y-32540863D01*
X-20425412Y-32594498D01*
X-20425411Y-32594499D01*
X-20425409Y-32594502D01*
X-20403032Y-32620567D01*
X-20398307Y-32626835D01*
X-20385737Y-32645906D01*
X-20379402Y-32655519D01*
X-20336022Y-32698899D01*
X-20332831Y-32702343D01*
X-20299930Y-32740667D01*
X-20292866Y-32748895D01*
X-20265706Y-32769918D01*
X-20259810Y-32775111D01*
X-17946888Y-35088033D01*
X-17913403Y-35149356D01*
X-17911041Y-35164906D01*
X-17905636Y-35226687D01*
X-17905634Y-35226697D01*
X-17846742Y-35446488D01*
X-17846739Y-35446497D01*
X-17750569Y-35652732D01*
X-17750568Y-35652734D01*
X-17620046Y-35839141D01*
X-17459142Y-36000045D01*
X-17412307Y-36032839D01*
X-17272734Y-36130568D01*
X-17066496Y-36226739D01*
X-16846692Y-36285635D01*
X-16684770Y-36299801D01*
X-16620002Y-36305468D01*
X-16620000Y-36305468D01*
X-16619998Y-36305468D01*
X-16563193Y-36300498D01*
X-16393308Y-36285635D01*
X-16173504Y-36226739D01*
X-15967266Y-36130568D01*
X-15780861Y-36000047D01*
X-15628684Y-35847870D01*
X-10300500Y-35847870D01*
X-10300499Y-35847876D01*
X-10294092Y-35907483D01*
X-10243798Y-36042328D01*
X-10243794Y-36042335D01*
X-10157548Y-36157544D01*
X-10157545Y-36157547D01*
X-10042336Y-36243793D01*
X-10042329Y-36243797D01*
X-9907483Y-36294091D01*
X-9907484Y-36294091D01*
X-9900556Y-36294835D01*
X-9847873Y-36300500D01*
X-8152128Y-36300499D01*
X-8092517Y-36294091D01*
X-7957669Y-36243796D01*
X-7842454Y-36157546D01*
X-7756204Y-36042331D01*
X-7705909Y-35907483D01*
X-7699500Y-35847873D01*
X-7699501Y-34152128D01*
X-7705909Y-34092517D01*
X-7714232Y-34070203D01*
X-7756203Y-33957671D01*
X-7756207Y-33957664D01*
X-7842453Y-33842455D01*
X-7842456Y-33842452D01*
X-7957665Y-33756206D01*
X-7957672Y-33756202D01*
X-8092518Y-33705908D01*
X-8092517Y-33705908D01*
X-8152117Y-33699501D01*
X-8152119Y-33699500D01*
X-8152127Y-33699500D01*
X-8152136Y-33699500D01*
X-9847871Y-33699500D01*
X-9847877Y-33699501D01*
X-9907484Y-33705908D01*
X-10042329Y-33756202D01*
X-10042336Y-33756206D01*
X-10157545Y-33842452D01*
X-10157548Y-33842455D01*
X-10243794Y-33957664D01*
X-10243798Y-33957671D01*
X-10294092Y-34092517D01*
X-10300333Y-34150570D01*
X-10300499Y-34152123D01*
X-10300500Y-34152135D01*
X-10300500Y-35847870D01*
X-15628684Y-35847870D01*
X-15619953Y-35839139D01*
X-15489432Y-35652734D01*
X-15393261Y-35446496D01*
X-15334365Y-35226692D01*
X-15314532Y-35000000D01*
X-15334365Y-34773308D01*
X-15382553Y-34593466D01*
X-15393259Y-34553511D01*
X-15393262Y-34553502D01*
X-15463731Y-34402382D01*
X-15489432Y-34347266D01*
X-15619953Y-34160861D01*
X-15619955Y-34160858D01*
X-15780859Y-33999954D01*
X-15967266Y-33869432D01*
X-15967268Y-33869431D01*
X-16173503Y-33773261D01*
X-16173512Y-33773258D01*
X-16393303Y-33714366D01*
X-16393312Y-33714364D01*
X-16455097Y-33708958D01*
X-16520165Y-33683504D01*
X-16531968Y-33673111D01*
X-18563182Y-31641897D01*
X-18596667Y-31580574D01*
X-18599501Y-31554216D01*
X-18599501Y-27380001D01*
X-17925468Y-27380001D01*
X-17905636Y-27606686D01*
X-17905634Y-27606697D01*
X-17846742Y-27826488D01*
X-17846739Y-27826497D01*
X-17750569Y-28032732D01*
X-17750568Y-28032734D01*
X-17620046Y-28219141D01*
X-17459142Y-28380045D01*
X-17459139Y-28380047D01*
X-17272734Y-28510568D01*
X-17066496Y-28606739D01*
X-16846692Y-28665635D01*
X-16684770Y-28679801D01*
X-16620002Y-28685468D01*
X-16620000Y-28685468D01*
X-16619998Y-28685468D01*
X-16563327Y-28680509D01*
X-16393308Y-28665635D01*
X-16173504Y-28606739D01*
X-15967266Y-28510568D01*
X-15780861Y-28380047D01*
X-15619953Y-28219139D01*
X-15489432Y-28032734D01*
X-15393261Y-27826496D01*
X-15334365Y-27606692D01*
X-15314532Y-27380000D01*
X-15334365Y-27153308D01*
X-15382232Y-26974664D01*
X-15393259Y-26933511D01*
X-15393262Y-26933502D01*
X-15463731Y-26782382D01*
X-15489432Y-26727266D01*
X-15619953Y-26540861D01*
X-15619955Y-26540858D01*
X-15780859Y-26379954D01*
X-15967266Y-26249432D01*
X-15967268Y-26249431D01*
X-16173503Y-26153261D01*
X-16173512Y-26153258D01*
X-16393303Y-26094366D01*
X-16393307Y-26094365D01*
X-16393308Y-26094365D01*
X-16393309Y-26094364D01*
X-16393314Y-26094364D01*
X-16619998Y-26074532D01*
X-16620002Y-26074532D01*
X-16846687Y-26094364D01*
X-16846698Y-26094366D01*
X-17066489Y-26153258D01*
X-17066498Y-26153261D01*
X-17272733Y-26249431D01*
X-17272735Y-26249432D01*
X-17459142Y-26379954D01*
X-17620046Y-26540858D01*
X-17750568Y-26727265D01*
X-17750569Y-26727267D01*
X-17846739Y-26933502D01*
X-17846742Y-26933511D01*
X-17905634Y-27153302D01*
X-17905636Y-27153313D01*
X-17925468Y-27379998D01*
X-17925468Y-27380001D01*
X-18599501Y-27380001D01*
X-18599501Y-22134332D01*
X-18599501Y-12665777D01*
X-18579816Y-12598742D01*
X-18563190Y-12578109D01*
X-18174693Y-12189611D01*
X-18174683Y-12189604D01*
X-18164481Y-12179402D01*
X-18111541Y-12126460D01*
X-18109334Y-12124362D01*
X-18053787Y-12074179D01*
X-18044253Y-12061193D01*
X-18031994Y-12046913D01*
X-13437181Y-7452099D01*
X-13375858Y-7418615D01*
X-13306166Y-7423599D01*
X-13250233Y-7465471D01*
X-13225816Y-7530935D01*
X-13225500Y-7539781D01*
X-13225500Y-7541016D01*
X-13227027Y-7560415D01*
X-13230160Y-7580194D01*
X-13230160Y-7580195D01*
X-13225775Y-7626583D01*
X-13225500Y-7632421D01*
X-13225500Y-15301312D01*
X-13245185Y-15368351D01*
X-13257350Y-15384284D01*
X-13332534Y-15467784D01*
X-13427179Y-15631715D01*
X-13427182Y-15631722D01*
X-13444979Y-15686497D01*
X-13485674Y-15811744D01*
X-13505460Y-16000000D01*
X-13485674Y-16188256D01*
X-13485673Y-16188259D01*
X-13427182Y-16368277D01*
X-13427179Y-16368284D01*
X-13332533Y-16532216D01*
X-13291430Y-16577865D01*
X-13205871Y-16672888D01*
X-13052735Y-16784148D01*
X-13052730Y-16784151D01*
X-12879808Y-16861142D01*
X-12879803Y-16861144D01*
X-12694646Y-16900500D01*
X-12694645Y-16900500D01*
X-12505356Y-16900500D01*
X-12505354Y-16900500D01*
X-12320197Y-16861144D01*
X-12147270Y-16784151D01*
X-11994129Y-16672888D01*
X-11867467Y-16532216D01*
X-11772821Y-16368284D01*
X-11772448Y-16367134D01*
X-11772052Y-16366554D01*
X-11770175Y-16362341D01*
X-11769406Y-16362683D01*
X-11733021Y-16309457D01*
X-11668666Y-16282249D01*
X-11599818Y-16294153D01*
X-11566832Y-16317758D01*
X-7321772Y-20562819D01*
X-7288287Y-20624142D01*
X-7293271Y-20693834D01*
X-7335143Y-20749767D01*
X-7400607Y-20774184D01*
X-7409453Y-20774500D01*
X-7717257Y-20774500D01*
X-7732878Y-20772775D01*
X-7732905Y-20773061D01*
X-7740667Y-20772326D01*
X-7808860Y-20774469D01*
X-7810807Y-20774500D01*
X-7839351Y-20774500D01*
X-7846222Y-20775367D01*
X-7852041Y-20775825D01*
X-7898626Y-20777289D01*
X-7898632Y-20777290D01*
X-7917874Y-20782880D01*
X-7936913Y-20786823D01*
X-7956783Y-20789334D01*
X-7956797Y-20789337D01*
X-8000117Y-20806488D01*
X-8005642Y-20808380D01*
X-8050387Y-20821380D01*
X-8050390Y-20821381D01*
X-8067634Y-20831579D01*
X-8085095Y-20840133D01*
X-8103726Y-20847510D01*
X-8103738Y-20847517D01*
X-8141430Y-20874902D01*
X-8146313Y-20878109D01*
X-8186420Y-20901829D01*
X-8200586Y-20915995D01*
X-8215376Y-20928627D01*
X-8231586Y-20940404D01*
X-8231589Y-20940407D01*
X-8261290Y-20976309D01*
X-8265223Y-20980631D01*
X-9783792Y-22499199D01*
X-9796049Y-22509020D01*
X-9795866Y-22509241D01*
X-9801878Y-22514214D01*
X-9848568Y-22563932D01*
X-9849921Y-22565329D01*
X-9870111Y-22585519D01*
X-9870123Y-22585532D01*
X-9874379Y-22591017D01*
X-9878163Y-22595447D01*
X-9910063Y-22629418D01*
X-9910064Y-22629420D01*
X-9919716Y-22646976D01*
X-9930390Y-22663226D01*
X-9942671Y-22679061D01*
X-9942676Y-22679068D01*
X-9961185Y-22721838D01*
X-9963755Y-22727084D01*
X-9986197Y-22767906D01*
X-9991178Y-22787307D01*
X-9997479Y-22805710D01*
X-10005438Y-22824102D01*
X-10005439Y-22824105D01*
X-10012729Y-22870127D01*
X-10013913Y-22875846D01*
X-10025499Y-22920972D01*
X-10025500Y-22920982D01*
X-10025500Y-22941016D01*
X-10027027Y-22960415D01*
X-10030160Y-22980194D01*
X-10030161Y-22980197D01*
X-10025776Y-23026585D01*
X-10025501Y-23032421D01*
X-10025501Y-23501312D01*
X-10045186Y-23568351D01*
X-10057351Y-23584284D01*
X-10132530Y-23667778D01*
X-10132535Y-23667785D01*
X-10227179Y-23831715D01*
X-10227182Y-23831722D01*
X-10278794Y-23990570D01*
X-10285674Y-24011744D01*
X-10305460Y-24200000D01*
X-10285674Y-24388256D01*
X-10285673Y-24388259D01*
X-10227182Y-24568277D01*
X-10227179Y-24568284D01*
X-10132533Y-24732216D01*
X-10107850Y-24759629D01*
X-10005871Y-24872888D01*
X-9852735Y-24984148D01*
X-9852730Y-24984151D01*
X-9679808Y-25061142D01*
X-9679803Y-25061144D01*
X-9494646Y-25100500D01*
X-9494645Y-25100500D01*
X-9305356Y-25100500D01*
X-9305354Y-25100500D01*
X-9120197Y-25061144D01*
X-8947270Y-24984151D01*
X-8794129Y-24872888D01*
X-8692150Y-24759628D01*
X-8632663Y-24722980D01*
X-8562806Y-24724311D01*
X-8507850Y-24759629D01*
X-8405871Y-24872888D01*
X-8252735Y-24984148D01*
X-8252730Y-24984151D01*
X-8079808Y-25061142D01*
X-8079803Y-25061144D01*
X-7894646Y-25100500D01*
X-7894645Y-25100500D01*
X-7749500Y-25100500D01*
X-7682461Y-25120185D01*
X-7636706Y-25172989D01*
X-7625500Y-25224500D01*
X-7625500Y-26691052D01*
X-7645185Y-26758091D01*
X-7697989Y-26803846D01*
X-7767147Y-26813790D01*
X-7830703Y-26784765D01*
X-7861881Y-26743459D01*
X-7869432Y-26727266D01*
X-7999953Y-26540861D01*
X-7999955Y-26540858D01*
X-8160859Y-26379954D01*
X-8347266Y-26249432D01*
X-8347268Y-26249431D01*
X-8553503Y-26153261D01*
X-8553512Y-26153258D01*
X-8773303Y-26094366D01*
X-8773307Y-26094365D01*
X-8773308Y-26094365D01*
X-8773309Y-26094364D01*
X-8773314Y-26094364D01*
X-8999998Y-26074532D01*
X-9000002Y-26074532D01*
X-9226687Y-26094364D01*
X-9226698Y-26094366D01*
X-9446489Y-26153258D01*
X-9446498Y-26153261D01*
X-9652733Y-26249431D01*
X-9652735Y-26249432D01*
X-9839142Y-26379954D01*
X-10000046Y-26540858D01*
X-10130568Y-26727265D01*
X-10130569Y-26727267D01*
X-10226739Y-26933502D01*
X-10226742Y-26933511D01*
X-10285634Y-27153302D01*
X-10285636Y-27153313D01*
X-10305468Y-27379998D01*
X-10305468Y-27380001D01*
X-10285636Y-27606686D01*
X-10285634Y-27606697D01*
X-10226742Y-27826488D01*
X-10226739Y-27826497D01*
X-10130569Y-28032732D01*
X-10130568Y-28032734D01*
X-10000046Y-28219141D01*
X-9839142Y-28380045D01*
X-9839139Y-28380047D01*
X-9652734Y-28510568D01*
X-9446496Y-28606739D01*
X-9226692Y-28665635D01*
X-9064770Y-28679801D01*
X-9000002Y-28685468D01*
X-9000000Y-28685468D01*
X-8999998Y-28685468D01*
X-8943327Y-28680509D01*
X-8773308Y-28665635D01*
X-8553504Y-28606739D01*
X-8347266Y-28510568D01*
X-8160861Y-28380047D01*
X-7999953Y-28219139D01*
X-7869432Y-28032734D01*
X-7861882Y-28016542D01*
X-7815710Y-27964103D01*
X-7748517Y-27944951D01*
X-7681636Y-27965166D01*
X-7636301Y-28018331D01*
X-7625500Y-28068947D01*
X-7625500Y-32717255D01*
X-7627225Y-32732872D01*
X-7626939Y-32732899D01*
X-7627674Y-32740666D01*
X-7625531Y-32808846D01*
X-7625500Y-32810793D01*
X-7625500Y-32839343D01*
X-7625499Y-32839360D01*
X-7624632Y-32846231D01*
X-7624174Y-32852050D01*
X-7622710Y-32898624D01*
X-7622709Y-32898627D01*
X-7617120Y-32917867D01*
X-7613176Y-32936911D01*
X-7610733Y-32956243D01*
X-7610664Y-32956791D01*
X-7593510Y-33000119D01*
X-7591618Y-33005647D01*
X-7578619Y-33050388D01*
X-7568420Y-33067634D01*
X-7559862Y-33085103D01*
X-7552486Y-33103732D01*
X-7525102Y-33141423D01*
X-7521894Y-33146307D01*
X-7498173Y-33186416D01*
X-7498167Y-33186424D01*
X-7484010Y-33200580D01*
X-7471372Y-33215376D01*
X-7459595Y-33231586D01*
X-7459594Y-33231587D01*
X-7423691Y-33261288D01*
X-7419380Y-33265210D01*
X-4285451Y-36399139D01*
X-1196771Y-39487819D01*
X-1163286Y-39549142D01*
X-1168270Y-39618834D01*
X-1210142Y-39674767D01*
X-1275606Y-39699184D01*
X-1284452Y-39699500D01*
X-21824167Y-39699500D01*
X-21891206Y-39679815D01*
X-21911848Y-39663181D01*
X-22663181Y-38911847D01*
X-22696666Y-38850524D01*
X-22699500Y-38824166D01*
X-22699500Y824167D01*
X-22679815Y891206D01*
X-22663181Y911848D01*
X-21911847Y1663181D01*
X-21850524Y1696666D01*
X-21824166Y1699500D01*
X-2461229Y1699500D01*
X-2394190Y1679815D01*
G37*
%TD.AperFunction*%
M02*
